<?xml version="1.0" encoding="UTF-8" standalone="no"?>
<!-- Created with Inkscape (http://www.inkscape.org/) -->

<svg
   width="210mm"
   height="297mm"
   viewBox="0 0 210 297"
   version="1.1"
   id="svg5"
   xml:space="preserve"
   inkscape:version="1.2 (dc2aedaf03, 2022-05-15)"
   sodipodi:docname="bayes.svg"
   xmlns:inkscape="http://www.inkscape.org/namespaces/inkscape"
   xmlns:sodipodi="http://sodipodi.sourceforge.net/DTD/sodipodi-0.dtd"
   xmlns="http://www.w3.org/2000/svg"
   xmlns:svg="http://www.w3.org/2000/svg"><sodipodi:namedview
     id="namedview7"
     pagecolor="#ffffff"
     bordercolor="#000000"
     borderopacity="0.25"
     inkscape:showpageshadow="2"
     inkscape:pageopacity="0.0"
     inkscape:pagecheckerboard="0"
     inkscape:deskcolor="#d1d1d1"
     inkscape:document-units="mm"
     showgrid="false"
     inkscape:zoom="1.6819304"
     inkscape:cx="278.2517"
     inkscape:cy="628.44455"
     inkscape:window-width="2400"
     inkscape:window-height="1494"
     inkscape:window-x="-11"
     inkscape:window-y="-11"
     inkscape:window-maximized="1"
     inkscape:current-layer="layer1" /><defs
     id="defs2" /><g
     inkscape:label="Layer 1"
     inkscape:groupmode="layer"
     id="layer1"><path
       style="fill:#817ae5;fill-opacity:1;fill-rule:evenodd;stroke:#000000;stroke-width:2.471;stroke-linecap:square;stroke-dasharray:none;stroke-opacity:1;stroke-dashoffset:0"
       id="path1499"
       sodipodi:type="arc"
       sodipodi:cx="109.72325"
       sodipodi:cy="133.08368"
       sodipodi:rx="51.833424"
       sodipodi:ry="56.788666"
       sodipodi:start="0"
       sodipodi:end="6.2804451"
       sodipodi:arc-type="arc"
       d="M 161.55667,133.08368 A 51.833424,56.788666 0 0 1 109.75876,189.87233 51.833424,56.788666 0 0 1 57.889876,133.16149 51.833424,56.788666 0 0 1 109.61673,76.295133 51.833424,56.788666 0 0 1 161.55648,132.92807"
       inkscape:transform-center-x="38.069049"
       inkscape:transform-center-y="-0.62923619"
       sodipodi:open="true" /><path
       style="fill:#000000;fill-opacity:0;fill-rule:evenodd;stroke:#000000;stroke-width:1.471;stroke-linecap:square;stroke-opacity:1"
       d="m 107.00758,146.82952 c -1.62854,0.44783 -5.36047,-1.20772 -8.676294,-2.44716 l -3.559503,-10.90097 c -2.009342,-1.77263 -1.881657,-5.68229 -1.557282,-9.78864 -5.43452,-29.983197 4.664021,-28.429233 11.123439,-32.92541 7.90828,0.823533 15.06669,0.183439 21.82896,6.163974 l 3.53251,19.419956 c 3.67619,2.00457 3.14473,6.59847 -0.88987,13.34814 -0.80211,3.78197 -1.80557,7.56395 -3.78197,11.34592 -4.17441,4.21838 -11.69234,4.25736 -18.01999,5.78419 z"
       id="path403"
       sodipodi:nodetypes="cccccccccc" /><path
       style="fill:#000000;fill-opacity:0;fill-rule:evenodd;stroke:#000000;stroke-width:0.457928;stroke-linecap:square;stroke-dasharray:none;stroke-opacity:1"
       d="m 112.12888,122.35871 c 2.29995,-2.96224 4.59988,-1.12565 6.89983,-0.4475 m -24.044855,0.93354 c 1.415027,-1.06429 2.592955,-0.92478 3.462641,-0.97778 1.513635,-0.0922 1.318163,0.36095 2.436064,0.97478"
       id="path1063"
       sodipodi:nodetypes="cccsc" /><path
       style="fill:#000000;fill-opacity:0;fill-rule:evenodd;stroke:#000000;stroke-width:1.271;stroke-linecap:square;stroke-dasharray:none;stroke-opacity:1"
       d="m 93.436968,119.46584 1.223581,-1.89099 6.229131,1.66852"
       id="path1090" /><path
       style="fill:#000000;fill-opacity:0;fill-rule:evenodd;stroke:#000000;stroke-width:1.271;stroke-linecap:square;stroke-dasharray:none;stroke-opacity:1"
       d="m 109.6772,117.79732 5.56173,-2.00222 4.78308,2.78086"
       id="path1092" /><path
       style="fill:#000000;fill-opacity:0;fill-rule:evenodd;stroke:#000000;stroke-width:0.671;stroke-linecap:square;stroke-dasharray:none;stroke-opacity:1"
       d="m 103.33684,119.68831 c 0.34755,3.93028 1.28727,4.04793 -1.44605,11.79085 0.28403,0.42185 0.97921,0.68953 2.44716,0.66741 1.1109,0.82423 1.76836,0.43927 2.44716,0.11124 3.59306,0.3508 4.29142,-0.48259 4.67185,-1.44605 -1.79379,-3.70743 -3.54081,-7.42565 -3.44827,-11.56839"
       id="path1094"
       sodipodi:nodetypes="cccccc" /><path
       style="fill:#000000;fill-opacity:0;fill-rule:evenodd;stroke:#000000;stroke-width:0.670999;stroke-linecap:square;stroke-dasharray:none;stroke-opacity:1"
       d="m 102.44696,137.48583 4.39377,0.83426 4.8387,-0.66741"
       id="path1096" /><path
       style="fill:#000000;fill-opacity:1;fill-rule:evenodd;stroke:#000000;stroke-width:0.586493;stroke-linecap:square;stroke-dasharray:none;stroke-opacity:1"
       id="path1150"
       sodipodi:type="arc"
       sodipodi:cx="98.665031"
       sodipodi:cy="122.94192"
       sodipodi:rx="0.9878009"
       sodipodi:ry="0.79307669"
       sodipodi:start="0"
       sodipodi:end="6.2805283"
       sodipodi:arc-type="slice"
       d="m 99.652832,122.94192 a 0.9878009,0.79307669 0 0 1 -0.987144,0.79307 0.9878009,0.79307669 0 0 1 -0.988457,-0.79202 0.9878009,0.79307669 0 0 1 0.985832,-0.79413 0.9878009,0.79307669 0 0 1 0.989766,0.79097 l -0.987798,0.002 z" /><path
       style="fill:#000000;fill-opacity:1;fill-rule:evenodd;stroke:#000000;stroke-width:0.586493;stroke-linecap:square;stroke-dasharray:none;stroke-opacity:1"
       id="path1150-7"
       sodipodi:type="arc"
       sodipodi:cx="114.68227"
       sodipodi:cy="121.913"
       sodipodi:rx="0.9878009"
       sodipodi:ry="0.79307669"
       sodipodi:start="0"
       sodipodi:end="6.2805283"
       sodipodi:arc-type="slice"
       d="m 115.67007,121.913 a 0.9878009,0.79307669 0 0 1 -0.98715,0.79308 0.9878009,0.79307669 0 0 1 -0.98845,-0.79202 0.9878009,0.79307669 0 0 1 0.98583,-0.79413 0.9878009,0.79307669 0 0 1 0.98976,0.79096 l -0.98779,0.002 z" /><path
       style="fill:#000000;fill-opacity:0;fill-rule:evenodd;stroke:#000000;stroke-width:0.670999;stroke-linecap:square;stroke-dasharray:none;stroke-opacity:1"
       d="m 127.86404,125.30565 1.22358,-2.39154 -0.88987,-1.39043"
       id="path1436" /><path
       style="fill:#000000;fill-opacity:0;fill-rule:evenodd;stroke:#000000;stroke-width:0.670999;stroke-linecap:square;stroke-dasharray:none;stroke-opacity:1"
       d="m 92.49788,105.23994 c 2.746417,-3.54804 7.83089,-0.86127 12.34878,0.31461 4.19492,-2.79103 12.19727,-6.505715 13.13533,-4.326 4.27798,0.22454 7.66948,15.96661 11.48358,15.02304"
       id="path1438"
       sodipodi:nodetypes="cccc" /><path
       style="fill:#000000;fill-opacity:0;fill-rule:evenodd;stroke:#000000;stroke-width:1.349;stroke-linecap:square;stroke-dasharray:none;stroke-opacity:1"
       d="m 95.489104,136.38608 c -5.215166,2.06008 -7.057235,4.84475 -9.541369,7.49149 -12.029642,10.02582 -13.619327,12.51171 -12.943076,13.36111 -3.792838,2.49471 -5.028928,4.72498 -6.96935,7.0281"
       id="path1440"
       sodipodi:nodetypes="cccc" /><path
       style="fill:#000000;fill-opacity:0;fill-rule:evenodd;stroke:#000000;stroke-width:1.767;stroke-linecap:square;stroke-dasharray:none;stroke-opacity:1"
       d="m 129.92358,127.88553 c 2.34009,-1.02088 3.09237,5.23971 4.56815,8.18242 21.90055,9.61761 11.1555,8.80129 14.70949,8.18241 6.85259,3.32888 7.00982,5.77127 9.41041,8.37958"
       id="path1442"
       sodipodi:nodetypes="cccc" /><path
       style="fill:#000000;fill-opacity:0;fill-rule:evenodd;stroke:#000000;stroke-width:1.471;stroke-linecap:square;stroke-dasharray:none;stroke-opacity:1"
       d="m 100.52065,147.39883 c -7.511265,1.50466 -11.875524,11.59207 -14.787071,25.64142 l 15.888241,4.56197 c 1.74992,-14.96238 3.65177,-24.75943 5.82045,-25.48411 -2.06306,7.7778 -2.39556,16.42087 -2.83157,25.01219 l 18.09057,0.47192 c 0.49365,-10.39929 -2.19909,-22.36601 -2.35964,-30.518"
       id="path1444"
       sodipodi:nodetypes="ccccccc" /><path
       style="fill:#000000;fill-opacity:0;fill-rule:evenodd;stroke:#000000;stroke-width:0.575409;stroke-linecap:square;stroke-dasharray:none;stroke-opacity:1"
       d="m 77.485762,161.0063 c 1.373537,-3.8002 4.094172,-7.1148 9.691327,-9.39247 l 3.654106,0.22909 c -11.666041,7.36522 -10.938131,17.70896 -13.027688,27.37559"
       id="path1446"
       sodipodi:nodetypes="cccc" /><path
       style="fill:#000000;fill-opacity:0;fill-rule:evenodd;stroke:#000000;stroke-width:0.382061;stroke-linecap:square;stroke-dasharray:none;stroke-opacity:1"
       d="m 72.996643,162.17631 c -1.531954,2.58095 -5.523819,4.8063 -2.594479,7.74617"
       id="path1448"
       sodipodi:nodetypes="cc" /><path
       style="fill:#000000;fill-opacity:0;fill-rule:evenodd;stroke:#000000;stroke-width:0.630307;stroke-linecap:square;stroke-dasharray:none;stroke-opacity:1"
       d="m 135.46746,144.69445 c -4.91316,8.71967 -6.7646,18.32878 -7.91442,28.14171 0.58039,5.64679 1.16078,9.05304 1.74117,12.96725"
       id="path1450"
       sodipodi:nodetypes="ccc" /><path
       style="fill:#000000;fill-opacity:0;fill-rule:evenodd;stroke:#000000;stroke-width:0.535877;stroke-linecap:square;stroke-dasharray:none;stroke-opacity:1"
       d="m 139.59855,145.88632 c 7.03927,8.41871 6.50619,18.41463 7.87816,28.01376"
       id="path1452"
       sodipodi:nodetypes="cc" /><path
       style="fill:#000000;fill-opacity:0;fill-rule:evenodd;stroke:#000000;stroke-width:0.327346;stroke-linecap:square;stroke-dasharray:none;stroke-opacity:1"
       d="m 150.77421,149.83033 c 2.7748,2.52334 5.0195,5.36329 6.76876,8.49917"
       id="path1454"
       sodipodi:nodetypes="cc" /><path
       style="fill:#000000;fill-opacity:0;fill-rule:evenodd;stroke:#000000;stroke-width:0.670999;stroke-linecap:square;stroke-dasharray:none;stroke-opacity:1"
       d="m 122.85858,124.27436 c -1.57309,2.46451 1.84102,1.51492 -3.3035,7.55085 -1.0111,3.00233 0.07,5.5862 1.10116,8.18008"
       id="path1456"
       sodipodi:nodetypes="ccc" /><path
       style="fill:#000000;fill-opacity:0;fill-rule:evenodd;stroke:#000000;stroke-width:0.339786;stroke-linecap:square;stroke-dasharray:none;stroke-opacity:1"
       d="m 89.024896,177.66779 c 6.882863,3.3928 9.33839,7.68951 11.641164,12.0174 3.80495,-3.99852 5.69791,-8.28331 13.3953,-11.69906"
       id="path1458"
       sodipodi:nodetypes="ccc" /><path
       style="fill:#000000;fill-opacity:0;fill-rule:evenodd;stroke:#000000;stroke-width:0.670999;stroke-linecap:square;stroke-dasharray:none;stroke-opacity:1"
       d="m 111.375,109.8019 c 3.3035,-1.27787 9.43856,-1.34246 12.74206,0.31462 m -9.12395,1.41579"
       id="path1460"
       sodipodi:nodetypes="cc" /><path
       d="M 43.260064,178.70339"
       style="fill:#000000;fill-opacity:0;fill-rule:evenodd;stroke:#000000;stroke-width:0.670999;stroke-linecap:square;stroke-dasharray:none;stroke-opacity:1"
       id="path1470" /><path
       style="fill:#000000;fill-opacity:0;fill-rule:evenodd;stroke:#000000;stroke-width:0.670999;stroke-linecap:square;stroke-dasharray:none;stroke-opacity:1"
       d="m 116.25159,112.31886 c 3.33893,-1.6794 5.8119,-0.76093 8.33739,-1e-5"
       id="path1495"
       sodipodi:nodetypes="cc" /><path
       style="fill:#817ae5;fill-opacity:1;fill-rule:evenodd;stroke:#000000;stroke-width:0.971;stroke-linecap:square;stroke-dasharray:none;stroke-dashoffset:0;stroke-opacity:1"
       d="m 101.77913,148.5 c -6.81656,3.35629 -10.0978,13.78321 -13.213983,24.54025 m 20.135593,-14.62976"
       id="path3066"
       sodipodi:nodetypes="cc" /><path
       style="fill:#817ae5;fill-opacity:1;fill-rule:evenodd;stroke:#000000;stroke-width:0.971;stroke-linecap:square;stroke-dasharray:none;stroke-dashoffset:0;stroke-opacity:1"
       d="m 117.82468,148.65731 c 1.36664,10.54482 2.42185,25.3736 0.62924,29.10222"
       id="path3113"
       sodipodi:nodetypes="cc" /></g></svg>
