<?xml version="1.0" encoding="UTF-8" standalone="no"?>
<!-- Created with Inkscape (http://www.inkscape.org/) -->

<svg
   width="210mm"
   height="297mm"
   viewBox="0 0 210 297"
   version="1.1"
   id="svg5"
   inkscape:version="1.2 (dc2aedaf03, 2022-05-15)"
   sodipodi:docname="Specific Heat Diagram.svg"
   xmlns:inkscape="http://www.inkscape.org/namespaces/inkscape"
   xmlns:sodipodi="http://sodipodi.sourceforge.net/DTD/sodipodi-0.dtd"
   xmlns="http://www.w3.org/2000/svg"
   xmlns:svg="http://www.w3.org/2000/svg">
  <sodipodi:namedview
     id="namedview7"
     pagecolor="#ffffff"
     bordercolor="#000000"
     borderopacity="0.25"
     inkscape:showpageshadow="2"
     inkscape:pageopacity="0.0"
     inkscape:pagecheckerboard="0"
     inkscape:deskcolor="#d1d1d1"
     inkscape:document-units="mm"
     showgrid="false"
     inkscape:zoom="0.84096521"
     inkscape:cx="447.1053"
     inkscape:cy="654.01041"
     inkscape:window-width="2400"
     inkscape:window-height="1494"
     inkscape:window-x="-11"
     inkscape:window-y="-11"
     inkscape:window-maximized="1"
     inkscape:current-layer="layer1" />
  <defs
     id="defs2" />
  <g
     inkscape:label="Layer 1"
     inkscape:groupmode="layer"
     id="layer1">
    <rect
       style="fill:#000000;stroke:#000000;stroke-width:0.147"
       id="rect739"
       width="104.13877"
       height="28.630295"
       x="50.653599"
       y="157.93855"
       ry="14.315147" />
    <rect
       style="fill:#000000;stroke:#000000;stroke-width:0.158617"
       id="rect739-9"
       width="104.12715"
       height="33.337959"
       x="51.445957"
       y="158.10168"
       ry="16.66898" />
    <rect
       style="fill:#ffffff;stroke:#ffffff;stroke-width:0.147;stroke-opacity:1"
       id="rect899"
       width="121.44279"
       height="31.776482"
       x="41.215038"
       y="142.83687"
       ry="14.315147" />
    <ellipse
       style="fill:#0000ff;stroke:#ffffff;stroke-width:0.370934;stroke-opacity:1"
       id="path1005"
       cx="102.88029"
       cy="174.45604"
       rx="50.856255"
       ry="6.0230966" />
    <ellipse
       style="fill:#000000;stroke:#000000;stroke-width:0.147;stroke-opacity:1"
       id="path1111"
       cx="164.23093"
       cy="178.38878"
       rx="25.48411"
       ry="5.9777541" />
    <ellipse
       style="fill:#0000ff;stroke:#ffffff;stroke-width:0.370934;stroke-opacity:1"
       id="path1005-8"
       cx="102.25105"
       cy="174.29872"
       rx="50.856255"
       ry="6.0230966" />
    <ellipse
       style="fill:#ffffff;stroke:#ffffff;stroke-width:0.162875;stroke-opacity:1"
       id="path1595"
       cx="158.09589"
       cy="185.31039"
       rx="7.5429096"
       ry="5.3405795" />
    <ellipse
       style="fill:#ffffff;stroke:#ffffff;stroke-width:0.156022;stroke-opacity:1"
       id="path1595-8"
       cx="172.25372"
       cy="185.93962"
       rx="6.9170985"
       ry="5.3440056" />
    <rect
       style="fill:#ffffff;stroke:#ffffff;stroke-width:0.114505;stroke-opacity:1"
       id="rect1747"
       width="17.336517"
       height="16.078043"
       x="148.48375"
       y="181.83333"
       ry="8.0390215" />
    <path
       style="fill:#ffffff;stroke:#b0b7db;stroke-width:1.95458;stroke-dasharray:none;stroke-opacity:1"
       d="m 72.696597,160.5695 c 0.29737,-0.55176 0.621567,-0.93815 0.892109,-1.65527 0.14542,-0.38542 0.154411,-1.25739 0.297371,-1.65526 1.506227,-4.19208 -1.543,5.43514 1.635532,-5.51755 0.646436,-2.2275 1.35452,-4.11701 1.932907,-6.62105 0.751988,-3.25565 -0.08161,-0.047 0.446055,-3.31053 0.07213,-0.44608 0.21961,-0.67067 0.29737,-1.10351 0.115312,-0.64183 -0.02843,-3.96781 -0.148684,-4.41403 -0.07836,-0.2908 -0.219007,-0.26097 -0.297369,-0.55177 -0.07836,-0.29079 -0.05365,-0.89192 -0.148701,-1.10351 -0.175228,-0.39013 -0.405008,-0.2701 -0.59474,-0.55173 -0.589739,-0.87539 -1.211392,-2.24768 -1.784219,-3.31055 -0.262169,-0.48643 -1.174526,-0.29419 -1.486849,-0.55174 -0.828726,-0.6834 -1.573988,-1.9053 -2.378959,-2.75878 -0.169419,-0.17962 -0.614522,-0.0735 -0.743427,-0.55176 -0.03505,-0.13004 0.02973,-0.40463 0,-0.55175 -0.126157,-0.62424 -0.34173,-0.97779 -0.446055,-1.65527 -0.551994,-3.58468 -0.345772,-13.02403 0,-16.55264 0.15149,-1.54597 0.281285,-3.25085 0.594739,-4.41402 0.12637,-0.4689 0.327337,-0.60789 0.446057,-1.10352 0.283248,-1.18249 0.441951,-2.743549 0.743425,-3.862278 1.344179,-4.988117 4.163178,-7.901336 4.163178,-16.000887 0,-0.627432 0.08912,-2.345343 0,-2.758763 -0.82784,-3.840037 -2.722651,-6.214036 -4.014494,-7.172817 -0.139759,-0.103826 -1.284029,-0.902627 -1.338166,-1.103515 -0.110816,-0.411254 -0.06804,-1.156546 -0.148684,-1.655265 -0.07213,-0.446068 -0.227821,-0.65185 -0.297371,-1.103508 -0.510703,-3.316553 -0.594739,-6.304045 -0.594739,-9.931588"
       id="path1861" />
    <path
       style="fill:#ffffff;stroke:#b0b7db;stroke-width:1.95458;stroke-dasharray:none;stroke-opacity:1"
       d="m 95.35598,149.63448 c -0.297366,-0.55176 -0.621563,-0.93815 -0.892105,-1.65527 -0.14542,-0.38542 -0.154411,-1.25739 -0.297371,-1.65526 -1.506227,-4.19208 1.542996,5.43514 -1.635527,-5.51755 -0.64644,-2.2275 -1.35452,-4.11701 -1.93291,-6.62105 -0.75199,-3.25565 0.0816,-0.047 -0.44606,-3.31053 -0.0721,-0.44608 -0.21961,-0.67067 -0.29737,-1.10351 -0.11531,-0.64183 0.0284,-3.96781 0.14869,-4.41403 0.0784,-0.2908 0.21901,-0.26097 0.29737,-0.55177 0.0784,-0.29079 0.0537,-0.89192 0.1487,-1.10351 0.17523,-0.39013 0.40501,-0.2701 0.59474,-0.55173 0.58974,-0.87539 1.21139,-2.24768 1.78422,-3.31055 0.262165,-0.48643 1.174522,-0.29419 1.486846,-0.55174 0.828726,-0.6834 1.573987,-1.9053 2.378957,-2.75878 0.16942,-0.17962 0.61452,-0.0735 0.74343,-0.55176 0.035,-0.13004 -0.0297,-0.40463 0,-0.55175 0.12616,-0.62424 0.34173,-0.97779 0.44605,-1.65527 0.552,-3.58468 0.34577,-13.02404 0,-16.552639 -0.15149,-1.54598 -0.28128,-3.25086 -0.59474,-4.41403 -0.12637,-0.46891 -0.32733,-0.60789 -0.44605,-1.10352 -0.28325,-1.1825 -0.44195,-2.74355 -0.74343,-3.86228 -1.344177,-4.988119 -4.163173,-7.901339 -4.163173,-16.000889 0,-0.62743 -0.0891,-2.34534 0,-2.75876 0.82784,-3.84004 2.722648,-6.21404 4.014493,-7.17282 0.13976,-0.10382 1.28403,-0.90262 1.33816,-1.10351 0.11082,-0.41126 0.068,-1.15655 0.14869,-1.65527 0.0721,-0.44606 0.22782,-0.65185 0.29737,-1.1035 0.5107,-3.31656 0.59474,-6.30405 0.59474,-9.93159"
       id="path1861-8" />
    <path
       style="fill:#ffffff;stroke:#b0b7db;stroke-width:1.95458;stroke-dasharray:none;stroke-opacity:1"
       d="m 115.49157,161.58999 c -0.29737,-0.55176 -0.62156,-0.93815 -0.8921,-1.65527 -0.14542,-0.38542 -0.15442,-1.25739 -0.29738,-1.65526 -1.50622,-4.19208 1.543,5.43514 -1.63552,-5.51755 -0.64644,-2.2275 -1.35452,-4.11701 -1.93291,-6.62105 -0.75199,-3.25565 0.0816,-0.047 -0.44606,-3.31053 -0.0721,-0.44608 -0.21961,-0.67067 -0.29737,-1.10351 -0.11531,-0.64183 0.0284,-3.96781 0.14869,-4.41403 0.0784,-0.2908 0.21901,-0.26097 0.29737,-0.55177 0.0784,-0.29079 0.0537,-0.89192 0.1487,-1.10351 0.17523,-0.39013 0.40501,-0.2701 0.59474,-0.55173 0.58974,-0.87539 1.21139,-2.24768 1.78422,-3.31055 0.26216,-0.48643 1.17452,-0.29419 1.48684,-0.55174 0.82873,-0.6834 1.57399,-1.9053 2.37896,-2.75878 0.16942,-0.17962 0.61452,-0.0735 0.74343,-0.55176 0.035,-0.13004 -0.0297,-0.40463 0,-0.55175 0.12616,-0.62424 0.34173,-0.97779 0.44605,-1.65527 0.552,-3.58468 0.34577,-13.02404 0,-16.55264 -0.15149,-1.54598 -0.28128,-3.25086 -0.59474,-4.41403 -0.12637,-0.46891 -0.32733,-0.60789 -0.44605,-1.10352 -0.28325,-1.1825 -0.44195,-2.74355 -0.74343,-3.862281 -1.34418,-4.988119 -4.16317,-7.901339 -4.16317,-16.000889 0,-0.62743 -0.0891,-2.34534 0,-2.75876 0.82784,-3.84004 2.72265,-6.21404 4.01449,-7.17282 0.13976,-0.10382 1.28403,-0.90262 1.33816,-1.10351 0.11082,-0.41126 0.068,-1.15655 0.14869,-1.65527 0.0721,-0.44606 0.22782,-0.65185 0.29737,-1.1035 0.5107,-3.31656 0.59474,-6.30405 0.59474,-9.93159"
       id="path1861-8-5" />
    <path
       style="fill:#ffffff;stroke:#b0b7db;stroke-width:1.95458;stroke-dasharray:none;stroke-opacity:1"
       d="m 131.16945,154.03914 c 0.29737,-0.55176 0.62156,-0.93815 0.8921,-1.65527 0.14542,-0.38542 0.15442,-1.25739 0.29738,-1.65526 1.50622,-4.19208 -1.543,5.43514 1.63552,-5.51755 0.64644,-2.2275 1.35452,-4.11701 1.93291,-6.62105 0.75199,-3.25565 -0.0816,-0.047 0.44606,-3.31053 0.0721,-0.44608 0.21961,-0.67067 0.29737,-1.10351 0.11531,-0.64183 -0.0284,-3.96781 -0.14869,-4.41403 -0.0784,-0.2908 -0.21901,-0.26097 -0.29737,-0.55177 -0.0784,-0.29079 -0.0537,-0.89192 -0.1487,-1.10351 -0.17523,-0.39013 -0.40501,-0.2701 -0.59474,-0.55173 -0.58974,-0.87539 -1.21139,-2.24768 -1.78422,-3.31055 -0.26216,-0.48643 -1.17452,-0.29419 -1.48684,-0.55174 -0.82873,-0.6834 -1.57399,-1.9053 -2.37896,-2.75878 -0.16942,-0.17962 -0.61452,-0.0735 -0.74343,-0.55176 -0.035,-0.13004 0.0297,-0.40463 0,-0.55175 -0.12616,-0.62424 -0.34173,-0.97779 -0.44605,-1.65527 -0.552,-3.58468 -0.34577,-13.02404 0,-16.55264 0.15149,-1.54598 0.28128,-3.250861 0.59474,-4.414031 0.12637,-0.46891 0.32733,-0.60789 0.44605,-1.10352 0.28325,-1.1825 0.44195,-2.74355 0.74343,-3.86228 1.34418,-4.988117 4.16317,-7.901337 4.16317,-16.000887 0,-0.62743 0.0891,-2.34534 0,-2.75876 -0.82784,-3.84004 -2.72265,-6.21404 -4.01449,-7.17282 -0.13976,-0.10382 -1.28403,-0.90262 -1.33816,-1.10351 -0.11082,-0.41126 -0.068,-1.15655 -0.14869,-1.65527 -0.0721,-0.44606 -0.22782,-0.65185 -0.29737,-1.1035 -0.5107,-3.31656 -0.59474,-6.30405 -0.59474,-9.93159"
       id="path1861-8-5-8" />
    <rect
       style="fill:#ffffff;stroke:#ffffff;stroke-width:2.147;stroke-dasharray:none;stroke-opacity:1"
       id="rect4062"
       width="142.52225"
       height="58.519066"
       x="34.293434"
       y="44.990467"
       ry="8.0227747" />
    <path
       sodipodi:type="star"
       style="fill:#ff0000;stroke:#ffffff;stroke-width:2.147;stroke-dasharray:none;stroke-opacity:1"
       id="path4636"
       inkscape:flatsided="false"
       sodipodi:sides="4"
       sodipodi:cx="69.530724"
       sodipodi:cy="213.31145"
       sodipodi:r1="27.199505"
       sodipodi:r2="13.599752"
       sodipodi:arg1="0.85087819"
       sodipodi:arg2="1.6362764"
       inkscape:rounded="0"
       inkscape:randomized="0"
       d="m 87.463986,233.76166 -18.823139,-6.87961 -19.560335,4.36266 6.879604,-18.82314 -4.362655,-19.56033 18.823139,6.8796 19.560335,-4.36266 -6.879604,18.82314 z"
       inkscape:transform-center-y="-2.6873882e-06" />
    <path
       sodipodi:type="star"
       style="fill:#ff0000;stroke:#ff0000;stroke-width:2.147;stroke-dasharray:none;stroke-opacity:1"
       id="path4636-0"
       inkscape:flatsided="false"
       sodipodi:sides="4"
       sodipodi:cx="69.530724"
       sodipodi:cy="213.31145"
       sodipodi:r1="27.199505"
       sodipodi:r2="13.599752"
       sodipodi:arg1="0.85087819"
       sodipodi:arg2="1.6362764"
       inkscape:rounded="0"
       inkscape:randomized="0"
       d="m 87.463986,233.76166 -18.823139,-6.87961 -19.560335,4.36266 6.879604,-18.82314 -4.362655,-19.56033 18.823139,6.8796 19.560335,-4.36266 -6.879604,18.82314 z"
       inkscape:transform-center-y="1.9526073e-06"
       transform="matrix(0.53493703,0,0,1.2153291,57.977582,-37.909388)" />
    <path
       sodipodi:type="star"
       style="fill:#ff0000;stroke:#ff0000;stroke-width:2.147;stroke-dasharray:none;stroke-opacity:1"
       id="path4636-0-2"
       inkscape:flatsided="false"
       sodipodi:sides="4"
       sodipodi:cx="69.530724"
       sodipodi:cy="213.31145"
       sodipodi:r1="27.199505"
       sodipodi:r2="13.599752"
       sodipodi:arg1="0.85087819"
       sodipodi:arg2="1.6362764"
       inkscape:rounded="0"
       inkscape:randomized="0"
       d="m 87.463986,233.76166 -18.823139,-6.87961 -19.560335,4.36266 6.879604,-18.82314 -4.362655,-19.56033 18.823139,6.8796 19.560335,-4.36266 -6.879604,18.82314 z"
       inkscape:transform-center-y="1.1870296e-05"
       transform="matrix(0.61060709,0,0,1.2110376,65.772861,-36.836647)" />
    <path
       sodipodi:type="star"
       style="fill:#ff0000;stroke:#ff0000;stroke-width:2.147;stroke-dasharray:none;stroke-opacity:1"
       id="path4636-0-2-0"
       inkscape:flatsided="false"
       sodipodi:sides="4"
       sodipodi:cx="59.565775"
       sodipodi:cy="213.64857"
       sodipodi:r1="27.199505"
       sodipodi:r2="13.599752"
       sodipodi:arg1="0.85087819"
       sodipodi:arg2="1.6362764"
       inkscape:rounded="0"
       inkscape:randomized="0"
       d="m 77.499039,234.09879 -18.823139,-6.87961 -19.560335,4.36266 6.879604,-18.82314 -4.362655,-19.56034 18.823139,6.87961 19.560336,-4.36266 -6.879605,18.82314 z"
       inkscape:transform-center-y="4.2200905e-06"
       transform="matrix(0.85245833,0,0,0.93325765,76.013968,17.6977)" />
    <path
       sodipodi:type="star"
       style="fill:#d10000;stroke:#cf0000;stroke-width:2.147;stroke-dasharray:none;stroke-opacity:1;fill-opacity:1"
       id="path4638"
       inkscape:flatsided="false"
       sodipodi:sides="4"
       sodipodi:cx="95.644066"
       sodipodi:cy="199.78284"
       sodipodi:r1="16.942732"
       sodipodi:r2="8.4713659"
       sodipodi:arg1="1.3078016"
       sodipodi:arg2="2.0931998"
       inkscape:rounded="0"
       inkscape:randomized="0"
       d="m 100.04873,216.14301 -8.631575,-9.0187 -12.133258,-2.93681 9.018693,-8.63157 2.936815,-12.13326 8.631572,9.01869 12.133253,2.93682 -9.01869,8.63157 z"
       inkscape:transform-center-x="1.2049646e-06"
       inkscape:transform-center-y="-2.5169491e-06"
       transform="translate(-21.079449,8.4947034)" />
    <path
       sodipodi:type="star"
       style="fill:#d10000;fill-opacity:1;stroke:#cf0000;stroke-width:2.147;stroke-dasharray:none;stroke-opacity:1"
       id="path4638-3"
       inkscape:flatsided="false"
       sodipodi:sides="4"
       sodipodi:cx="95.644066"
       sodipodi:cy="199.78284"
       sodipodi:r1="16.942732"
       sodipodi:r2="8.4713659"
       sodipodi:arg1="1.3078016"
       sodipodi:arg2="2.0931998"
       inkscape:rounded="0"
       inkscape:randomized="0"
       d="m 100.04873,216.14301 -8.631575,-9.0187 -12.133258,-2.93681 9.018693,-8.63157 2.936815,-12.13326 8.631572,9.01869 12.133253,2.93682 -9.01869,8.63157 z"
       inkscape:transform-center-x="1.2049646e-06"
       inkscape:transform-center-y="-2.5169491e-06"
       transform="translate(6.9216119,9.4385596)" />
    <path
       sodipodi:type="star"
       style="fill:#d10000;fill-opacity:1;stroke:#cf0000;stroke-width:2.147;stroke-dasharray:none;stroke-opacity:1"
       id="path4638-3-5"
       inkscape:flatsided="false"
       sodipodi:sides="4"
       sodipodi:cx="95.644066"
       sodipodi:cy="199.78284"
       sodipodi:r1="16.942732"
       sodipodi:r2="8.4713659"
       sodipodi:arg1="1.3078016"
       sodipodi:arg2="2.0931998"
       inkscape:rounded="0"
       inkscape:randomized="0"
       d="m 100.04873,216.14301 -8.631575,-9.0187 -12.133258,-2.93681 9.018693,-8.63157 2.936815,-12.13326 8.631572,9.01869 12.133253,2.93682 -9.01869,8.63157 z"
       inkscape:transform-center-x="1.2049646e-06"
       inkscape:transform-center-y="-2.5169491e-06"
       transform="translate(35.551909,9.4385616)" />
    <rect
       style="fill:#ffffff;fill-opacity:1;stroke:#ffffff;stroke-width:2.5101;stroke-dasharray:none;stroke-opacity:1"
       id="rect4856"
       width="118.24813"
       height="43.998127"
       x="44.857395"
       y="211.60529"
       ry="10.999532" />
    <rect
       style="fill:#7d7d7d;fill-opacity:1;stroke:#646464;stroke-width:2.147;stroke-dasharray:none;stroke-opacity:1"
       id="rect5482"
       width="97.531776"
       height="15.730931"
       x="54.114403"
       y="209.53601"
       ry="7.8654656" />
  </g>
</svg>
