<?xml version="1.0" encoding="UTF-8" standalone="no"?>
<!-- Created with Inkscape (http://www.inkscape.org/) -->

<svg
   width="210mm"
   height="297mm"
   viewBox="0 0 210 297"
   version="1.1"
   id="svg10981"
   xml:space="preserve"
   inkscape:version="1.2 (dc2aedaf03, 2022-05-15)"
   sodipodi:docname="orbit_2.svg"
   xmlns:inkscape="http://www.inkscape.org/namespaces/inkscape"
   xmlns:sodipodi="http://sodipodi.sourceforge.net/DTD/sodipodi-0.dtd"
   xmlns:xlink="http://www.w3.org/1999/xlink"
   xmlns="http://www.w3.org/2000/svg"
   xmlns:svg="http://www.w3.org/2000/svg"><sodipodi:namedview
     id="namedview10983"
     pagecolor="#ffffff"
     bordercolor="#000000"
     borderopacity="0.25"
     inkscape:showpageshadow="2"
     inkscape:pageopacity="0.0"
     inkscape:pagecheckerboard="0"
     inkscape:deskcolor="#d1d1d1"
     inkscape:document-units="mm"
     showgrid="false"
     inkscape:zoom="1.1893044"
     inkscape:cx="745.81411"
     inkscape:cy="440.17326"
     inkscape:window-width="1196"
     inkscape:window-height="1481"
     inkscape:window-x="1191"
     inkscape:window-y="0"
     inkscape:window-maximized="0"
     inkscape:current-layer="layer1" /><defs
     id="defs10978"><marker
       style="overflow:visible"
       id="Arrow3"
       refX="0"
       refY="0"
       orient="auto-start-reverse"
       inkscape:stockid="Arrow3"
       markerWidth="4.2071066"
       markerHeight="7"
       viewBox="0 0 4.2071068 7"
       inkscape:isstock="true"
       inkscape:collect="always"
       preserveAspectRatio="xMidYMid"><path
         style="fill:none;stroke:context-stroke;stroke-width:1;stroke-linecap:round"
         d="M 3,-3 0,0 3,3"
         id="arrow3"
         transform="rotate(180,0.125,0)"
         sodipodi:nodetypes="ccc" /></marker><linearGradient
       inkscape:collect="always"
       id="linearGradient16778"><stop
         style="stop-color:#3d4fb4;stop-opacity:1;"
         offset="0"
         id="stop16774" /><stop
         style="stop-color:#150e42;stop-opacity:1;"
         offset="1"
         id="stop16776" /></linearGradient><linearGradient
       inkscape:collect="always"
       id="linearGradient15198"><stop
         style="stop-color:#252525;stop-opacity:1;"
         offset="0"
         id="stop15194" /><stop
         style="stop-color:#8a8a8a;stop-opacity:1;"
         offset="1"
         id="stop15196" /></linearGradient><linearGradient
       inkscape:collect="always"
       id="linearGradient12248"><stop
         style="stop-color:#82bdec;stop-opacity:1;"
         offset="0"
         id="stop12244" /><stop
         style="stop-color:#0c5071;stop-opacity:1;"
         offset="1"
         id="stop12246" /></linearGradient><radialGradient
       inkscape:collect="always"
       xlink:href="#linearGradient12248"
       id="radialGradient12250"
       cx="156.52277"
       cy="114.07427"
       fx="156.52277"
       fy="114.07427"
       r="19.334432"
       gradientTransform="matrix(1,0,0,0.96745538,0,3.8447984)"
       gradientUnits="userSpaceOnUse" /><linearGradient
       inkscape:collect="always"
       xlink:href="#linearGradient15198"
       id="linearGradient15200"
       x1="170.05138"
       y1="105.86918"
       x2="173.98412"
       y2="95.172134"
       gradientUnits="userSpaceOnUse" /><radialGradient
       inkscape:collect="always"
       xlink:href="#linearGradient16778"
       id="radialGradient16780"
       cx="148.97194"
       cy="117.45369"
       fx="148.97194"
       fy="117.45369"
       r="51.260916"
       gradientTransform="matrix(0.99997127,0.00757954,-0.00613759,0.80973448,0.72516217,18.91497)"
       gradientUnits="userSpaceOnUse" /></defs><g
     inkscape:label="Layer 1"
     inkscape:groupmode="layer"
     id="layer1"><rect
       style="fill:url(#radialGradient16780);fill-opacity:1;stroke:#ffffff;stroke-width:0.899999;stroke-linecap:round;stroke-dasharray:3.6, 3.6;stroke-dashoffset:0;stroke-opacity:0"
       id="rect13220"
       width="101.62183"
       height="124.58898"
       x="98.790253"
       y="69.373405" /><path
       style="fill:#d85959;fill-opacity:1;stroke:#000000;stroke-width:0.581176;stroke-linecap:round;stroke-dasharray:none"
       d="m 171.30534,101.73073 c -1.25264,1.56911 -1.23223,3.15302 4.006,4.79768 -1.13522,-1.13179 -3.67667,-1.70856 -2.46147,-3.76803 z"
       id="path11745-2"
       sodipodi:nodetypes="cccc" /><path
       style="fill:#aa442e;fill-opacity:1;stroke:#000000;stroke-width:0.581176;stroke-linecap:round;stroke-dasharray:none"
       d="m 175.98119,94.712609 c 1.16342,-1.636357 2.6917,-2.052976 5.71546,2.529689 -1.40068,-0.779597 -2.65511,-3.063901 -4.30024,-1.328481 z"
       id="path11745-2-7"
       sodipodi:nodetypes="cccc" /><path
       style="fill:url(#radialGradient12250);fill-opacity:1;stroke:#000000;stroke-width:0.701268;stroke-linecap:round;stroke-dasharray:none"
       id="path12219"
       sodipodi:type="arc"
       sodipodi:cx="150.85963"
       sodipodi:cy="118.13931"
       sodipodi:rx="18.983793"
       sodipodi:ry="18.354555"
       sodipodi:start="0"
       sodipodi:end="6.2689379"
       sodipodi:open="true"
       sodipodi:arc-type="arc"
       d="m 169.84343,118.13931 a 18.983793,18.354555 0 0 1 -18.91618,18.35444 18.983793,18.354555 0 0 1 -19.05093,-18.22369 18.983793,18.354555 0 0 1 18.78047,-18.484255 18.983793,18.354555 0 0 1 19.18471,18.092015" /><path
       style="fill:#5c951f;fill-opacity:0.358025;stroke:#000000;stroke-width:0.600001;stroke-linecap:round;stroke-dasharray:none"
       d="m 161.55667,103.19491 c -4.17867,2.12774 -5.75928,4.90499 -6.60699,7.86547 -0.22399,2.57945 5.83296,5.85679 8.96663,8.80932 0.98537,2.68518 0.0569,7.28418 -1.88771,12.89936 9.79152,-5.71826 11.63062,-22.27177 -0.47193,-29.57415 z"
       id="path12306"
       sodipodi:nodetypes="ccccc" /><path
       style="fill:#5c951f;fill-opacity:0.358025;stroke:#000000;stroke-width:0.600001;stroke-linecap:round;stroke-dasharray:none"
       d="m 136.54449,106.18379 c 3.14293,0.38007 5.71625,3.03861 8.02278,6.7643 2.45814,2.19988 3.63757,-1.35445 5.34851,-2.51695 1.15056,1.88771 0.36292,3.77543 -1.41578,5.66314 -1.07758,3.80061 -0.0152,4.1773 0.94385,4.71928 -1.10799,3.34228 -5.09507,0.92636 -7.70815,1.25847 -4.28222,-1.35158 -10.29766,-4.89857 -8.65202,1.25848 -2.00023,-7.17119 0.0386,-12.4782 3.46081,-17.14672 z"
       id="path12362"
       sodipodi:nodetypes="cccccccc" /><path
       style="fill:#5c951f;fill-opacity:0.358025;stroke:#000000;stroke-width:0.600001;stroke-linecap:round;stroke-dasharray:none"
       d="m 137.48835,131.03866 c 2.26568,0.63139 4.12146,-0.78674 5.97775,-2.20233 2.84789,0.0215 5.68061,0.0962 7.70816,2.98888 3.38451,0.70465 3.90296,1.86517 2.67425,4.24735 -5.93361,0.41683 -11.26365,-0.4281 -16.36016,-5.0339 z"
       id="path13090"
       sodipodi:nodetypes="ccccc" /><path
       style="fill:#5c951f;fill-opacity:0;stroke:#ffffff;stroke-width:0.9;stroke-linecap:round;stroke-dasharray:3.5999999, 3.5999999;stroke-dashoffset:0;stroke-opacity:1"
       id="path13144"
       sodipodi:type="arc"
       sodipodi:cx="151.01695"
       sodipodi:cy="118.45392"
       sodipodi:rx="29.574152"
       sodipodi:ry="28.472986"
       sodipodi:start="0"
       sodipodi:end="6.2689379"
       sodipodi:open="true"
       sodipodi:arc-type="arc"
       d="m 180.5911,118.45392 a 29.574152,28.472986 0 0 1 -29.46881,28.4728 29.574152,28.472986 0 0 1 -29.67874,-28.26997 29.574152,28.472986 0 0 1 29.25739,-28.674192 29.574152,28.472986 0 0 1 29.88716,28.065712" /><path
       style="fill:#5c951f;fill-opacity:0;stroke:#b4b4b4;stroke-width:0.706654;stroke-linecap:round;stroke-dasharray:2.82662, 2.82662;stroke-dashoffset:0;stroke-opacity:1"
       id="path13144-4"
       sodipodi:type="arc"
       sodipodi:cx="180.65942"
       sodipodi:cy="190.65875"
       sodipodi:rx="23.139633"
       sodipodi:ry="22.434557"
       sodipodi:start="0"
       sodipodi:end="6.2689379"
       sodipodi:open="true"
       sodipodi:arc-type="arc"
       d="m 203.79906,190.65875 a 23.139633,22.434557 0 0 1 -23.05722,22.43442 23.139633,22.434557 0 0 1 -23.22146,-22.2746 23.139633,22.434557 0 0 1 22.89179,-22.59309 23.139633,22.434557 0 0 1 23.38454,22.11365" /><path
       style="fill:url(#linearGradient15200);fill-opacity:1;stroke:#000000;stroke-width:0.452289;stroke-linecap:round;stroke-dasharray:none"
       d="m 161.59361,90.267766 c 0.48835,6.621583 5.86835,9.789084 12.31445,12.463624 l 3.7139,-5.723832 c -3.5061,-4.438311 -10.59373,-8.495828 -16.02835,-6.739792 z"
       id="path11741-0"
       sodipodi:nodetypes="cccc" /><path
       style="fill:#ffffff;fill-opacity:0.34156379;stroke:#000000;stroke-width:0.58005;stroke-linecap:round;stroke-dasharray:none;stroke-dashoffset:0;stroke-opacity:1"
       id="path14410"
       sodipodi:type="arc"
       sodipodi:cx="168.13092"
       sodipodi:cy="94.827393"
       sodipodi:rx="2.5127516"
       sodipodi:ry="2.5127516"
       sodipodi:start="0"
       sodipodi:end="6.2689379"
       sodipodi:open="true"
       sodipodi:arc-type="arc"
       d="m 170.64367,94.827393 a 2.5127516,2.5127516 0 0 1 -2.5038,2.512735 2.5127516,2.5127516 0 0 1 -2.52164,-2.494835 2.5127516,2.5127516 0 0 1 2.48584,-2.530509 2.5127516,2.5127516 0 0 1 2.53935,2.47681" /><path
       style="fill:#c73a37;fill-opacity:1;stroke:#000000;stroke-width:0.600001;stroke-linecap:round;stroke-dasharray:none;stroke-dashoffset:0;stroke-opacity:0"
       d="m 161.75331,90.354542 c -0.10901,0.58482 0.0914,1.378179 0.49159,2.693921 0.95958,-0.982311 1.53181,-1.844666 1.55343,-3.106858 0,0 -1.52256,0.09268 -2.04502,0.412937 z"
       id="path15258"
       sodipodi:nodetypes="cccc" /><path
       style="fill:#df5353;fill-opacity:0;stroke:#000000;stroke-width:0.600001;stroke-linecap:round;stroke-dasharray:none;stroke-dashoffset:0;stroke-opacity:1"
       d="m 162.31415,92.854386 c 1.39909,-1.009298 1.51889,-1.77015 1.78312,-2.921305"
       id="path15192"
       sodipodi:nodetypes="cc" /><text
       xml:space="preserve"
       style="font-weight:bold;font-size:4.7201px;font-family:DengXian;-inkscape-font-specification:'DengXian Bold';text-align:start;text-anchor:start;fill:#c7c7c7;fill-opacity:1;stroke:#43bec3;stroke-width:0;stroke-linecap:round;stroke-dasharray:none;stroke-dashoffset:0;stroke-opacity:0.613169"
       x="125.88659"
       y="140.38072"
       id="text16858"
       transform="scale(0.82508196,1.2120008)"><tspan
         sodipodi:role="line"
         style="font-style:normal;font-variant:normal;font-weight:bold;font-stretch:normal;font-family:'Comic Sans MS';-inkscape-font-specification:'Comic Sans MS Bold';text-align:start;text-anchor:start;fill:#c7c7c7;fill-opacity:1;stroke:#43bec3;stroke-width:0;stroke-dasharray:none;stroke-opacity:0.613169"
         x="125.88659"
         y="140.38072"
         id="tspan19740">Force of gravity continues to act</tspan><tspan
         sodipodi:role="line"
         style="font-style:normal;font-variant:normal;font-weight:bold;font-stretch:normal;font-family:'Comic Sans MS';-inkscape-font-specification:'Comic Sans MS Bold';text-align:start;text-anchor:start;fill:#c7c7c7;fill-opacity:1;stroke:#43bec3;stroke-width:0;stroke-dasharray:none;stroke-opacity:0.613169"
         x="125.88659"
         y="146.43918"
         id="tspan19762">on astronuat therefore the </tspan><tspan
         sodipodi:role="line"
         style="font-style:normal;font-variant:normal;font-weight:bold;font-stretch:normal;font-family:'Comic Sans MS';-inkscape-font-specification:'Comic Sans MS Bold';text-align:start;text-anchor:start;fill:#c7c7c7;fill-opacity:1;stroke:#43bec3;stroke-width:0;stroke-dasharray:none;stroke-opacity:0.613169"
         x="125.88659"
         y="152.49763"
         id="tspan19764">astronaut has weight</tspan></text><path
       style="fill:#ffffff;fill-opacity:1;stroke:#ffffff;stroke-width:0;stroke-linecap:round;stroke-dasharray:none;stroke-dashoffset:0;stroke-opacity:1"
       d="m 184.83846,168.32097 -10.69704,15.41632"
       id="path19142" /><path
       style="fill:#ffffff;fill-opacity:1;stroke:#ffffff;stroke-width:1.34801;stroke-linecap:round;stroke-dasharray:none;stroke-dashoffset:0;stroke-opacity:1;marker-start:url(#Arrow3)"
       d="m 177.6509,183.63208 6.13551,-14.42893"
       id="path19198"
       sodipodi:nodetypes="cc" /><text
       xml:space="preserve"
       style="font-weight:bold;font-size:8.70333px;font-family:DengXian;-inkscape-font-specification:'DengXian Bold';text-align:center;text-anchor:middle;fill:#ffffff;fill-opacity:1;stroke:#ffffff;stroke-width:2.19297;stroke-linecap:round;stroke-dasharray:none;stroke-dashoffset:0;stroke-opacity:0"
       x="191.19138"
       y="176.16606"
       id="text19318"
       transform="scale(0.97594093,1.0246522)"><tspan
         sodipodi:role="line"
         id="tspan19316"
         style="fill:#ffffff;fill-opacity:1;stroke:#ffffff;stroke-width:2.19297;stroke-opacity:0"
         x="191.19138"
         y="176.16606">F</tspan></text><text
       xml:space="preserve"
       style="font-weight:bold;font-size:6.35px;font-family:DengXian;-inkscape-font-specification:'DengXian Bold';text-align:center;text-anchor:middle;fill:#ffffff;fill-opacity:1;stroke:#ffffff;stroke-width:1.6;stroke-linecap:round;stroke-dasharray:none;stroke-dashoffset:0;stroke-opacity:0"
       x="190.65889"
       y="182.1642"
       id="text19684"
       inkscape:transform-center-x="-1.2584746"
       inkscape:transform-center-y="0.62923729"><tspan
         sodipodi:role="line"
         id="tspan19682"
         style="stroke-width:1.6"
         x="190.65889"
         y="182.1642">g</tspan></text><path
       style="fill:#ffffff;fill-opacity:1;stroke:#ffffff;stroke-width:1.6;stroke-linecap:round;stroke-dasharray:none;stroke-dashoffset:0;stroke-opacity:0"
       id="path19820"
       sodipodi:type="arc"
       sodipodi:cx="117.98199"
       sodipodi:cy="86.83474"
       sodipodi:rx="0.31461862"
       sodipodi:ry="0.31461862"
       sodipodi:start="0"
       sodipodi:end="6.2689379"
       sodipodi:open="true"
       sodipodi:arc-type="arc"
       d="m 118.29661,86.83474 a 0.31461862,0.31461862 0 0 1 -0.3135,0.314616 0.31461862,0.31461862 0 0 1 -0.31573,-0.312375 0.31461862,0.31461862 0 0 1 0.31125,-0.316842 0.31461862,0.31461862 0 0 1 0.31794,0.310118" /><path
       style="fill:#ffffff;fill-opacity:1;stroke:#ffffff;stroke-width:3.70149;stroke-linecap:round;stroke-dasharray:none;stroke-dashoffset:0;stroke-opacity:0"
       id="path19822"
       sodipodi:type="arc"
       sodipodi:cx="113.26272"
       sodipodi:cy="93.992325"
       sodipodi:rx="0.52237123"
       sodipodi:ry="0.44368988"
       sodipodi:start="0"
       sodipodi:end="6.2689379"
       sodipodi:open="true"
       sodipodi:arc-type="arc"
       d="m 113.78509,93.992325 a 0.52237123,0.44368988 0 0 1 -0.52051,0.443687 0.52237123,0.44368988 0 0 1 -0.52422,-0.440526 0.52237123,0.44368988 0 0 1 0.51678,-0.446826 0.52237123,0.44368988 0 0 1 0.5279,0.437344" /><path
       style="fill:#ffffff;fill-opacity:1;stroke:#ffffff;stroke-width:1.6;stroke-linecap:round;stroke-dasharray:none;stroke-dashoffset:0;stroke-opacity:0"
       id="path19824"
       sodipodi:type="arc"
       sodipodi:cx="107.99285"
       sodipodi:cy="106.97034"
       sodipodi:rx="0.55058259"
       sodipodi:ry="0.47192794"
       sodipodi:start="0"
       sodipodi:end="6.2689379"
       sodipodi:open="true"
       sodipodi:arc-type="arc"
       d="m 108.54343,106.97034 a 0.55058259,0.47192794 0 0 1 -0.54862,0.47192 0.55058259,0.47192794 0 0 1 -0.55253,-0.46856 0.55058259,0.47192794 0 0 1 0.54469,-0.47526 0.55058259,0.47192794 0 0 1 0.55641,0.46517" /><path
       style="fill:#ffffff;fill-opacity:1;stroke:#ffffff;stroke-width:1.6;stroke-linecap:round;stroke-dasharray:none;stroke-dashoffset:0;stroke-opacity:0"
       id="path19826"
       sodipodi:type="arc"
       sodipodi:cx="114.44253"
       sodipodi:cy="126.55534"
       sodipodi:rx="0.70789194"
       sodipodi:ry="0.55058259"
       sodipodi:start="0"
       sodipodi:end="6.2689379"
       sodipodi:open="true"
       sodipodi:arc-type="arc"
       d="m 115.15042,126.55534 a 0.70789194,0.55058259 0 0 1 -0.70537,0.55058 0.70789194,0.55058259 0 0 1 -0.7104,-0.54665 0.70789194,0.55058259 0 0 1 0.70031,-0.55448 0.70789194,0.55058259 0 0 1 0.71539,0.54271" /><path
       style="fill:#ffffff;fill-opacity:1;stroke:#ffffff;stroke-width:1.6;stroke-linecap:round;stroke-dasharray:none;stroke-dashoffset:0;stroke-opacity:0"
       id="path19828"
       sodipodi:type="arc"
       sodipodi:cx="114.04926"
       sodipodi:cy="137.01642"
       sodipodi:rx="0.78654659"
       sodipodi:ry="0.78654659"
       sodipodi:start="0"
       sodipodi:end="6.2689379"
       sodipodi:open="true"
       sodipodi:arc-type="arc"
       d="m 114.83581,137.01642 a 0.78654659,0.78654659 0 0 1 -0.78375,0.78654 0.78654659,0.78654659 0 0 1 -0.78932,-0.78094 0.78654659,0.78654659 0 0 1 0.77812,-0.7921 0.78654659,0.78654659 0 0 1 0.79487,0.77529" /><path
       style="fill:#ffffff;fill-opacity:1;stroke:#ffffff;stroke-width:1.6;stroke-linecap:round;stroke-dasharray:none;stroke-dashoffset:0;stroke-opacity:0"
       id="path19830"
       sodipodi:type="arc"
       sodipodi:cx="124.0384"
       sodipodi:cy="145.35382"
       sodipodi:rx="0.70789194"
       sodipodi:ry="0.62923723"
       sodipodi:start="0"
       sodipodi:end="6.2689379"
       sodipodi:open="true"
       sodipodi:arc-type="arc"
       d="m 124.74629,145.35382 a 0.70789194,0.62923723 0 0 1 -0.70537,0.62923 0.70789194,0.62923723 0 0 1 -0.7104,-0.62475 0.70789194,0.62923723 0 0 1 0.70031,-0.63368 0.70789194,0.62923723 0 0 1 0.71539,0.62024" /><path
       style="fill:#ffffff;fill-opacity:1;stroke:#ffffff;stroke-width:1.6;stroke-linecap:round;stroke-dasharray:none;stroke-dashoffset:0;stroke-opacity:0"
       id="path19832"
       sodipodi:type="arc"
       sodipodi:cx="142.05032"
       sodipodi:cy="78.418694"
       sodipodi:rx="0.62923723"
       sodipodi:ry="0.70789194"
       sodipodi:start="0"
       sodipodi:end="6.2689379"
       sodipodi:open="true"
       sodipodi:arc-type="arc"
       d="m 142.67956,78.418694 a 0.62923723,0.70789194 0 0 1 -0.627,0.707887 0.62923723,0.70789194 0 0 1 -0.63146,-0.702845 0.62923723,0.70789194 0 0 1 0.6225,-0.712894 0.62923723,0.70789194 0 0 1 0.6359,0.697766" /><path
       style="fill:#ffffff;fill-opacity:1;stroke:#ffffff;stroke-width:1.6;stroke-linecap:round;stroke-dasharray:none;stroke-dashoffset:0;stroke-opacity:0"
       id="path19834"
       sodipodi:type="arc"
       sodipodi:cx="173.43353"
       sodipodi:cy="83.609909"
       sodipodi:rx="0.39327329"
       sodipodi:ry="0.39327329"
       sodipodi:start="0"
       sodipodi:end="6.2689379"
       sodipodi:open="true"
       sodipodi:arc-type="arc"
       d="m 173.82681,83.609909 a 0.39327329,0.39327329 0 0 1 -0.39188,0.393271 0.39327329,0.39327329 0 0 1 -0.39466,-0.390469 0.39327329,0.39327329 0 0 1 0.38906,-0.396053 0.39327329,0.39327329 0 0 1 0.39744,0.387648" /><path
       style="fill:#ffffff;fill-opacity:1;stroke:#ffffff;stroke-width:1.6;stroke-linecap:round;stroke-dasharray:none;stroke-dashoffset:0;stroke-opacity:0"
       id="path19836"
       sodipodi:type="arc"
       sodipodi:cx="189.63638"
       sodipodi:cy="92.891159"
       sodipodi:rx="0.86520123"
       sodipodi:ry="0.86520123"
       sodipodi:start="0"
       sodipodi:end="6.2689379"
       sodipodi:open="true"
       sodipodi:arc-type="arc"
       d="m 190.50158,92.891159 a 0.86520123,0.86520123 0 0 1 -0.86212,0.865196 0.86520123,0.86520123 0 0 1 -0.86826,-0.859033 0.86520123,0.86520123 0 0 1 0.85594,-0.871315 0.86520123,0.86520123 0 0 1 0.87436,0.852826" /><path
       style="fill:#ffffff;fill-opacity:1;stroke:#ffffff;stroke-width:2.29465;stroke-linecap:round;stroke-dasharray:none;stroke-dashoffset:0;stroke-opacity:0"
       id="path19838"
       sodipodi:type="arc"
       sodipodi:cx="184.9171"
       sodipodi:cy="103.82417"
       sodipodi:rx="0.67518646"
       sodipodi:ry="0.75383657"
       sodipodi:start="0"
       sodipodi:end="6.2689379"
       sodipodi:open="true"
       sodipodi:arc-type="arc"
       d="m 185.59229,103.82417 a 0.67518646,0.75383657 0 0 1 -0.67279,0.75383 0.67518646,0.75383657 0 0 1 -0.67757,-0.74846 0.67518646,0.75383657 0 0 1 0.66795,-0.75916 0.67518646,0.75383657 0 0 1 0.68234,0.74305" /><path
       style="fill:#ffffff;fill-opacity:1;stroke:#ffffff;stroke-width:1.6;stroke-linecap:round;stroke-dasharray:none;stroke-dashoffset:0;stroke-opacity:0"
       id="path19840"
       sodipodi:type="arc"
       sodipodi:cx="192.23198"
       sodipodi:cy="116.4089"
       sodipodi:rx="0.62923723"
       sodipodi:ry="0.78654659"
       sodipodi:start="0"
       sodipodi:end="6.2689379"
       sodipodi:open="true"
       sodipodi:arc-type="arc"
       d="m 192.86122,116.4089 a 0.62923723,0.78654659 0 0 1 -0.627,0.78654 0.62923723,0.78654659 0 0 1 -0.63146,-0.78094 0.62923723,0.78654659 0 0 1 0.6225,-0.7921 0.62923723,0.78654659 0 0 1 0.63589,0.77529" /><path
       style="fill:#ffffff;fill-opacity:1;stroke:#ffffff;stroke-width:2.19759;stroke-linecap:round;stroke-dasharray:none;stroke-dashoffset:0;stroke-opacity:0"
       id="path19842"
       sodipodi:type="arc"
       sodipodi:cx="190.73755"
       sodipodi:cy="124.27436"
       sodipodi:rx="0.72371268"
       sodipodi:ry="0.64505684"
       sodipodi:start="0"
       sodipodi:end="6.2689379"
       sodipodi:open="true"
       sodipodi:arc-type="arc"
       d="m 191.46126,124.27436 a 0.72371268,0.64505684 0 0 1 -0.72113,0.64505 0.72371268,0.64505684 0 0 1 -0.72628,-0.64045 0.72371268,0.64505684 0 0 1 0.71597,-0.64962 0.72371268,0.64505684 0 0 1 0.73137,0.63583" /><path
       style="fill:#ffffff;fill-opacity:1;stroke:#ffffff;stroke-width:1.6;stroke-linecap:round;stroke-dasharray:none;stroke-dashoffset:0;stroke-opacity:0"
       id="path19844"
       sodipodi:type="arc"
       sodipodi:cx="186.41154"
       sodipodi:cy="132.5331"
       sodipodi:rx="0.62923723"
       sodipodi:ry="0.86520123"
       sodipodi:start="0"
       sodipodi:end="6.2689379"
       sodipodi:open="true"
       sodipodi:arc-type="arc"
       d="m 187.04078,132.5331 a 0.62923723,0.86520123 0 0 1 -0.62699,0.86519 0.62923723,0.86520123 0 0 1 -0.63147,-0.85903 0.62923723,0.86520123 0 0 1 0.6225,-0.87132 0.62923723,0.86520123 0 0 1 0.6359,0.85283" /><path
       style="fill:#ffffff;fill-opacity:1;stroke:#ffffff;stroke-width:1.6;stroke-linecap:round;stroke-dasharray:none;stroke-dashoffset:0;stroke-opacity:0"
       id="path19846"
       sodipodi:type="arc"
       sodipodi:cx="189.55772"
       sodipodi:cy="144.3313"
       sodipodi:rx="0.62923723"
       sodipodi:ry="0.86520123"
       sodipodi:start="0"
       sodipodi:end="6.2689379"
       sodipodi:open="true"
       sodipodi:arc-type="arc"
       d="m 190.18696,144.3313 a 0.62923723,0.86520123 0 0 1 -0.62699,0.86519 0.62923723,0.86520123 0 0 1 -0.63147,-0.85903 0.62923723,0.86520123 0 0 1 0.6225,-0.87131 0.62923723,0.86520123 0 0 1 0.6359,0.85282" /><path
       style="fill:#ffffff;fill-opacity:1;stroke:#ffffff;stroke-width:1.6;stroke-linecap:round;stroke-dasharray:none;stroke-dashoffset:0;stroke-opacity:0"
       id="path19848"
       sodipodi:type="arc"
       sodipodi:cx="168.63559"
       sodipodi:cy="150.70233"
       sodipodi:rx="0.78654659"
       sodipodi:ry="0.94385588"
       sodipodi:start="0"
       sodipodi:end="6.2689379"
       sodipodi:open="true"
       sodipodi:arc-type="arc"
       d="m 169.42214,150.70233 a 0.78654659,0.94385588 0 0 1 -0.78375,0.94385 0.78654659,0.94385588 0 0 1 -0.78933,-0.93712 0.78654659,0.94385588 0 0 1 0.77813,-0.95053 0.78654659,0.94385588 0 0 1 0.79487,0.93035" /><path
       style="fill:#ffffff;fill-opacity:1;stroke:#ffffff;stroke-width:1.6;stroke-linecap:round;stroke-dasharray:none;stroke-dashoffset:0;stroke-opacity:0"
       id="path19850"
       sodipodi:type="arc"
       sodipodi:cx="149.44385"
       sodipodi:cy="154.08447"
       sodipodi:rx="0.78654659"
       sodipodi:ry="0.86520123"
       sodipodi:start="0"
       sodipodi:end="6.2689379"
       sodipodi:open="true"
       sodipodi:arc-type="arc"
       d="m 150.23039,154.08447 a 0.78654659,0.86520123 0 0 1 -0.78374,0.8652 0.78654659,0.86520123 0 0 1 -0.78933,-0.85903 0.78654659,0.86520123 0 0 1 0.77812,-0.87132 0.78654659,0.86520123 0 0 1 0.79487,0.85283" /><path
       style="fill:#ffffff;fill-opacity:1;stroke:#ffffff;stroke-width:1.6;stroke-linecap:round;stroke-dasharray:none;stroke-dashoffset:0;stroke-opacity:0"
       id="path19852"
       sodipodi:type="arc"
       sodipodi:cx="121.91473"
       sodipodi:cy="154.71371"
       sodipodi:rx="0.78654659"
       sodipodi:ry="0.70789194"
       sodipodi:start="0"
       sodipodi:end="6.2689379"
       sodipodi:open="true"
       sodipodi:arc-type="arc"
       d="m 122.70127,154.71371 a 0.78654659,0.70789194 0 0 1 -0.78374,0.70789 0.78654659,0.70789194 0 0 1 -0.78933,-0.70284 0.78654659,0.70789194 0 0 1 0.77812,-0.7129 0.78654659,0.70789194 0 0 1 0.79487,0.69777" /><path
       style="fill:#ffffff;fill-opacity:1;stroke:#ffffff;stroke-width:1.6;stroke-linecap:round;stroke-dasharray:none;stroke-dashoffset:0;stroke-opacity:0"
       id="path19854"
       sodipodi:type="arc"
       sodipodi:cx="108.38612"
       sodipodi:cy="119.24047"
       sodipodi:rx="0.94385588"
       sodipodi:ry="1.1011652"
       sodipodi:start="0"
       sodipodi:end="6.2689379"
       sodipodi:open="true"
       sodipodi:arc-type="arc"
       d="m 109.32998,119.24047 a 0.94385588,1.1011652 0 0 1 -0.94049,1.10116 0.94385588,1.1011652 0 0 1 -0.9472,-1.09331 0.94385588,1.1011652 0 0 1 0.93375,-1.10895 0.94385588,1.1011652 0 0 1 0.95384,1.08541" /><path
       style="fill:#ffffff;fill-opacity:1;stroke:#ffffff;stroke-width:1.6;stroke-linecap:round;stroke-dasharray:none;stroke-dashoffset:0;stroke-opacity:0"
       id="path19856"
       sodipodi:type="arc"
       sodipodi:cx="129.7802"
       sodipodi:cy="83.059319"
       sodipodi:rx="1.2584745"
       sodipodi:ry="1.2584745"
       sodipodi:start="0"
       sodipodi:end="6.2689379"
       sodipodi:open="true"
       sodipodi:arc-type="arc"
       d="m 131.03867,83.059319 a 1.2584745,1.2584745 0 0 1 -1.25399,1.258466 1.2584745,1.2584745 0 0 1 -1.26293,-1.249502 1.2584745,1.2584745 0 0 1 1.245,-1.267367 1.2584745,1.2584745 0 0 1 1.27179,1.240473" /><path
       style="fill:#ffffff;fill-opacity:1;stroke:#ffffff;stroke-width:1.6;stroke-linecap:round;stroke-dasharray:none;stroke-dashoffset:0;stroke-opacity:0"
       id="path19858"
       sodipodi:type="arc"
       sodipodi:cx="154.79237"
       sodipodi:cy="79.047935"
       sodipodi:rx="0.78654659"
       sodipodi:ry="0.86520123"
       sodipodi:start="0"
       sodipodi:end="6.2689379"
       sodipodi:open="true"
       sodipodi:arc-type="arc"
       d="m 155.57892,79.047935 a 0.78654659,0.86520123 0 0 1 -0.78374,0.865196 0.78654659,0.86520123 0 0 1 -0.78933,-0.859032 0.78654659,0.86520123 0 0 1 0.77812,-0.871315 0.78654659,0.86520123 0 0 1 0.79487,0.852825" /><path
       style="fill:#ffffff;fill-opacity:1;stroke:#ffffff;stroke-width:1.6;stroke-linecap:round;stroke-dasharray:none;stroke-dashoffset:0;stroke-opacity:0"
       id="path19860"
       sodipodi:type="arc"
       sodipodi:cx="185.625"
       sodipodi:cy="81.171608"
       sodipodi:rx="0.94385588"
       sodipodi:ry="0.94385588"
       sodipodi:start="0"
       sodipodi:end="6.2689379"
       sodipodi:open="true"
       sodipodi:arc-type="arc"
       d="m 186.56886,81.171608 a 0.94385588,0.94385588 0 0 1 -0.9405,0.94385 0.94385588,0.94385588 0 0 1 -0.94719,-0.937126 0.94385588,0.94385588 0 0 1 0.93374,-0.950526 0.94385588,0.94385588 0 0 1 0.95385,0.930355" /><path
       style="fill:#ffffff;fill-opacity:1;stroke:#ffffff;stroke-width:1.6;stroke-linecap:round;stroke-dasharray:none;stroke-dashoffset:0;stroke-opacity:0"
       id="path19862"
       sodipodi:type="arc"
       sodipodi:cx="181.92824"
       sodipodi:cy="155.2643"
       sodipodi:rx="1.0225105"
       sodipodi:ry="0.94385588"
       sodipodi:start="0"
       sodipodi:end="6.2689379"
       sodipodi:open="true"
       sodipodi:arc-type="arc"
       d="m 182.95075,155.2643 a 1.0225105,0.94385588 0 0 1 -1.01887,0.94385 1.0225105,0.94385588 0 0 1 -1.02613,-0.93713 1.0225105,0.94385588 0 0 1 1.01156,-0.95052 1.0225105,0.94385588 0 0 1 1.03333,0.93035" /><path
       style="fill:#ffffff;fill-opacity:1;stroke:#ffffff;stroke-width:1.6;stroke-linecap:round;stroke-dasharray:none;stroke-dashoffset:0;stroke-opacity:0"
       id="path19864"
       sodipodi:type="arc"
       sodipodi:cx="136.22987"
       sodipodi:cy="148.34268"
       sodipodi:rx="0.78654659"
       sodipodi:ry="0.78654659"
       sodipodi:start="0"
       sodipodi:end="6.2689379"
       sodipodi:open="true"
       sodipodi:arc-type="arc"
       d="m 137.01642,148.34268 a 0.78654659,0.78654659 0 0 1 -0.78374,0.78654 0.78654659,0.78654659 0 0 1 -0.78933,-0.78094 0.78654659,0.78654659 0 0 1 0.77812,-0.7921 0.78654659,0.78654659 0 0 1 0.79487,0.7753" /><path
       style="fill:#ffffff;fill-opacity:1;stroke:#ffffff;stroke-width:1.6;stroke-linecap:round;stroke-dasharray:none;stroke-dashoffset:0;stroke-opacity:0"
       id="path19872"
       sodipodi:type="arc"
       sodipodi:cx="105.71186"
       sodipodi:cy="98.239677"
       sodipodi:rx="0.94385588"
       sodipodi:ry="1.0225105"
       sodipodi:start="0"
       sodipodi:end="6.2689379"
       sodipodi:open="true"
       sodipodi:arc-type="arc"
       d="m 106.65572,98.239677 a 0.94385588,1.0225105 0 0 1 -0.9405,1.022504 0.94385588,1.0225105 0 0 1 -0.94719,-1.01522 0.94385588,1.0225105 0 0 1 0.93375,-1.029736 0.94385588,1.0225105 0 0 1 0.95384,1.007885" /><path
       style="fill:#ffffff;fill-opacity:1;stroke:#ffffff;stroke-width:1.6;stroke-linecap:round;stroke-dasharray:none;stroke-dashoffset:0;stroke-opacity:0"
       id="path19874"
       sodipodi:type="arc"
       sodipodi:cx="111.06038"
       sodipodi:cy="82.666046"
       sodipodi:rx="1.1011652"
       sodipodi:ry="1.0225105"
       sodipodi:start="0"
       sodipodi:end="6.2689379"
       sodipodi:open="true"
       sodipodi:arc-type="arc"
       d="m 112.16154,82.666046 a 1.1011652,1.0225105 0 0 1 -1.09724,1.022504 1.1011652,1.0225105 0 0 1 -1.10506,-1.01522 1.1011652,1.0225105 0 0 1 1.08937,-1.029736 1.1011652,1.0225105 0 0 1 1.11282,1.007885" /><path
       style="fill:#ffffff;fill-opacity:1;stroke:#ffffff;stroke-width:1.6;stroke-linecap:round;stroke-dasharray:none;stroke-dashoffset:0;stroke-opacity:0"
       id="path19876"
       sodipodi:type="arc"
       sodipodi:cx="181.6136"
       sodipodi:cy="145.51112"
       sodipodi:rx="1.1798198"
       sodipodi:ry="1.2584745"
       sodipodi:start="0"
       sodipodi:end="6.2689379"
       sodipodi:open="true"
       sodipodi:arc-type="arc"
       d="m 182.79342,145.51112 a 1.1798198,1.2584745 0 0 1 -1.17562,1.25847 1.1798198,1.2584745 0 0 1 -1.18399,-1.2495 1.1798198,1.2584745 0 0 1 1.16718,-1.26737 1.1798198,1.2584745 0 0 1 1.19231,1.24047" /><path
       style="fill:#ffffff;fill-opacity:1;stroke:#ffffff;stroke-width:1.6;stroke-linecap:round;stroke-dasharray:none;stroke-dashoffset:0;stroke-opacity:0"
       id="path19878"
       sodipodi:type="arc"
       sodipodi:cx="105.55455"
       sodipodi:cy="146.45499"
       sodipodi:rx="1.1011652"
       sodipodi:ry="1.1011652"
       sodipodi:start="0"
       sodipodi:end="6.2689379"
       sodipodi:open="true"
       sodipodi:arc-type="arc"
       d="m 106.65572,146.45499 a 1.1011652,1.1011652 0 0 1 -1.09725,1.10115 1.1011652,1.1011652 0 0 1 -1.10506,-1.09331 1.1011652,1.1011652 0 0 1 1.08937,-1.10895 1.1011652,1.1011652 0 0 1 1.11282,1.08542" /></g></svg>
