<?xml version="1.0" encoding="UTF-8"?><svg id="Layer_1" xmlns="http://www.w3.org/2000/svg" viewBox="0 0 864 567.41"><defs><style>.cls-1{letter-spacing:-.08em;}.cls-1,.cls-2,.cls-3{font-family:TeXGyrePagella-Regular, 'TeX Gyre Pagella';font-size:24px;}.cls-2{letter-spacing:-.08em;}.cls-4,.cls-5,.cls-6,.cls-7{fill:#165a91;}.cls-4,.cls-6,.cls-8,.cls-7,.cls-9{stroke-miterlimit:10;}.cls-4,.cls-6,.cls-7{stroke:#fff;}.cls-4,.cls-8,.cls-9{stroke-width:5px;}.cls-6{stroke-width:4px;}.cls-8{stroke:#000;}.cls-8,.cls-9{fill:none;}.cls-9{stroke:#c1c1c0;stroke-linecap:round;}</style></defs><path class="cls-5" d="m378.36,280.45l-51.28-18.94c-6.32-2.33-9.55-9.35-7.21-15.67l.87-2.34c2.33-6.32,9.35-8.55,15.67-6.21l51.28,17.94c6.32,2.33,9.55,9.35,7.21,15.67l-.87,2.34c-2.33,6.32-9.35,9.55-15.67,7.21Z"/><rect class="cls-5" x="278.72" y="219.48" width="71.52" height="24.39" rx="12.2" ry="12.2" transform="translate(278.15 -157.23) rotate(48.28)"/><rect class="cls-7" x="264.26" y="262.27" width="83.59" height="24.39" rx="12.2" ry="12.2" transform="translate(265.22 -134.59) rotate(42.41)"/><path class="cls-5" d="m592.66,244.83l-112.34,48.06c-6.38,2.16-13.3-11.26-15.47-17.64h0c-2.16-6.38,1.26-13.3,7.64-15.47l112.34-38.06c6.38-2.16,13.3,1.26,15.47,7.64h0c2.16,6.38-1.26,13.3-7.64,15.47Z"/><rect class="cls-5" x="362.66" y="256.01" width="148.94" height="41.4" rx="19.49" ry="19.49"/><circle class="cls-6" cx="520.78" cy="262.53" r="25.66"/><rect class="cls-5" x="407.78" y="292.71" width="72.69" height="28.35" rx="7.48" ry="7.48"/><path class="cls-5" d="m384.63,296.59l-53.38,10.05c-6.62,1.25-13-3.11-14.24-9.73l-.36-1.92c-1.25-6.62,3.11-12,9.73-13.24l53.38-11.05c6.62-1.25,13,3.11,14.24,9.73l.36,1.92c1.25,6.62-3.11,13-9.73,14.24Z"/><path class="cls-5" d="m557.37,351.41l-94.77-62.94c-5.16-3.91-7.05-20.09-3.57-24.68l.52-.68c3.48-4.59,10.48-5.14,15.63-1.23l95.3,72.24c5.16,3.91,6.52,10.8,3.04,15.38l-.52.68c-3.48,4.59-10.48,5.14-15.63,1.23Z"/><path class="cls-4" d="m542.29,252.31h-9.04c-1.38,0-2.58,1.06-3.23,2.62h-4.63c-.65-1.57-1.85-2.62-3.23-2.62h-9.04c-1.68,0-3.08,1.56-3.55,3.7h-13.61v8.46h14.12c.68,1.34,1.78,2.21,3.04,2.21h9.04c2.07,0,3.74-2.35,3.74-5.26v-2.29h3.61v2.29c0,2.9,1.67,5.26,3.74,5.26h9.04c2.07,0,3.74-2.35,3.74-5.26v-3.86c0-2.9-1.67-5.26-3.74-5.26Z"/><line class="cls-8" x1="394.58" y1="360.18" x2="394.58" y2="477.16"/><path d="m394.58,486.21c-1.58-4.26-4.28-9.54-7.13-12.82l7.13,2.58,7.13-2.58c-2.86,3.28-5.55,8.56-7.13,12.82Z"/><text class="cls-1" transform="translate(389.93 519.33)"><tspan x="0" y="0">F</tspan></text><text class="cls-2" transform="translate(401.35 527.33) scale(.58)"><tspan x="0" y="0">g</tspan></text><path class="cls-9" d="m45.24,259.91h119.19c13.93,0,13.92-13.92,13.92-13.92,0,0,.68-13.92-13.92-13.92s-13.92,13.92-13.92,13.92c0,0-.07.65,0,1.64"/><path class="cls-9" d="m46.31,293.51h119.19c13.93,0,13.92,13.92,13.92,13.92,0,0,.68,13.92-13.92,13.92-6.29,0-9.74-2.58-11.64-5.52"/><path class="cls-9" d="m35.34,275.47h169.19c13.93,0,13.92-13.92,13.92-13.92,0,0,.68-13.92-13.92-13.92s-13.92,13.92-13.92,13.92"/><line class="cls-8" x1="633.51" y1="280.99" x2="750.11" y2="280.99"/><path d="m759.17,280.99c-4.26,1.58-9.54,4.28-12.82,7.13l2.58-7.13-2.58-7.13c3.28,2.86,8.56,5.55,12.82,7.13Z"/><text class="cls-1" transform="translate(771.62 288.19)"><tspan x="0" y="0">F</tspan></text><text class="cls-3" transform="translate(783.05 296.18) scale(.58)"><tspan x="0" y="0">wind</tspan></text><line class="cls-9" x1="398.86" y1="88.48" x2="398.86" y2="198.55"/><line class="cls-9" x1="455.81" y1="128.46" x2="455.81" y2="207.55"/><line class="cls-9" x1="511.92" y1="103.97" x2="511.92" y2="183.06"/><line class="cls-9" x1="352.66" y1="138.5" x2="352.66" y2="198.45"/><line class="cls-8" x1="458.87" y1="375.23" x2="458.87" y2="432.21"/><path d="m458.87,366.18c-1.58,4.26-4.28,9.54-7.13,12.82l7.13-2.58,7.13,2.58c-2.86-3.28-5.55-8.56-7.13-12.82Z"/><text class="cls-1" transform="translate(452.75 354.18)"><tspan x="0" y="0">F</tspan></text><text class="cls-3" transform="translate(464.18 362.17) scale(.58)"><tspan x="0" y="0">air</tspan></text></svg>