<?xml version="1.0" encoding="UTF-8" standalone="no"?>
<!-- Created with Inkscape (http://www.inkscape.org/) -->

<svg
   width="210mm"
   height="297mm"
   viewBox="0 0 210 297"
   version="1.1"
   id="svg6010"
   xml:space="preserve"
   inkscape:version="1.2 (dc2aedaf03, 2022-05-15)"
   sodipodi:docname="bais_CB.svg"
   xmlns:inkscape="http://www.inkscape.org/namespaces/inkscape"
   xmlns:sodipodi="http://sodipodi.sourceforge.net/DTD/sodipodi-0.dtd"
   xmlns="http://www.w3.org/2000/svg"
   xmlns:svg="http://www.w3.org/2000/svg"><sodipodi:namedview
     id="namedview6012"
     pagecolor="#ffffff"
     bordercolor="#000000"
     borderopacity="0.25"
     inkscape:showpageshadow="2"
     inkscape:pageopacity="0.0"
     inkscape:pagecheckerboard="0"
     inkscape:deskcolor="#d1d1d1"
     inkscape:document-units="mm"
     showgrid="false"
     inkscape:zoom="1.6819304"
     inkscape:cx="288.95369"
     inkscape:cy="555.01702"
     inkscape:window-width="1606"
     inkscape:window-height="1481"
     inkscape:window-x="781"
     inkscape:window-y="0"
     inkscape:window-maximized="0"
     inkscape:current-layer="layer1" /><defs
     id="defs6007"><marker
       style="overflow:visible"
       id="RoundedArrow"
       refX="0"
       refY="0"
       orient="auto-start-reverse"
       inkscape:stockid="RoundedArrow"
       markerWidth="3.0309145"
       markerHeight="2.9300001"
       viewBox="0 0 6.1347524 5.9304951"
       inkscape:isstock="true"
       inkscape:collect="always"
       preserveAspectRatio="xMidYMid"><path
         transform="scale(0.7)"
         d="m -0.21114562,-4.1055728 6.42229122,3.21114561 a 1,1 90 0 1 0,1.78885438 L -0.21114562,4.1055728 A 1.236068,1.236068 31.717474 0 1 -2,3 v -6 a 1.236068,1.236068 148.28253 0 1 1.78885438,-1.1055728 z"
         style="fill:context-stroke;fill-rule:evenodd;stroke:none"
         id="path1367" /></marker><marker
       style="overflow:visible"
       id="RoundedArrow-9"
       refX="0"
       refY="0"
       orient="auto-start-reverse"
       inkscape:stockid="RoundedArrow"
       markerWidth="3.0309145"
       markerHeight="2.9300001"
       viewBox="0 0 6.1347524 5.9304951"
       inkscape:isstock="true"
       inkscape:collect="always"
       preserveAspectRatio="xMidYMid"><path
         transform="scale(0.7)"
         d="m -0.21114562,-4.1055728 6.42229122,3.21114561 a 1,1 90 0 1 0,1.78885438 L -0.21114562,4.1055728 A 1.236068,1.236068 31.717474 0 1 -2,3 v -6 a 1.236068,1.236068 148.28253 0 1 1.78885438,-1.1055728 z"
         style="fill:context-stroke;fill-rule:evenodd;stroke:none"
         id="path1367-8" /></marker></defs><g
     inkscape:label="Layer 1"
     inkscape:groupmode="layer"
     id="layer1"><path
       style="fill:#7086b2;fill-opacity:1;stroke:#2d3668;stroke-width:0.302534;stroke-linecap:round;stroke-dasharray:none;stroke-opacity:1"
       d="m 126.4383,184.70301 c -4.04131,-2.19196 -3.41052,-7.92807 1.49425,-8.47991 4.39611,-6.90052 11.072,-2.79769 11.52144,1.95998 4.00209,-0.75181 6.65896,4.7359 1.41561,6.67993 z"
       id="path8154"
       sodipodi:nodetypes="ccccc" /><path
       style="fill:#354462;fill-opacity:1;stroke:#22294e;stroke-width:0;stroke-linecap:round;stroke-dasharray:none;stroke-opacity:1"
       d="m 126.44288,184.54628 c -4.04182,-2.15513 -3.29297,-7.7555 1.61242,-8.29807 -4.11242,10.72392 14.89856,8.4697 12.82071,8.45538 z"
       id="path8154-6"
       sodipodi:nodetypes="cccc" /><path
       style="fill:#000000;fill-opacity:0;stroke:#85d4ff;stroke-width:1.1;stroke-linecap:round;stroke-dasharray:none;stroke-opacity:1"
       id="path6195"
       sodipodi:type="arc"
       sodipodi:cx="84.160484"
       sodipodi:cy="183.57997"
       sodipodi:rx="30.518007"
       sodipodi:ry="32.248409"
       sodipodi:start="0"
       sodipodi:end="6.2689379"
       sodipodi:open="true"
       sodipodi:arc-type="arc"
       d="M 114.67849,183.57997 A 30.518007,32.248409 0 0 1 84.269185,215.82818 30.518007,32.248409 0 0 1 53.643251,183.8097 30.518007,32.248409 0 0 1 83.834389,151.3334 30.518007,32.248409 0 0 1 114.67539,183.12053" /><path
       style="fill:#000000;fill-opacity:0;stroke:#e2a2ae;stroke-width:1.1;stroke-linecap:round;stroke-dasharray:none;stroke-opacity:1"
       id="path6195-3"
       sodipodi:type="arc"
       sodipodi:cx="124.7463"
       sodipodi:cy="183.26538"
       sodipodi:rx="30.518007"
       sodipodi:ry="32.248409"
       sodipodi:start="0"
       sodipodi:end="6.2689379"
       sodipodi:open="true"
       sodipodi:arc-type="arc"
       d="M 155.26431,183.26538 A 30.518007,32.248409 0 0 1 124.855,215.51359 30.518007,32.248409 0 0 1 94.229067,183.49511 30.518007,32.248409 0 0 1 124.4202,151.01881 30.518007,32.248409 0 0 1 155.26121,182.80594" /><path
       style="fill:#f1ebbd;fill-opacity:1;stroke:#d7d7ad;stroke-width:0.3;stroke-linecap:round;stroke-dasharray:none;stroke-opacity:1"
       d="m 131.6679,186.41154 c -0.54658,-0.60392 -1.05727,-1.01883 -1.57309,-2.04502 -2.68537,-11.77112 11.19214,-8.37817 7.00026,0 -0.35301,0.82868 -0.72306,1.60623 -1.17982,2.12368 z"
       id="path7882"
       sodipodi:nodetypes="ccccc" /><path
       style="fill:#919191;fill-opacity:1;stroke:#666666;stroke-width:0.6;stroke-linecap:round;stroke-dasharray:none;stroke-opacity:1"
       d="m 131.43194,188.51614 c 1.14896,1.41356 2.79919,2.04186 4.36534,0.11795"
       id="path7938"
       sodipodi:nodetypes="cc" /><rect
       style="fill:#8f8f8f;fill-opacity:1;stroke:#707070;stroke-width:0.385335;stroke-linecap:round;stroke-dasharray:none;stroke-opacity:1"
       id="rect7936"
       width="4.5616584"
       height="1.8778569"
       x="131.39276"
       y="186.66788"
       ry="0.27259177" /><path
       style="fill:#919191;fill-opacity:0;stroke:#d7d7ad;stroke-width:0.3;stroke-linecap:round;stroke-dasharray:none;stroke-opacity:1"
       d="m 132.98171,186.42071 c 0.32186,-1.9207 2.56932,-4.14109 0.75163,-4.70134 -1.70117,0.52431 0.68771,2.85454 0.86025,4.74323"
       id="path7995"
       sodipodi:nodetypes="ccc" /><path
       style="fill:#354666;fill-opacity:1;stroke:#22294e;stroke-width:0;stroke-linecap:round;stroke-dasharray:none;stroke-opacity:1"
       d="m 64.627238,175.91734 -0.111236,14.90542 10.011105,-0.22247 c 0.630328,0.47001 1.260657,0.37793 1.890985,0.11124 l 9.733018,0.22247 0.22247,-15.01666 c -3.8687,-0.4929 -7.357402,-1.64327 -11.012215,-0.27809 -3.578042,-0.65957 -7.156085,-0.83353 -10.734127,0.27809 z"
       id="path8344"
       sodipodi:nodetypes="cccccccc" /><path
       style="fill:#e3e8f2;fill-opacity:1;stroke:#22294e;stroke-width:0;stroke-linecap:round;stroke-dasharray:none;stroke-opacity:1"
       d="m 65.316228,176.83201 -0.105009,13.24116 9.450686,-0.19763 c 0.595044,0.41754 1.190087,0.33573 1.785129,0.0988 l 9.188167,0.19763 0.210016,-13.33998 c -3.652131,-0.43787 -6.945537,-1.45979 -10.395755,-0.24704 -3.377745,-0.58593 -6.75549,-0.74046 -10.133234,0.24704 z"
       id="path8344-3"
       sodipodi:nodetypes="cccccccc" /><path
       style="fill:#354666;fill-opacity:0;stroke:#353d69;stroke-width:0.4;stroke-linecap:round;stroke-dasharray:none;stroke-opacity:1"
       d="m 66.017668,177.86394 c 3.329863,-0.85472 5.961655,-0.45291 8.565055,0"
       id="path8865"
       sodipodi:nodetypes="cc" /><path
       style="fill:#354666;fill-opacity:0;stroke:#353d69;stroke-width:0.4;stroke-linecap:round;stroke-dasharray:none;stroke-opacity:1"
       d="m 66.017669,179.05986 c 3.329863,-0.85472 5.961655,-0.45291 8.565055,0"
       id="path8865-3"
       sodipodi:nodetypes="cc" /><path
       style="fill:#354666;fill-opacity:0;stroke:#353d69;stroke-width:0.4;stroke-linecap:round;stroke-dasharray:none;stroke-opacity:1"
       d="m 66.017669,180.33906 c 3.329863,-0.85472 5.961655,-0.45291 8.565055,0"
       id="path8865-3-8"
       sodipodi:nodetypes="cc" /><path
       style="fill:#354666;fill-opacity:0;stroke:#353d69;stroke-width:0.4;stroke-linecap:round;stroke-dasharray:none;stroke-opacity:1"
       d="m 66.240139,181.56264 c 3.329863,-0.85472 5.961655,-0.45291 8.565055,0"
       id="path8865-3-4"
       sodipodi:nodetypes="cc" /><path
       style="fill:#354666;fill-opacity:0;stroke:#353d69;stroke-width:0.4;stroke-linecap:round;stroke-dasharray:none;stroke-opacity:1"
       d="m 66.01767,188.57041 c 3.329863,-0.85472 5.961655,-0.45291 8.565055,0"
       id="path8865-3-4-2"
       sodipodi:nodetypes="cc" /><path
       style="fill:#354666;fill-opacity:0;stroke:#353d69;stroke-width:0.4;stroke-linecap:round;stroke-dasharray:none;stroke-opacity:1"
       d="m 66.073284,182.81388 v 4.67185 c 2.743784,-0.65468 5.487568,-0.30993 8.231352,0.0556 l 0.05562,-4.72746 c -2.669628,-0.57156 -5.617343,-1.0326 -8.286971,1e-5 z m 8.231354,4.56062"
       id="path9035"
       sodipodi:nodetypes="ccccc" /><path
       style="fill:#354666;fill-opacity:0;stroke:#353d69;stroke-width:0.391;stroke-linecap:round;stroke-dasharray:none;stroke-opacity:1"
       d="m 76.37796,178.53648 v 10.46556 c 1.296014,-0.41458 5.126884,-0.50747 8.589176,0.12455 l -0.05696,-11.25754 c -1.735409,-0.31529 -6.426603,-1.70379 -8.587837,0.22249 z"
       id="path9035-4"
       sodipodi:nodetypes="cccccc" /><text
       xml:space="preserve"
       style="font-weight:bold;font-size:6.35px;font-family:'Franklin Gothic Medium Cond';-inkscape-font-specification:'Franklin Gothic Medium Cond Bold';text-align:center;text-anchor:middle;fill:#2d3c57;fill-opacity:1;stroke:#353d69;stroke-width:0.391001;stroke-linecap:round;stroke-dasharray:none;stroke-opacity:1"
       x="75.083282"
       y="199.33221"
       id="text9133"><tspan
         sodipodi:role="line"
         id="tspan9131"
         style="font-style:normal;font-variant:normal;font-weight:bold;font-stretch:normal;font-family:Ebrima;-inkscape-font-specification:'Ebrima Bold';stroke-width:0.391;fill:#2d3c57;fill-opacity:1"
         x="75.083282"
         y="199.33221">Facts</tspan></text><text
       xml:space="preserve"
       style="font-weight:bold;font-size:6.35px;font-family:'Franklin Gothic Medium Cond';-inkscape-font-specification:'Franklin Gothic Medium Cond Bold';text-align:center;text-anchor:middle;fill:#2d3c57;fill-opacity:1;stroke:#353d69;stroke-width:0.391001;stroke-linecap:round;stroke-dasharray:none;stroke-opacity:1"
       x="134.52669"
       y="199.62558"
       id="text9133-2"><tspan
         sodipodi:role="line"
         id="tspan9131-8"
         style="font-style:normal;font-variant:normal;font-weight:bold;font-stretch:normal;font-family:Ebrima;-inkscape-font-specification:'Ebrima Bold';fill:#2d3c57;fill-opacity:1;stroke-width:0.391"
         x="134.52669"
         y="199.62558">Beliefs</tspan></text><text
       xml:space="preserve"
       style="font-style:normal;font-variant:normal;font-weight:bold;font-stretch:normal;font-size:4.57642px;font-family:Ebrima;-inkscape-font-specification:'Ebrima Bold';text-align:center;text-anchor:middle;fill:#2d3c57;fill-opacity:1;stroke:#353d69;stroke-width:0.281793;stroke-linecap:round;stroke-dasharray:none;stroke-opacity:1"
       x="70.388046"
       y="149.87802"
       id="text9316"
       transform="scale(1.0644167,0.93948168)"><tspan
         sodipodi:role="line"
         id="tspan9314"
         style="stroke-width:0.281792"
         x="70.388046"
         y="149.87802">Evidence </tspan><tspan
         sodipodi:role="line"
         style="stroke-width:0.281792"
         x="71.019318"
         y="155.59854"
         id="tspan9318">we ignore </tspan></text><text
       xml:space="preserve"
       style="font-style:normal;font-variant:normal;font-weight:bold;font-stretch:normal;font-size:4.57642px;font-family:Ebrima;-inkscape-font-specification:'Ebrima Bold';text-align:center;text-anchor:middle;fill:#2d3c57;fill-opacity:1;stroke:#353d69;stroke-width:0.281793;stroke-linecap:round;stroke-dasharray:none;stroke-opacity:1"
       x="97.692207"
       y="239.47662"
       id="text9316-8"
       transform="scale(1.0644167,0.93948168)"><tspan
         sodipodi:role="line"
         id="tspan9314-5"
         style="stroke-width:0.281792"
         x="97.692207"
         y="239.47662">Evidence </tspan><tspan
         sodipodi:role="line"
         style="stroke-width:0.281792"
         x="98.323479"
         y="245.19714"
         id="tspan9318-5">we believe </tspan></text><path
       style="fill:#2d3c57;fill-opacity:1;stroke:#353d69;stroke-width:1.98221;stroke-linecap:round;stroke-dasharray:none;stroke-opacity:1;marker-start:url(#RoundedArrow)"
       d="m 74.971375,161.69352 0.130357,-12.70051"
       id="path9406"
       sodipodi:nodetypes="cc" /><path
       style="fill:#2d3c57;fill-opacity:1;stroke:#353d69;stroke-width:2.48111;stroke-linecap:round;stroke-dasharray:none;stroke-opacity:1;marker-start:url(#RoundedArrow-9)"
       d="m 104.6306,197.08584 -0.14999,17.29343"
       id="path9406-3"
       sodipodi:nodetypes="cc" /><path
       style="fill:#29d12f;fill-opacity:0;stroke:#91bf79;stroke-width:3.61629;stroke-linecap:round;stroke-dasharray:none;stroke-opacity:1"
       d="m 99.352455,179.10303 4.550835,4.89364 9.31336,-10.00003"
       id="path10486"
       sodipodi:nodetypes="ccc" /></g></svg>
