<?xml version="1.0" encoding="UTF-8" standalone="no"?>
<!-- Created with Inkscape (http://www.inkscape.org/) -->

<svg
   width="210mm"
   height="297mm"
   viewBox="0 0 210 297"
   version="1.1"
   id="svg5"
   xml:space="preserve"
   inkscape:version="1.2 (dc2aedaf03, 2022-05-15)"
   sodipodi:docname="bias_SE.svg"
   xmlns:inkscape="http://www.inkscape.org/namespaces/inkscape"
   xmlns:sodipodi="http://sodipodi.sourceforge.net/DTD/sodipodi-0.dtd"
   xmlns:xlink="http://www.w3.org/1999/xlink"
   xmlns="http://www.w3.org/2000/svg"
   xmlns:svg="http://www.w3.org/2000/svg"><sodipodi:namedview
     id="namedview7"
     pagecolor="#ffffff"
     bordercolor="#000000"
     borderopacity="0.25"
     inkscape:showpageshadow="2"
     inkscape:pageopacity="0.0"
     inkscape:pagecheckerboard="0"
     inkscape:deskcolor="#d1d1d1"
     inkscape:document-units="mm"
     showgrid="false"
     inkscape:zoom="0.84096521"
     inkscape:cx="235.44375"
     inkscape:cy="589.20392"
     inkscape:window-width="1642"
     inkscape:window-height="1481"
     inkscape:window-x="745"
     inkscape:window-y="0"
     inkscape:window-maximized="0"
     inkscape:current-layer="layer1" /><defs
     id="defs2"><linearGradient
       inkscape:collect="always"
       id="linearGradient5521"><stop
         style="stop-color:#f1dc62;stop-opacity:0.53293413;"
         offset="0"
         id="stop5517" /><stop
         style="stop-color:#eee6b6;stop-opacity:0.15568863;"
         offset="1"
         id="stop5519" /></linearGradient><linearGradient
       inkscape:collect="always"
       xlink:href="#linearGradient5521"
       id="linearGradient5523"
       x1="148.81462"
       y1="99.469597"
       x2="104.13877"
       y2="256.77893"
       gradientUnits="userSpaceOnUse" /><linearGradient
       inkscape:collect="always"
       xlink:href="#linearGradient5521"
       id="linearGradient5523-8"
       x1="148.81462"
       y1="99.469597"
       x2="104.13877"
       y2="256.77893"
       gradientUnits="userSpaceOnUse" /></defs><g
     inkscape:label="Layer 1"
     inkscape:groupmode="layer"
     id="layer1"><path
       style="fill:#442639;fill-opacity:1;stroke:#000000;stroke-width:0;stroke-linecap:round"
       d="m 73.801394,130.81412 c -3.859759,1.18179 -12.185217,6.67254 -9.785891,11.5803 -0.706445,2.66981 -3.333113,8.75176 -4.338271,15.77325 -4.173447,12.79477 12.174492,11.31815 9.026664,16.53291 -1.542282,1.70952 -5.12614,2.42158 8.717147,-0.81251 5.952486,-10.60266 2.003227,-10.79842 7.160419,-30.54947 0.668164,-2.66214 2.254568,-4.0699 -2.820343,-7.86645 -3.761399,-2.34526 -0.116932,-5.05969 -7.959725,-4.65803 z"
       id="path2449"
       sodipodi:nodetypes="cccccccc" /><path
       style="fill:#e1b797;fill-opacity:1;stroke:#000000;stroke-width:0;stroke-linecap:round"
       d="m 70.929219,148.15456 c 2.535471,0.77212 2.586771,-1.66329 2.872175,-3.79643 l 2.747297,0.10257 c -0.162335,2.70402 1.569216,3.22947 2.99705,4.10427 l -0.499507,4.82248 -6.743374,0.51306 z"
       id="path1812"
       sodipodi:nodetypes="ccccccc" /><path
       style="fill:#eeceb5;fill-opacity:1;stroke:#000000;stroke-width:0;stroke-linecap:round"
       d="m 83.294524,157.29535 c 1.366294,2.42898 1.925226,11.23102 7.689019,15.00631 1.02856,0.63164 2.915884,2.04459 6.843966,4.48816 0.681429,1.83195 9.175321,0.53409 1.206425,-1.0961 l -7.787175,-8.05374 -3.156912,-12.14623 z"
       id="path1809"
       sodipodi:nodetypes="ccccccc" /><path
       style="fill:#eeceb5;fill-opacity:1;stroke:#000000;stroke-width:0;stroke-linecap:round"
       d="m 65.567255,153.12057 c -15.970383,12.0486 -1.206726,23.10724 5.035799,27.46194 -4.072265,-6.40622 -11.997959,-13.7858 -3.17887,-23.95145 z"
       id="path1374"
       sodipodi:nodetypes="cccc" /><path
       style="fill:#415040;fill-opacity:1;stroke:#000000;stroke-width:0;stroke-linecap:round"
       d="m 68.130608,177.38137 c -5.108586,2.47624 -1.179081,19.32886 -1.059623,27.42529 -5.087687,11.58723 -0.893799,27.68091 -1.23622,39.97705 4.654865,-16.53924 2.686317,-15.77044 6.534309,-36.34935 4.059229,-3.19796 6.325702,-17.66337 5.298103,-25.82911 -0.479043,3.05624 0.01841,16.50269 2.472441,28.44104 -2.844752,6.00361 0.837013,20.48336 3.532055,30.47253 2.47271,0.0989 1.4245,-20.53651 2.119246,-30.90785 3.225929,-9.15712 0.459626,-20.1684 -1.94264,-29.89213 z"
       id="path762"
       sodipodi:nodetypes="cccccccccc" /><path
       style="fill:#9a6280;fill-opacity:1;stroke:#000000;stroke-width:0;stroke-linecap:round"
       d="m 70.779646,147.92462 c -2.551098,2.72907 -5.640892,2.8909 -7.064123,5.94936 l 5.65131,4.2081 c -0.637076,9.75074 -5.06096,21.70137 -2.779167,27.9299 5.920288,3.7371 15.527277,-0.55347 18.922373,-1.61002 -1.131338,-2.4659 0.65908,1.03036 -4.846221,-18.50756 3.483835,-1.25433 2.164368,-5.87102 2.255586,-8.17069 l 1.012675,1.79857 5.124716,-2.86367 c -1.305949,-2.88107 -4.616555,-7.87788 -9.446991,-7.86336 -4.412185,6.70952 -6.736517,3.46912 -8.830158,-0.87063 z"
       id="path664"
       sodipodi:nodetypes="ccccccccccc" /><path
       style="fill:#e1b797;fill-opacity:1;stroke:#000000;stroke-width:0;stroke-linecap:round"
       d="m 75.175036,133.68709 0.999023,0.82086"
       id="path2031" /><path
       style="fill:#eeceb5;fill-opacity:1;stroke:#000000;stroke-width:0;stroke-linecap:round"
       d="m 76.100902,147.34828 c -2.287976,0.0967 -4.906473,-3.81769 -5.671199,-6.78656 l 6.466042,-4.26868 c 3.153821,3.306 4.6157,6.396 -0.794847,11.05524 z"
       id="path2033"
       sodipodi:nodetypes="ccccc" /><path
       style="fill:#322d3b;fill-opacity:1;stroke:#000000;stroke-width:0;stroke-linecap:round"
       d="m 65.688576,238.18134 c -0.577287,0.99448 -1.77431,1.86501 -1.412822,3.04724 l 1.589423,4.64342 c 0.853586,0.43189 1.707172,0.30881 2.560758,-0.72551 l -0.794723,-3.70568 0.08829,-3.25947 z"
       id="path3039"
       sodipodi:nodetypes="ccccccc" /><path
       style="fill:#322d3b;fill-opacity:1;stroke:#000000;stroke-width:0;stroke-linecap:round"
       d="m 83.114408,238.69531 c -0.705627,0.95767 -2.166539,1.16005 -1.94264,3.04724 l 7.377271,0.58043 c 1.462866,0.16542 1.563318,-0.35037 1.364588,-1.01575 l -4.679986,-2.90216 z"
       id="path4553"
       inkscape:transform-center-y="2.0315005"
       sodipodi:nodetypes="cccccc" /><path
       style="fill:#966c4b;fill-opacity:1;stroke:#000000;stroke-width:0;stroke-linecap:round"
       d="m 129.65653,151.40591 c -0.87817,-0.96974 -4.21964,-3.63473 -4.47586,-5.68766 l -2.56625,0.41986 c 0.14574,2.60235 -2.30752,3.96446 -3.58936,4.80637 l 1.34718,3.78474 6.05388,0.49376 z"
       id="path1812-2"
       sodipodi:nodetypes="ccccccc" /><path
       style="fill:#b78f6f;fill-opacity:1;stroke:#000000;stroke-width:0;stroke-linecap:round"
       d="m 116.55833,158.49018 c -0.89482,1.19948 -0.79249,7.59821 -6.90284,14.44207 -0.92339,0.60789 -2.61775,1.96771 -6.1442,4.3194 -0.61175,1.76307 -8.237158,0.51401 -1.08306,-1.05488 1.694,-2.87598 3.46989,-5.71435 6.99095,-7.75092 0.31098,-3.89651 1.19229,-7.79303 2.83413,-11.68953 z"
       id="path1809-7"
       sodipodi:nodetypes="ccccccc" /><path
       style="fill:#b78f6f;fill-opacity:1;stroke:#000000;stroke-width:0;stroke-linecap:round"
       d="m 133.47164,154.79352 c 2.35045,5.00822 4.96416,9.48565 4.54329,12.67076 -0.8089,6.12156 -6.74729,10.51695 -10.0628,13.43746 3.81438,-6.33526 10.72889,-14.93493 2.85384,-23.05087 z"
       id="path1374-1"
       sodipodi:nodetypes="csccc" /><path
       style="fill:#404350;fill-opacity:1;stroke:#000000;stroke-width:0;stroke-linecap:round"
       d="m 130.17177,177.82096 c 0.23326,24.99152 -0.0184,23.54921 0.95129,26.39409 3.83963,33.779 0.80241,26.64011 1.10982,38.47391 -4.17892,-15.91736 -2.41165,-15.17747 -5.8662,-34.98261 0.37758,-3.50885 -4.80771,-17.09261 -4.75639,-24.85793 0.43007,2.94133 -0.0165,15.88219 -2.21964,27.37165 -0.82793,13.02856 -0.75801,19.7273 -3.17091,29.32676 -2.21988,0.0952 -1.27885,-19.76433 -1.90256,-29.74571 1.3956,-8.08638 -0.20818,-19.37546 1.74401,-28.76818 z"
       id="path762-6"
       sodipodi:nodetypes="cccccccccc" /><path
       style="fill:#629a71;fill-opacity:1;stroke:#000000;stroke-width:0;stroke-linecap:round"
       d="m 127.79359,149.47179 c 2.29026,2.62646 5.06413,2.7822 6.34184,5.72566 l -5.07348,4.04988 c -0.46386,-4.38464 1.40598,2.26446 1.89583,18.95788 -5.81268,4.8416 -12.91537,7.43143 -14.90766,3.77398 0.36664,-11.68096 1.13667,-6.63548 0.84497,-23.07676 l -0.90913,1.73094 -4.60073,-2.75599 c 1.17242,-2.77274 4.14453,-7.58167 8.48107,-7.5677 3.96104,6.45724 6.04772,3.33868 7.92729,-0.83789 z"
       id="path664-0"
       sodipodi:nodetypes="cccccccccc" /><path
       style="fill:#e1b797;fill-opacity:1;stroke:#000000;stroke-width:0;stroke-linecap:round"
       d="m 123.84762,135.76959 -0.89688,0.79"
       id="path2031-1" /><path
       style="fill:#b78f6f;fill-opacity:1;stroke:#000000;stroke-width:0;stroke-linecap:round"
       d="m 120.8606,148.80971 c 2.62156,0.17279 7.87336,-2.68211 8.04604,-7.05878 l -7.07354,-6.39305 c -0.16561,-8.70041 -6.56466,11.30073 -0.9725,13.45183 z"
       id="path2033-3"
       sodipodi:nodetypes="cccc" /><path
       style="fill:#6a4227;fill-opacity:1;stroke:#000000;stroke-width:0;stroke-linecap:round"
       d="m 132.36411,236.33484 c 0.51827,0.95709 1.59289,1.79488 1.26838,2.93266 l -1.42692,4.46883 c -0.7663,0.41565 -1.53262,0.2972 -2.29892,-0.69823 l 0.71346,-3.56635 -0.0793,-3.13691 z"
       id="path3039-1"
       sodipodi:nodetypes="ccccccc" /><path
       style="fill:#6a4227;fill-opacity:1;stroke:#000000;stroke-width:0;stroke-linecap:round"
       d="m 116.72002,236.82948 c 0.63348,0.92166 1.94502,1.11644 1.74401,2.93267 l -6.62296,0.5586 c -1.31329,0.1592 -1.40348,-0.33719 -1.22507,-0.97756 l 4.20148,-2.79303 z"
       id="path4553-7"
       inkscape:transform-center-y="1.9551167"
       sodipodi:nodetypes="cccccc"
       inkscape:transform-center-x="2.7681864e-06" /><path
       style="fill:#322d3b;fill-opacity:1;stroke:#471a8a;stroke-width:0;stroke-linecap:round;stroke-dasharray:none"
       d="m 119.07495,140.04123 c -2.41571,1.57681 -2.41626,-1.48325 -3.0666,-1.95695 1.16776,0.14437 1.47576,-0.79033 1.82179,-1.67729 -0.007,-1.48622 0.55825,-2.66716 2.18174,-3.28489 0.58557,-1.90115 1.91248,-1.99876 3.33846,-1.85532 1.03079,-0.0255 2.20624,0.6341 3.4914,1.81322 0.97111,0.54961 1.88874,1.18146 2.09165,2.913 1.0098,0.94889 0.38512,3.30217 0.0174,6.30843 -0.45352,0.42666 -1.99348,-4.58623 -2.40856,1.87311 l 0.0737,-1.7858 c -2.18616,-3.33266 -6.81747,-10.88368 -7.24134,-2.1334 z"
       id="path2412"
       sodipodi:nodetypes="cccccccccccc" /><path
       style="fill:url(#linearGradient5523);fill-opacity:1;stroke:#c2c2c2;stroke-width:0;stroke-linecap:round;stroke-dasharray:none;stroke-opacity:1"
       d="m 148.5,100.67797 -49.709746,138.4322 c 21.810446,14.2511 60.050146,5.25817 69.845336,-0.31462 l 4.71928,-133.71292 z"
       id="path5386"
       sodipodi:nodetypes="ccccc" /><path
       style="fill:url(#linearGradient5523-8);fill-opacity:1;stroke:#c2c2c2;stroke-width:0;stroke-linecap:round;stroke-dasharray:none;stroke-opacity:1"
       d="M 47.350105,100.31324 93.913667,238.14917 C 73.483624,252.33888 37.664161,243.38469 28.488919,237.8359 L 32.563031,103.75507 Z"
       id="path5386-3"
       sodipodi:nodetypes="ccccc" /><path
       style="fill:#ffffff;fill-opacity:1;stroke:#c2c2c2;stroke-width:1.7;stroke-linecap:round;stroke-dasharray:none;stroke-opacity:1"
       d="m 156.44284,122.517 c -1.99029,-0.46908 -4.36122,-1.85099 -6.22391,-3.62771 -1.69583,-1.61754 -1.85249,-1.69415 -3.47778,-1.70075 -2.9922,-0.0121 -5.66447,-1.70319 -7.13863,-4.51739 -1.13087,-2.15887 -1.18336,-5.62874 -0.11618,-7.68023 1.38242,-2.65746 4.45212,-4.79183 6.88399,-4.78643 0.51075,10e-4 0.75333,-0.234063 0.89077,-0.863653 0.32826,-1.503687 0.85286,-2.712161 1.76325,-4.061881 2.45157,-3.634604 6.34456,-5.203174 10.95924,-4.415734 l 1.41578,0.24159 1.19197,-2.53802 c 2.90912,-6.19431 9.16106,-9.84411 15.98538,-9.33205 4.00672,0.30065 7.79345,2.18776 10.71331,5.33897 1.70771,1.84302 3.67586,5.90246 4.09591,8.44808 0.34354,2.081984 0.35571,2.100704 1.69738,2.613094 4.45346,1.7008 7.40378,6.574404 6.94622,11.474374 -0.36821,3.94305 -2.80692,7.42511 -6.44297,9.19948 -1.99033,0.97127 -5.38813,1.15008 -7.64017,0.40208 l -1.65892,-0.55101 -0.47363,0.75378 c -0.97513,1.5519 -3.27607,3.41968 -5.01922,4.07433 -3.26945,1.22791 -8.13055,0.42773 -10.00858,-1.64747 -0.51083,-0.56446 -1.67852,-0.79643 -1.67852,-0.33345 0,0.55966 -4.07607,2.92453 -5.80789,3.36964 -2.0331,0.52253 -4.97934,0.58285 -6.8568,0.14036 z"
       id="path4019" /><path
       style="fill:#ffffff;fill-opacity:1;stroke:#c2c2c2;stroke-width:1.7;stroke-linecap:round;stroke-dasharray:none;stroke-opacity:1"
       d="m 56.383185,126.37353 c 1.959528,-0.58442 4.245782,-2.10232 6.001624,-3.9847 1.598555,-1.71374 1.750478,-1.79936 3.372614,-1.90079 2.986395,-0.18668 5.555435,-2.03082 6.862872,-4.92624 1.00297,-2.22118 0.8529,-5.6882 -0.332169,-7.67392 -1.53513,-2.57227 -4.724142,-4.52388 -7.151554,-4.37659 -0.509821,0.0308 -0.765704,-0.1897 -0.939647,-0.8102 -0.415443,-1.48197 -1.009664,-2.65778 -1.997261,-3.952081 -2.659477,-3.485359 -6.637361,-4.824096 -11.19823,-3.768726 l -1.399271,0.32379 -1.338035,-2.464142 c -3.265609,-6.014005 -9.719866,-9.292779 -16.502679,-8.383384 -3.98235,0.533934 -7.652513,2.638789 -10.383521,5.955007 -1.597258,1.939526 -3.325181,6.106893 -3.595976,8.672686 -0.221468,2.09849 -0.232525,2.11788 -1.542011,2.70769 -4.346627,1.95777 -7.00754,6.99522 -6.2648407,11.86015 0.5976637,3.91484 3.2354007,7.24867 6.9687917,8.80785 2.043614,0.85347 5.446058,0.83371 7.650614,-0.0444 l 1.623941,-0.64687 0.516807,0.72486 c 1.064024,1.49235 3.470031,3.22269 5.24841,3.77451 3.335529,1.03504 8.141655,-0.0474 9.895395,-2.22868 0.477023,-0.5933 1.629187,-0.89301 1.656203,-0.43082 0.03266,0.5587 4.239774,2.6817 5.994616,3.025 2.060126,0.403 5.004866,0.2913 6.853307,-0.25998 z"
       id="path4019-6" /><text
       xml:space="preserve"
       style="font-style:normal;font-variant:normal;font-weight:bold;font-stretch:normal;font-size:7.77371px;font-family:'Franklin Gothic Medium Cond';-inkscape-font-specification:'Franklin Gothic Medium Cond Bold';text-align:center;text-anchor:middle;fill:#6a4227;fill-opacity:1;stroke:#471a8a;stroke-width:0;stroke-linecap:round;stroke-dasharray:none"
       x="170.26375"
       y="102.99306"
       id="text3884"
       transform="scale(1.0106968,0.98941641)"><tspan
         sodipodi:role="line"
         id="tspan3882"
         style="font-style:normal;font-variant:normal;font-weight:bold;font-stretch:normal;font-family:'Franklin Gothic Medium Cond';-inkscape-font-specification:'Franklin Gothic Medium Cond Bold';stroke-width:0"
         x="170.26375"
         y="102.99306">She can tell </tspan><tspan
         sodipodi:role="line"
         style="font-style:normal;font-variant:normal;font-weight:bold;font-stretch:normal;font-family:'Franklin Gothic Medium Cond';-inkscape-font-specification:'Franklin Gothic Medium Cond Bold';stroke-width:0"
         x="170.26375"
         y="112.7102"
         id="tspan3936">I forgot to shave</tspan></text><text
       xml:space="preserve"
       style="font-style:normal;font-variant:normal;font-weight:bold;font-stretch:normal;font-size:7.58379px;font-family:'Franklin Gothic Medium Cond';-inkscape-font-specification:'Franklin Gothic Medium Cond Bold';text-align:center;text-anchor:middle;fill:#6a4227;fill-opacity:1;stroke:#471a8a;stroke-width:0;stroke-linecap:round;stroke-dasharray:none"
       x="47.306149"
       y="91.176277"
       id="text3884-4"
       transform="scale(0.86762685,1.1525692)"><tspan
         sodipodi:role="line"
         style="font-style:normal;font-variant:normal;font-weight:bold;font-stretch:normal;font-family:'Franklin Gothic Medium Cond';-inkscape-font-specification:'Franklin Gothic Medium Cond Bold';stroke-width:0"
         x="47.306149"
         y="91.176277"
         id="tspan3936-2">He can tell I</tspan><tspan
         sodipodi:role="line"
         style="font-style:normal;font-variant:normal;font-weight:bold;font-stretch:normal;font-family:'Franklin Gothic Medium Cond';-inkscape-font-specification:'Franklin Gothic Medium Cond Bold';stroke-width:0"
         x="47.306149"
         y="100.65601"
         id="tspan5962"> was lying on my profile</tspan></text><text
       xml:space="preserve"
       style="font-style:normal;font-variant:normal;font-weight:bold;font-stretch:normal;font-size:9.43694px;font-family:'Franklin Gothic Medium Cond';-inkscape-font-specification:'Franklin Gothic Medium Cond Bold';text-align:center;text-anchor:middle;fill:#000000;fill-opacity:1;stroke:#c2c2c2;stroke-width:0;stroke-linecap:round;stroke-dasharray:none;stroke-opacity:1"
       x="100.68952"
       y="111.57206"
       id="text5659"
       transform="scale(0.8590336,1.1640988)"><tspan
         sodipodi:role="line"
         id="tspan5657"
         style="fill:#000000;fill-opacity:1;stroke-width:0"
         x="100.68952"
         y="111.57206">Hello</tspan></text><text
       xml:space="preserve"
       style="font-style:normal;font-variant:normal;font-weight:bold;font-stretch:normal;font-size:9.45006px;font-family:'Franklin Gothic Medium Cond';-inkscape-font-specification:'Franklin Gothic Medium Cond Bold';text-align:center;text-anchor:middle;fill:#000000;fill-opacity:1;stroke:#c2c2c2;stroke-width:0;stroke-linecap:round;stroke-dasharray:none;stroke-opacity:1"
       x="123.29264"
       y="117.65561"
       id="text5819"
       transform="scale(0.90395893,1.1062449)"><tspan
         sodipodi:role="line"
         id="tspan5817"
         style="stroke-width:0"
         x="123.29264"
         y="117.65561">Hey</tspan></text></g></svg>
