<?xml version="1.0" encoding="UTF-8" standalone="no"?>
<!-- Created with Inkscape (http://www.inkscape.org/) -->

<svg
   width="210mm"
   height="297mm"
   viewBox="0 0 210 297"
   version="1.1"
   id="svg5"
   xml:space="preserve"
   inkscape:version="1.2 (dc2aedaf03, 2022-05-15)"
   sodipodi:docname="bias_COK.svg"
   xmlns:inkscape="http://www.inkscape.org/namespaces/inkscape"
   xmlns:sodipodi="http://sodipodi.sourceforge.net/DTD/sodipodi-0.dtd"
   xmlns:xlink="http://www.w3.org/1999/xlink"
   xmlns="http://www.w3.org/2000/svg"
   xmlns:svg="http://www.w3.org/2000/svg"><sodipodi:namedview
     id="namedview7"
     pagecolor="#ffffff"
     bordercolor="#000000"
     borderopacity="0.25"
     inkscape:showpageshadow="2"
     inkscape:pageopacity="0.0"
     inkscape:pagecheckerboard="0"
     inkscape:deskcolor="#d1d1d1"
     inkscape:document-units="mm"
     showgrid="false"
     inkscape:zoom="1.6819304"
     inkscape:cx="235.44375"
     inkscape:cy="565.71901"
     inkscape:window-width="1196"
     inkscape:window-height="1481"
     inkscape:window-x="1191"
     inkscape:window-y="0"
     inkscape:window-maximized="0"
     inkscape:current-layer="layer1" /><defs
     id="defs2"><linearGradient
       inkscape:collect="always"
       id="linearGradient7899"><stop
         style="stop-color:#296043;stop-opacity:1;"
         offset="0"
         id="stop7895" /><stop
         style="stop-color:#204b34;stop-opacity:1;"
         offset="1"
         id="stop7897" /></linearGradient><linearGradient
       inkscape:collect="always"
       id="linearGradient7891"><stop
         style="stop-color:#46391f;stop-opacity:1;"
         offset="0"
         id="stop7887" /><stop
         style="stop-color:#392f19;stop-opacity:1;"
         offset="1"
         id="stop7889" /></linearGradient><linearGradient
       inkscape:collect="always"
       id="linearGradient7745"><stop
         style="stop-color:#46391f;stop-opacity:1;"
         offset="0"
         id="stop7741" /><stop
         style="stop-color:#221c0f;stop-opacity:1;"
         offset="1"
         id="stop7743" /></linearGradient><linearGradient
       inkscape:collect="always"
       id="linearGradient7735"><stop
         style="stop-color:#ab832d;stop-opacity:1;"
         offset="0"
         id="stop7731" /><stop
         style="stop-color:#856623;stop-opacity:1;"
         offset="1"
         id="stop7733" /></linearGradient><linearGradient
       inkscape:collect="always"
       id="linearGradient7001"><stop
         style="stop-color:#ab832d;stop-opacity:1;"
         offset="0"
         id="stop6997" /><stop
         style="stop-color:#ab832d;stop-opacity:0;"
         offset="1"
         id="stop6999" /></linearGradient><linearGradient
       inkscape:collect="always"
       id="linearGradient5541"><stop
         style="stop-color:#956e00;stop-opacity:1;"
         offset="0"
         id="stop5537" /><stop
         style="stop-color:#594100;stop-opacity:0.89820361;"
         offset="1"
         id="stop5539" /></linearGradient><linearGradient
       inkscape:collect="always"
       id="linearGradient5044"><stop
         style="stop-color:#5e4a1c;stop-opacity:1;"
         offset="0"
         id="stop5040" /><stop
         style="stop-color:#816527;stop-opacity:0;"
         offset="1"
         id="stop5042" /></linearGradient><linearGradient
       inkscape:collect="always"
       xlink:href="#linearGradient5044"
       id="linearGradient5046"
       x1="99.082985"
       y1="159.12564"
       x2="94.227379"
       y2="148.50275"
       gradientUnits="userSpaceOnUse" /><linearGradient
       inkscape:collect="always"
       xlink:href="#linearGradient5541"
       id="linearGradient5543"
       x1="82.358345"
       y1="143.81244"
       x2="82.556404"
       y2="153.48984"
       gradientUnits="userSpaceOnUse" /><linearGradient
       inkscape:collect="always"
       xlink:href="#linearGradient7001"
       id="linearGradient7003"
       x1="98.776222"
       y1="159.06532"
       x2="99.082985"
       y2="159.12564"
       gradientUnits="userSpaceOnUse" /><linearGradient
       inkscape:collect="always"
       xlink:href="#linearGradient7735"
       id="linearGradient7737"
       x1="87.197044"
       y1="145.03601"
       x2="82.445175"
       y2="158.38416"
       gradientUnits="userSpaceOnUse" /><linearGradient
       inkscape:collect="always"
       xlink:href="#linearGradient7745"
       id="linearGradient7747"
       x1="86.707191"
       y1="199.61617"
       x2="87.009682"
       y2="202.84196"
       gradientUnits="userSpaceOnUse" /><linearGradient
       inkscape:collect="always"
       xlink:href="#linearGradient7891"
       id="linearGradient7893"
       x1="96.915901"
       y1="199.44266"
       x2="96.087013"
       y2="202.00105"
       gradientUnits="userSpaceOnUse" /><radialGradient
       inkscape:collect="always"
       xlink:href="#linearGradient7899"
       id="radialGradient7901"
       cx="158.72511"
       cy="125.40467"
       fx="158.72511"
       fy="125.40467"
       r="43.351586"
       gradientTransform="matrix(1,0,0,0.68067554,-4.9874595e-7,40.487567)"
       gradientUnits="userSpaceOnUse" /></defs><g
     inkscape:label="Layer 1"
     inkscape:groupmode="layer"
     id="layer1"><rect
       style="fill:url(#radialGradient7901);fill-opacity:1;stroke:#dbaf85;stroke-width:2.69999;stroke-linecap:round;stroke-opacity:1"
       id="rect478"
       width="84.003181"
       height="56.316738"
       x="27.371822"
       y="116.56621"
       ry="2.0533602" /><rect
       style="fill:#4b3520;fill-opacity:0;stroke:#b58c64;stroke-width:2.83537;stroke-linecap:round;stroke-opacity:1"
       id="rect478-9"
       width="87.013992"
       height="59.956783"
       x="26.023726"
       y="114.74619"
       ry="2.1860797" /><path
       style="fill:url(#linearGradient7893);fill-opacity:1;stroke:#dbaf85;stroke-width:2.62494;stroke-linecap:round;stroke-opacity:0"
       d="m 95.602178,199.12505 c -1.858149,3.58884 4.716822,5.89933 2.552235,-0.40094 z"
       id="path4316"
       sodipodi:nodetypes="ccc" /><path
       style="fill:url(#linearGradient7747);fill-opacity:1;stroke:#22160a;stroke-width:2.80507;stroke-linecap:round;stroke-opacity:0"
       d="m 86.74194,197.88081 c -5.435135,3.6904 0.421468,6.21976 2.462959,0.50023 z"
       id="path4314"
       sodipodi:nodetypes="ccc" /><path
       style="fill:#ab5b2d;fill-opacity:1;stroke:#dbaf85;stroke-width:3.45438;stroke-linecap:round;stroke-opacity:0"
       d="m 89.692889,140.08646 c -0.332957,2.11888 -0.665913,4.23775 -0.998869,6.35662 l 4.948935,0.61335 c -0.438556,-2.58312 -1.174208,-5.53111 -1.180479,-7.58332 z"
       id="path2742"
       sodipodi:nodetypes="ccccc" /><path
       style="fill:#bb6d40;fill-opacity:1;stroke:#dbaf85;stroke-width:2.69999;stroke-linecap:round;stroke-opacity:0"
       d="m 86.048198,134.73543 c -1.13912,-0.52454 -0.552466,0.91719 -0.314618,1.88771 1.006342,2.9458 3.000214,3.71903 5.033899,4.40467 2.211486,-0.45804 4.66868,-0.45538 5.269862,-3.93274 1.729906,-1.45612 0.679998,-2.96141 0.629237,-2.35964 0.656351,-7.93411 -10.548245,-15.1615 -10.61838,0 z"
       id="path2305"
       sodipodi:nodetypes="cccccc" /><path
       style="fill:#422b1d;fill-opacity:1;stroke:#dbaf85;stroke-width:2.69999;stroke-linecap:round;stroke-opacity:0"
       d="m 98.264345,127.3389 c -3.491671,-0.8768 -6.567696,-6.18717 -10.61838,-1.10117 -3.800557,1.91991 -1.195433,5.86261 -1.730401,9.83184 l 2.04502,-5.97776 c 2.760362,1.46904 4.834395,1.05068 6.7643,0.23596 l 1.573094,5.7418 c 0.299422,-1.80637 0.767767,-1.57498 0.629237,-7.86547 z"
       id="path1883"
       sodipodi:nodetypes="cccccccc" /><path
       style="fill:#ab5b2d;fill-opacity:1;stroke:#dbaf85;stroke-width:3.41739;stroke-linecap:round;stroke-opacity:0"
       d="m 70.116738,141.73766 c -1.528068,-1.27793 -0.746874,-3.57323 -4.950585,-2.72869 0.296273,1.29466 2.042743,0.50712 2.106633,1.69367 -0.842657,-0.0313 -2.425033,-0.53475 -2.527959,-0.0941 -0.06889,0.66795 2.226861,1.01445 3.581273,1.69366 0.132282,0.10359 0.491547,0.81547 0.73732,1.22321 z"
       id="path2632"
       sodipodi:nodetypes="ccccccc" /><path
       style="fill:url(#linearGradient7737);fill-opacity:1;stroke:url(#linearGradient5543);stroke-width:0.2;stroke-linecap:round;stroke-opacity:0.99588478;stroke-dasharray:none;stroke-dashoffset:0"
       d="m 69.13745,143.6234 c 2.66527,1.94731 5.72917,4.49961 8.29806,5.82045 2.50019,0.50998 5.45455,-0.0902 8.41605,-0.70789 0.0262,5.0339 0.8011,9.69346 0.0787,15.10169 3.51501,1.47706 6.71009,1.3545 9.59587,-0.31461 0.89007,-1.41579 0.58274,-2.83157 0.47193,-4.24736 l 0.47192,-14.70842 -2.43829,-1.25847 c -0.54745,-1.41842 -0.94344,-1.27162 -1.33713,-1.10117 0.25513,1.48889 -0.35036,2.83435 -1.02251,4.1687 -1.37368,-1.03988 -1.73461,-2.94781 -2.43829,-4.56197 -0.72757,0.1573 -1.36142,0.45877 -1.41579,1.65175 l -1.80905,0.23596 c -2.6579,0.64166 -5.76116,0.65981 -7.94413,1.96637 l -8.02277,-3.85408 z"
       id="path2744"
       sodipodi:nodetypes="cccccccccccccccc" /><path
       style="fill:url(#linearGradient7003);fill-opacity:1;stroke:url(#linearGradient5046);stroke-width:0.2;stroke-linecap:round;stroke-opacity:0.80508476;stroke-dasharray:none"
       d="m 96.194649,144.40996 c 1.792096,0.12124 2.820821,7.97417 2.398969,13.01734 -2.562219,1.99635 -5.335161,1.56938 -8.101431,1.21915 l -0.03933,-1.80906 c 1.978026,-0.4088 3.661015,-1.30933 5.938427,-1.21915 -0.679824,-3.73609 -0.132313,-7.47219 -0.196635,-11.20828 z"
       id="path2800"
       sodipodi:nodetypes="cccccc" /><path
       style="fill:#ab5b2d;fill-opacity:1;stroke:#7d5025;stroke-width:0;stroke-linecap:round;stroke-opacity:1;stroke-dasharray:none"
       d="m 90.408761,156.88824 c -0.52731,-1.28021 -2.840989,-2.95776 -1.74588,-1.19773 0.192049,0.30866 0.03806,0.71089 0.01548,0.84378 -4.714402,-3.26422 -1.981442,2.12161 -0.03933,2.0057 l 1.917207,0.0688 z"
       id="path2802"
       sodipodi:nodetypes="cscccc" /><path
       style="fill:#22224f;fill-opacity:1;stroke:#dbaf85;stroke-width:2.69999;stroke-linecap:round;stroke-opacity:0"
       d="m 86.362817,164.07362 c -0.953089,10.02311 -0.419492,23.0196 -0.629238,34.5294 2.022251,-0.82677 2.735877,-0.0326 3.539461,0.55058 l 1.17982,-30.43935 h 0.8652 l 3.932733,31.06859 c 0.996293,-0.76139 1.992585,-0.67033 2.988878,-0.39328 -0.917637,-12.00794 -1.583987,-24.51846 -2.752912,-36.02383 -2.614058,0.66322 -4.728556,1.826 -9.123942,0.70789 z"
       id="path4312"
       sodipodi:nodetypes="ccccccccc" /><text
       xml:space="preserve"
       style="font-weight:bold;font-size:6.35px;font-family:'Franklin Gothic Medium';-inkscape-font-specification:'Franklin Gothic Medium,  Bold';fill:#ffffff;fill-opacity:0.66525424;stroke:#000000;stroke-width:0.1;stroke-linecap:round;stroke-dasharray:none;stroke-dashoffset:0;stroke-opacity:0;font-style:normal;font-stretch:normal;font-variant:normal"
       x="41.156761"
       y="96.106598"
       id="text8050"><tspan
         sodipodi:role="line"
         id="tspan8048"
         style="fill:#ffffff;fill-opacity:0.66525424;stroke:#000000;stroke-width:0.1;stroke-opacity:0;-inkscape-font-specification:'Franklin Gothic Medium,  Bold';font-family:'Franklin Gothic Medium';font-weight:bold;font-style:normal;font-stretch:normal;font-variant:normal"
         x="41.156761"
         y="96.106598" /></text><text
       xml:space="preserve"
       style="font-weight:bold;font-size:6.35px;font-family:'Franklin Gothic Medium';-inkscape-font-specification:'Franklin Gothic Medium,  Bold';fill:#ffffff;fill-opacity:0.66525424;stroke:#000000;stroke-width:0.1;stroke-linecap:round;stroke-dasharray:none;stroke-dashoffset:0;stroke-opacity:0;font-style:normal;font-stretch:normal;font-variant:normal"
       x="34.705162"
       y="128.58707"
       id="text9248"><tspan
         sodipodi:role="line"
         id="tspan9246"
         style="stroke-width:0.1;fill:#ffffff;fill-opacity:0.66525424;-inkscape-font-specification:'Franklin Gothic Medium,  Bold';font-family:'Franklin Gothic Medium';font-weight:bold;font-style:normal;font-stretch:normal;font-variant:normal;stroke:#000000;stroke-opacity:0"
         x="34.705162"
         y="128.58707">blah. blah. blah</tspan></text><path
       style="fill:#f7f7f7;fill-opacity:1;stroke:#c1c1c1;stroke-width:0.0075844;stroke-linecap:round;stroke-dasharray:none;stroke-dashoffset:0;stroke-opacity:1"
       d="m 64.484774,139.75824 2.064111,1.48524 c 0.255416,-0.12761 0.316564,-0.38082 0.333928,-0.62986 l -2.071784,-1.49433 c -0.440514,0.0526 -0.493539,0.2199 -0.326227,0.63896 z"
       id="path11174"
       sodipodi:nodetypes="ccccc" /><path
       style="fill:#f7f7f7;fill-opacity:0;stroke:#c1c1c1;stroke-width:0.9;stroke-linecap:round;stroke-dasharray:none;stroke-dashoffset:0;stroke-opacity:0.77118647"
       d="m 33.034956,135.60063 -0.314618,11.64089 13.056674,-0.15731 z"
       id="path12472" /><path
       sodipodi:type="star"
       style="fill:#f7f7f7;fill-opacity:0;stroke:#c1c1c1;stroke-width:0.899999;stroke-linecap:round;stroke-dasharray:none;stroke-dashoffset:0;stroke-opacity:0.73305082"
       id="path12904"
       inkscape:flatsided="true"
       sodipodi:sides="3"
       sodipodi:cx="61.979874"
       sodipodi:cy="149.12924"
       sodipodi:r1="8.2553673"
       sodipodi:r2="4.1276836"
       sodipodi:arg1="2.6011732"
       sodipodi:arg2="3.6483707"
       inkscape:rounded="0.02"
       inkscape:randomized="0"
       d="m 54.900954,153.37659 c -0.147132,-0.24522 6.654131,-12.49674 6.940065,-12.50155 0.285934,-0.005 7.49543,12.01102 7.356628,12.26105 -0.138801,0.25003 -14.14956,0.48572 -14.296693,0.2405 z"
       inkscape:transform-center-x="-0.069239409"
       inkscape:transform-center-y="-1.9517"
       transform="translate(-1.4157839,2.8315678)" /><text
       xml:space="preserve"
       style="font-style:normal;font-variant:normal;font-weight:bold;font-stretch:normal;font-size:6.35px;font-family:'Franklin Gothic Medium';-inkscape-font-specification:'Franklin Gothic Medium,  Bold';fill:#285c2d;fill-opacity:1;stroke:#000000;stroke-width:0.1;stroke-linecap:round;stroke-dasharray:none;stroke-dashoffset:0;stroke-opacity:1"
       x="26.113348"
       y="109.17267"
       id="text12960"><tspan
         sodipodi:role="line"
         id="tspan12958"
         style="fill:#285c2d;fill-opacity:1;stroke:#000000;stroke-width:0.1;stroke-dasharray:none;stroke-opacity:1"
         x="26.113348"
         y="109.17267">Isosceles vs Equilateral Triangles</tspan></text><text
       xml:space="preserve"
       style="font-style:normal;font-variant:normal;font-weight:bold;font-stretch:normal;font-size:6.35px;font-family:'Franklin Gothic Medium';-inkscape-font-specification:'Franklin Gothic Medium,  Bold';fill:#285c2d;fill-opacity:1;stroke:#000000;stroke-width:0.1;stroke-linecap:round;stroke-dasharray:none;stroke-dashoffset:0;stroke-opacity:1"
       x="36.424774"
       y="103.01945"
       id="text12960-3"><tspan
         sodipodi:role="line"
         id="tspan12958-8"
         style="fill:#285c2d;fill-opacity:1;stroke:#000000;stroke-width:0.1;stroke-dasharray:none;stroke-opacity:1"
         x="36.424774"
         y="103.01945">The Curse of Knowledge</tspan></text></g></svg>
