<?xml version="1.0" encoding="UTF-8" standalone="no"?>
<!-- Created with Inkscape (http://www.inkscape.org/) -->

<svg
   width="210mm"
   height="297mm"
   viewBox="0 0 210 297"
   version="1.1"
   id="svg5"
   xml:space="preserve"
   inkscape:version="1.2 (dc2aedaf03, 2022-05-15)"
   sodipodi:docname="bias_group.svg"
   xmlns:inkscape="http://www.inkscape.org/namespaces/inkscape"
   xmlns:sodipodi="http://sodipodi.sourceforge.net/DTD/sodipodi-0.dtd"
   xmlns="http://www.w3.org/2000/svg"
   xmlns:svg="http://www.w3.org/2000/svg"><sodipodi:namedview
     id="namedview7"
     pagecolor="#ffffff"
     bordercolor="#000000"
     borderopacity="0.25"
     inkscape:showpageshadow="2"
     inkscape:pageopacity="0.0"
     inkscape:pagecheckerboard="0"
     inkscape:deskcolor="#d1d1d1"
     inkscape:document-units="mm"
     showgrid="false"
     inkscape:zoom="0.84096521"
     inkscape:cx="1.1891098"
     inkscape:cy="442.34886"
     inkscape:window-width="2400"
     inkscape:window-height="1494"
     inkscape:window-x="-11"
     inkscape:window-y="-11"
     inkscape:window-maximized="1"
     inkscape:current-layer="layer1" /><defs
     id="defs2"><marker
       style="overflow:visible"
       id="Arrow1"
       refX="0"
       refY="0"
       orient="auto-start-reverse"
       inkscape:stockid="Arrow1"
       markerWidth="4.0606604"
       markerHeight="6.7071066"
       viewBox="0 0 4.0606602 6.7071068"
       inkscape:isstock="true"
       inkscape:collect="always"
       preserveAspectRatio="xMidYMid"><path
         style="fill:none;stroke:context-stroke;stroke-width:1;stroke-linecap:butt"
         d="M 3,-3 0,0 3,3"
         id="path5057"
         transform="rotate(180,0.125,0)"
         sodipodi:nodetypes="ccc" /></marker></defs><g
     inkscape:label="Layer 1"
     inkscape:groupmode="layer"
     id="layer1"><rect
       style="fill:#ffffff;fill-opacity:1;stroke:#6d2e9b;stroke-width:0.887373;stroke-linecap:round;stroke-opacity:1"
       id="rect184-7"
       width="89.197762"
       height="51.473549"
       x="18.37089"
       y="138.01428"
       ry="0.9050442" /><path
       style="fill:#830b58;fill-opacity:1;stroke:#000000;stroke-width:0;stroke-linecap:round"
       d="m 30.561676,150.19437 c -0.85001,0.31682 -2.349227,0.38785 -2.669629,2.03003 -0.701081,0.75235 -2.282095,0.87408 -1.00111,2.69743 -2.15906,2.3868 0.442298,1.95671 0.08343,3.67074 -0.343447,0.46332 -0.440911,3.76861 2.641818,2.8921 1.325545,-2.87356 2.828191,-3.26769 3.976634,-8.62067 -0.131455,-0.63623 -0.09346,-0.88986 -1.22358,-1.91881 -0.837617,-0.63562 -0.06107,-0.85968 -1.807563,-0.75082 z"
       id="path2449"
       sodipodi:nodetypes="cccccccc" /><path
       style="fill:#e1b797;fill-opacity:1;stroke:#000000;stroke-width:0;stroke-linecap:round"
       d="m 29.922078,154.89402 c 0.564618,0.20926 0.576042,-0.45079 0.639598,-1.02892 l 0.611789,0.0278 c -0.03615,0.73285 0.349445,0.87526 0.667406,1.11235 l -0.111234,1.307 -1.501666,0.13905 z"
       id="path1812"
       sodipodi:nodetypes="ccccccc" /><path
       style="fill:#830b58;fill-opacity:1;stroke:#000000;stroke-width:0;stroke-linecap:round"
       d="m 61.623905,151.94631 c -0.635855,-0.0949 -2.00622,0.0141 -0.834257,-1.6129 -0.211693,-1.81188 0.411173,-1.56539 1.334814,-1.39043 0.567651,-0.79363 1.230935,-0.63092 1.946603,0.0556 1.003973,-0.67207 1.758014,-0.53187 2.169073,0.72302 0.826704,-0.0431 0.762378,0.65624 0.723024,1.33481 0.319372,0.4264 0.291435,0.8528 -0.278084,1.2792 0.411153,0.71914 0.06556,1.11395 -0.556171,1.39043 -0.06113,0.60628 -0.177601,1.15721 -1.112344,0.88988 -1.44805,-0.1405 -1.122561,-0.6357 -1.167963,-1.05673 z"
       id="path5260"
       sodipodi:nodetypes="ccccccccccc" /><path
       style="fill:#830b58;fill-opacity:1;stroke:#000000;stroke-width:0;stroke-linecap:round"
       d="m 93.63163,152.75276 c -0.170644,-0.67074 -0.578647,-1.31774 -0.05561,-2.05784 1.637954,-1.27469 1.874856,-0.25675 2.780861,-0.3337 1.346738,0.70448 0.279849,1.65924 0.500554,2.36373 -0.939383,1.74539 -0.803807,0.70847 -1.19577,1.02892 z"
       id="path4774"
       sodipodi:nodetypes="cccccc" /><path
       style="fill:#eeceb5;fill-opacity:1;stroke:#000000;stroke-width:0;stroke-linecap:round"
       d="m 33.47739,155.30362 c 0.523976,-0.40485 1.05301,-1.06689 1.484606,-1.7304 0.22912,-0.25939 0.31462,-2.38585 0.47193,-3.57878 0.399289,-0.21087 -0.125299,-2.18022 -0.393274,0 l -0.983184,3.26417 -1.297803,1.06183 z"
       id="path1809"
       sodipodi:nodetypes="ccccccc" /><path
       style="fill:#eeceb5;fill-opacity:1;stroke:#000000;stroke-width:0;stroke-linecap:round"
       d="m 28.728035,156.23992 c -3.556407,3.26544 -0.268723,4.33317 1.12141,5.51339 -0.906843,-1.73623 -2.671797,-1.80685 -0.707895,-4.56197 z"
       id="path1374"
       sodipodi:nodetypes="cccc" /><path
       style="fill:#524f7c;fill-opacity:1;stroke:#000000;stroke-width:0;stroke-linecap:round"
       d="m 29.298862,162.81514 c -0.923947,-0.005 -0.153433,4.89322 -0.235965,7.43287 -1.132965,3.1404 -0.199038,7.50215 -0.275291,10.83468 l 1.45511,-9.85149 c 0.490882,-2.37486 1.399395,-4.82098 1.179822,-7.00027 -0.106677,0.82831 0.0041,4.4726 0.550582,7.70816 -0.633016,1.62697 0.367199,5.49644 0.786545,8.25874 l 0.47193,-8.37672 c 0.08509,-2.7387 0.102353,-5.46609 -0.432602,-8.10144 z"
       id="path762"
       sodipodi:nodetypes="cccccccccc" /><path
       style="fill:#66629a;stroke:#000000;stroke-width:0;stroke-linecap:round"
       d="m 29.88877,154.8317 c -0.568098,0.73964 -1.256157,0.7835 -1.573093,1.61241 l 1.258477,1.14049 c -0.141869,2.64267 -1.058712,4.09306 -0.550585,5.78113 1.318375,1.01284 2.980051,0.87625 3.736097,0.5899 -0.531231,-0.38555 1.066325,1.95061 -0.235964,-5.58447 0.775807,-0.33995 0.09767,-1.22513 0.117983,-1.84839 l 0.943856,-1.14049 -0.865203,-1.25847 -0.865201,0.94385 c -0.982539,1.81843 -1.500139,0.94021 -1.966367,-0.23596 z"
       id="path664"
       sodipodi:nodetypes="ccccccccccc" /><path
       style="fill:#e1b797;fill-opacity:1;stroke:#000000;stroke-width:0;stroke-linecap:round"
       d="m 30.867569,150.97301 0.22247,0.22247"
       id="path2031" /><path
       style="fill:#eeceb5;fill-opacity:1;stroke:#000000;stroke-width:0;stroke-linecap:round"
       d="m 31.073748,154.6755 c -0.509504,0.0262 -1.092611,-1.03468 -1.262906,-1.83931 l 1.334815,-1.66852 c 0.702317,0.896 1.132952,2.24507 -0.07191,3.50783 z"
       id="path2033"
       sodipodi:nodetypes="cccc" /><path
       style="fill:#31276a;fill-opacity:1;stroke:#000000;stroke-width:0;stroke-linecap:round"
       d="m 28.649959,179.2933 -0.314618,0.82587 0.353945,1.25847 0.570249,-0.19663 -0.176975,-1.23881 0.01966,-0.6489 z"
       id="path3039"
       sodipodi:nodetypes="ccccccc" /><path
       style="fill:#31276a;fill-opacity:1;stroke:#000000;stroke-width:0;stroke-linecap:round"
       d="m 32.425384,179.41128 -0.432602,0.82587 1.730404,0.15731 0.2163,-0.27529 -1.042175,-0.78655 z"
       id="path4553"
       inkscape:transform-center-y="0.55058263" /><path
       style="fill:#cd9e7a;fill-opacity:1;stroke:#000000;stroke-width:0;stroke-linecap:round"
       d="m 95.956102,154.88481 c -0.564618,0.20926 -0.576042,-0.4508 -0.639598,-1.02892 l -0.611789,0.0278 c 0.03615,0.73285 -0.349445,0.87526 -0.667406,1.11235 l 0.111234,1.307 1.501666,0.13905 z"
       id="path1812-2"
       sodipodi:nodetypes="ccccccc" /><path
       style="fill:#e1be91;fill-opacity:1;stroke:#000000;stroke-width:0;stroke-linecap:round"
       d="m 92.40079,155.2944 c -0.523976,-0.40485 -1.05301,-1.06689 -1.484606,-1.7304 -0.22912,-0.25939 -0.31462,-2.38585 -0.47193,-3.57878 -0.399289,-0.21087 -0.0119,-2.8869 0.491592,-0.0787 0.52655,0.83243 0.724817,2.03918 0.884866,3.34283 l 1.297803,1.06182 z"
       id="path1809-9"
       sodipodi:nodetypes="ccccccc" /><path
       style="fill:#e1be91;fill-opacity:1;stroke:#000000;stroke-width:0;stroke-linecap:round"
       d="m 97.150145,156.23071 c 3.556405,3.26544 -0.426493,3.66576 -1.816626,4.84597 0.906843,-1.73623 3.500876,-1.8962 1.536974,-4.65132 z"
       id="path1374-8"
       sodipodi:nodetypes="cccc" /><path
       style="fill:#4f7c6a;fill-opacity:1;stroke:#000000;stroke-width:0;stroke-linecap:round"
       d="m 96.579318,162.80593 c 1.480515,1.97391 0.612218,5.93017 0.550584,7.43287 0.62171,3.17973 -0.115581,7.50215 -0.03933,10.83468 -0.830233,-3.15438 -1.458575,-6.38448 -1.45511,-9.8515 -0.490882,-2.37486 -1.399395,-4.82097 -1.179822,-7.00027 0.106677,0.82831 0.349846,4.39395 -0.196636,7.62951 0.27907,1.78428 -0.721145,5.57509 -1.140491,8.33739 l -0.47193,-8.37672 c -0.411993,-3.71941 -0.415255,-7.78125 0.90453,-8.06211 z"
       id="path762-5"
       sodipodi:nodetypes="cccccccccc" /><path
       style="fill:#629a62;stroke:#000000;stroke-width:0;stroke-linecap:round;fill-opacity:1"
       d="m 95.98941,154.82249 c 0.568098,0.73964 1.767412,1.45206 2.084348,2.28097 l -0.699919,0.28443 c -1.51174,2.08829 -0.227355,5.64717 -0.204609,7.0698 -1.318375,1.01284 -3.609289,0.44364 -4.365335,0.15729 -0.133274,-1.12396 0.831152,-2.50716 0.707892,-4.99456 0.04355,-0.33995 0.482039,-2.48361 -0.275292,-3.10686 l -0.943856,-1.14049 0.865203,-1.25847 0.865201,0.94385 c 0.982539,1.81843 1.500139,0.94021 1.966367,-0.23596 z"
       id="path664-4"
       sodipodi:nodetypes="ccccccccccc" /><path
       style="fill:#e1b797;fill-opacity:1;stroke:#000000;stroke-width:0;stroke-linecap:round"
       d="m 95.010611,150.96379 -0.22247,0.22247"
       id="path2031-8" /><path
       style="fill:#e1be91;fill-opacity:1;stroke:#000000;stroke-width:0;stroke-linecap:round"
       d="m 94.633562,154.3909 c 0.721235,0.0309 1.546659,-1.21941 1.787721,-2.16771 l -1.778172,-0.94675 c -0.994171,1.05598 -1.715104,1.62624 -0.0094,3.11446 z"
       id="path2033-1"
       sodipodi:nodetypes="cccc" /><path
       style="fill:#31276a;fill-opacity:1;stroke:#000000;stroke-width:0;stroke-linecap:round"
       d="m 97.228221,179.28408 0.314618,0.82587 -0.353945,1.25847 -0.570249,-0.19663 0.176975,-1.23881 -0.01966,-0.6489 z"
       id="path3039-2"
       sodipodi:nodetypes="ccccccc" /><path
       style="fill:#31276a;fill-opacity:1;stroke:#000000;stroke-width:0;stroke-linecap:round"
       d="m 93.452796,179.40207 0.432602,0.82587 -1.730404,0.15731 -0.2163,-0.2753 1.042175,-0.78655 z"
       id="path4553-0"
       inkscape:transform-center-y="0.55058263" /><path
       style="fill:#830b58;fill-opacity:1;stroke:#000000;stroke-width:0;stroke-linecap:round"
       d="m 96.384683,150.27779 c 0.122376,-1.4957 1.573985,-1.35715 1.751944,-0.55617 1.139476,-0.40269 1.713324,1.05568 1.001109,1.66852 0.921004,0.0851 0.77538,1.01426 0.61179,1.52947 0.535304,0.37327 0.849134,1.13167 0.361534,1.72413 0.57369,0.39859 0.53807,0.99184 0.47274,1.39044 -0.2731,0.5959 -0.47771,1.06335 -0.0278,2.25249 -0.33494,-0.70386 -1.247825,-1.00751 -1.028913,-2.00221 -0.689836,-0.10396 -0.695452,-1.10473 -0.361511,-1.50167 -0.784762,-0.27369 -0.748253,-0.96079 -0.500556,-1.52947 -0.801814,-0.25052 -0.825153,-1.17434 -0.389321,-1.64071 -0.268817,0.37524 -0.982571,-0.0656 -1.251388,-0.50056 z"
       id="path4777"
       sodipodi:nodetypes="ccccccccccccc" /><path
       style="fill:#7a4f2e;fill-opacity:1;stroke:#000000;stroke-width:0;stroke-linecap:round"
       d="m 63.893958,154.78875 c -0.564618,0.20926 -0.576042,-0.45079 -0.639598,-1.02892 l -0.611789,0.0278 c 0.03615,0.73285 -0.349445,0.87526 -0.667406,1.11235 l 0.111234,1.307 1.501666,0.13905 z"
       id="path1812-0"
       sodipodi:nodetypes="ccccccc" /><path
       style="fill:#b6845d;fill-opacity:1;stroke:#000000;stroke-width:0;stroke-linecap:round"
       d="m 60.338646,155.19835 c -0.523976,-0.40485 -1.05301,-1.06689 -1.484606,-1.7304 -0.320405,-0.26769 -1.669324,-2.509 -0.47193,-3.57878 -1.718245,-1.70393 0.180941,-2.79396 0.393274,0 l 0.983184,3.26417 1.297803,1.06183 z"
       id="path1809-7"
       sodipodi:nodetypes="ccccccc" /><path
       style="fill:#b6845d;fill-opacity:1;stroke:#000000;stroke-width:0;stroke-linecap:round"
       d="m 65.088001,156.13465 c 3.781792,5.85737 0.314901,4.86422 -1.12141,5.51339 0.906843,-1.73623 2.671797,-1.80685 0.707895,-4.56197 z"
       id="path1374-2"
       sodipodi:nodetypes="cccc" /><path
       style="fill:#524f7c;fill-opacity:1;stroke:#000000;stroke-width:0;stroke-linecap:round"
       d="m 64.628408,161.98685 c 1.286979,1.40558 0.598323,8.05689 0.180348,9.54632 1.500156,2.9568 0.143421,6.11172 0.219674,9.44425 -0.487855,-3.26551 -1.520441,-4.07481 -1.733196,-9.12847 -0.490882,-2.37486 -1.121309,-5.544 -0.901736,-7.72329 0.106869,0.82908 0.294154,5.66561 -0.550582,7.70816 0.763781,1.5477 -0.282588,5.53845 -0.786545,8.25874 -0.226456,-2.73297 -1.166277,-4.85449 -0.47193,-8.37672 -0.141315,-2.77564 -0.631581,-7.87792 0.376985,-9.60311 z"
       id="path762-56"
       sodipodi:nodetypes="cccccccccc" /><path
       style="fill:#66629a;stroke:#000000;stroke-width:0;stroke-linecap:round"
       d="m 63.927266,154.72643 c 0.568098,0.73964 1.256157,0.7835 1.573093,1.61241 l -1.258477,1.14049 c 0.141869,2.64267 1.058712,3.31442 0.550585,5.00249 -1.318375,1.01284 -3.035668,0.37569 -3.791714,0.0893 -0.191585,-1.10442 0.955861,-6.15472 1.237074,-3.86034 -1.479923,0.62724 -1.808079,-2.3908 -1.063476,-2.29332 l -0.943856,-1.14049 0.865203,-1.25847 0.865201,0.94385 c 0.982539,1.81843 1.500139,0.94021 1.966367,-0.23596 z"
       id="path664-7"
       sodipodi:nodetypes="cccccccccccc" /><path
       style="fill:#e1b797;fill-opacity:1;stroke:#000000;stroke-width:0;stroke-linecap:round"
       d="m 62.948467,150.86774 -0.22247,0.22247"
       id="path2031-1" /><path
       style="fill:#b6845d;fill-opacity:1;stroke:#000000;stroke-width:0;stroke-linecap:round"
       d="m 62.742288,154.57023 c 0.509504,0.0262 1.704401,-1.20153 1.874696,-2.00616 l -2.002222,-2.16908 c -0.702317,0.896 -1.077335,2.91248 0.127526,4.17524 z"
       id="path2033-5"
       sodipodi:nodetypes="cccc" /><path
       style="fill:#31276a;fill-opacity:1;stroke:#000000;stroke-width:0;stroke-linecap:round"
       d="m 65.166077,179.18803 0.314618,0.82587 -0.353945,1.25847 -0.570249,-0.19663 0.176975,-1.23881 -0.01966,-0.6489 z"
       id="path3039-1"
       sodipodi:nodetypes="ccccccc" /><path
       style="fill:#31276a;fill-opacity:1;stroke:#000000;stroke-width:0;stroke-linecap:round"
       d="m 61.390652,179.30601 0.432602,0.82587 -1.730404,0.15731 -0.2163,-0.27529 1.042175,-0.78655 z"
       id="path4553-06"
       inkscape:transform-center-y="0.55058263" /><path
       style="fill:#524f7c;fill-opacity:1;stroke:#5d3b74;stroke-width:1.28867;stroke-linecap:round;stroke-dasharray:none;marker-start:url(#Arrow1);stroke-opacity:1"
       d="m 39.589066,161.12494 15.676209,-0.0497"
       id="path5662" /></g></svg>
