<?xml version="1.0" encoding="UTF-8" standalone="no"?>
<!-- Created with Inkscape (http://www.inkscape.org/) -->

<svg
   width="210mm"
   height="297mm"
   viewBox="0 0 210 297"
   version="1.1"
   id="svg7442"
   xml:space="preserve"
   inkscape:version="1.2 (dc2aedaf03, 2022-05-15)"
   sodipodi:docname="bias_FC.svg"
   xmlns:inkscape="http://www.inkscape.org/namespaces/inkscape"
   xmlns:sodipodi="http://sodipodi.sourceforge.net/DTD/sodipodi-0.dtd"
   xmlns:xlink="http://www.w3.org/1999/xlink"
   xmlns="http://www.w3.org/2000/svg"
   xmlns:svg="http://www.w3.org/2000/svg"><sodipodi:namedview
     id="namedview7444"
     pagecolor="#ffffff"
     bordercolor="#000000"
     borderopacity="0.25"
     inkscape:showpageshadow="2"
     inkscape:pageopacity="0.0"
     inkscape:pagecheckerboard="0"
     inkscape:deskcolor="#d1d1d1"
     inkscape:document-units="mm"
     showgrid="false"
     inkscape:zoom="0.84096521"
     inkscape:cx="228.30909"
     inkscape:cy="438.18697"
     inkscape:window-width="1180"
     inkscape:window-height="1481"
     inkscape:window-x="1207"
     inkscape:window-y="0"
     inkscape:window-maximized="0"
     inkscape:current-layer="layer2" /><defs
     id="defs7439"><linearGradient
       inkscape:collect="always"
       id="linearGradient10163"><stop
         style="stop-color:#23b859;stop-opacity:1;"
         offset="0"
         id="stop10159" /><stop
         style="stop-color:#1a8e45;stop-opacity:1;"
         offset="1"
         id="stop10161" /></linearGradient><linearGradient
       inkscape:collect="always"
       id="linearGradient8620"><stop
         style="stop-color:#1ada5f;stop-opacity:1;"
         offset="0"
         id="stop8616" /><stop
         style="stop-color:#237640;stop-opacity:1;"
         offset="1"
         id="stop8618" /></linearGradient><linearGradient
       inkscape:collect="always"
       id="linearGradient8376"><stop
         style="stop-color:#3271db;stop-opacity:1;"
         offset="0"
         id="stop8372" /><stop
         style="stop-color:#1e3863;stop-opacity:1;"
         offset="1"
         id="stop8374" /></linearGradient><radialGradient
       inkscape:collect="always"
       xlink:href="#linearGradient8376"
       id="radialGradient8378"
       cx="128.92075"
       cy="122.19078"
       fx="128.92075"
       fy="122.19078"
       r="63.73738"
       gradientTransform="matrix(1,0,0,0.99301952,-3.9010584e-8,1.1313168)"
       gradientUnits="userSpaceOnUse" /><radialGradient
       inkscape:collect="always"
       xlink:href="#linearGradient8620"
       id="radialGradient8622"
       cx="127.50974"
       cy="141.64066"
       fx="127.50974"
       fy="141.64066"
       r="28.920968"
       gradientTransform="matrix(-2.5538061,1.2151173,-0.85894663,-1.8052441,578.55357,222.02892)"
       gradientUnits="userSpaceOnUse" /><radialGradient
       inkscape:collect="always"
       xlink:href="#linearGradient10163"
       id="radialGradient10167"
       cx="140.56749"
       cy="137.97775"
       fx="140.56749"
       fy="137.97775"
       r="24.678984"
       gradientTransform="matrix(-0.47472934,0.58180879,-0.91993643,-0.75062602,334.22976,145.98137)"
       gradientUnits="userSpaceOnUse" /></defs><g
     inkscape:label="Layer 1"
     inkscape:groupmode="layer"
     id="layer1"><path
       style="fill:url(#radialGradient8378);fill-opacity:1;stroke:#0b0b27;stroke-width:0;stroke-linecap:round"
       id="path7984"
       sodipodi:type="arc"
       sodipodi:cx="106.22894"
       sodipodi:cy="155.83952"
       sodipodi:rx="63.737362"
       sodipodi:ry="63.292419"
       sodipodi:start="0"
       sodipodi:end="6.2689379"
       sodipodi:open="true"
       sodipodi:arc-type="arc"
       d="M 169.9663,155.83952 A 63.737362,63.292419 0 0 1 106.45597,219.13154 63.737362,63.292419 0 0 1 42.493198,156.2904 63.737362,63.292419 0 0 1 105.54789,92.550717 63.737362,63.292419 0 0 1 169.95984,154.9378"
       inkscape:transform-center-x="0.88985878"
       inkscape:transform-center-y="-1.3347804" /><path
       style="fill:url(#radialGradient8622);fill-opacity:1;stroke:#0b0b27;stroke-width:0;stroke-linecap:round"
       d="m 54.727367,120.13325 c 11.355601,2.73146 12.99857,7.21321 7.786414,12.9032 -3.196501,4.13248 2.437374,10.37503 4.894318,18.46492 7.476822,6.99052 12.869252,1.51563 17.783864,3.77212 3.944314,1.81099 -0.394002,5.35124 4.907973,7.35133 -7.338059,1.75664 -17.451328,2.00549 -20.244678,10.01111 -2.5431,11.29354 8.059732,11.88831 10.011104,18.68739 4.934874,9.00393 1.47237,12.57643 5.339254,14.90542 l 5.784194,9.56616 c 7.050534,-0.6874 8.940946,-7.46886 11.56839,-14.23801 3.11456,-4.43737 5.33925,-4.30815 8.45382,-21.13455 -0.337,-5.58449 -2.41967,-10.95077 -5.11679,-16.24024 -3.49689,-2.30707 -9.319393,-1.6922 -13.348136,-2.66963 -2.23235,-4.00444 1.744913,-10.45604 3.337034,-14.46048 1.334812,0.92695 2.709851,3.62393 4.004435,2.78086 0.807907,0.19935 -0.812452,-8.38293 0.222477,-14.01554 1.84837,-4.6558 -0.359367,-6.60752 -0.889878,-9.6774 -1.854218,-5.56173 5.933588,-12.90321 3.559498,-16.68518 -5.014791,-5.89264 -0.93053,-10.875379 -0.6674,-16.240229 -6.509179,-3.550321 -38.713214,8.652309 -48.943175,27.363689"
       id="path8558"
       sodipodi:nodetypes="cccscccccccccccccccc" /><path
       style="fill:url(#radialGradient10167);fill-opacity:1;stroke:#0b0b27;stroke-width:0;stroke-linecap:round"
       d="m 156.84063,117.46362 c -7.93473,-0.003 -16.31439,-1.31256 -24.24912,2.8921 -0.83609,-2.64665 -3.54395,-4.54459 -7.34148,-6.00667 -1.89639,0.0209 -4.11619,-0.9285 -4.89431,2.44716 -0.28328,4.63435 2.84797,7.80532 6.67407,10.67851 l -2.00223,8.45382 c 3.2001,3.92754 6.74182,6.65942 11.12345,6.4516 l 10.23357,-2.00222 c 5.01196,-0.40112 4.62282,6.91362 5.7842,12.01333 -1.05087,4.23235 7.67038,-0.49307 13.12567,-2.22469 l 2.44716,5.33925 c -5.6679,3.5435 -7.03465,9.23757 -9.3437,14.46049 0.84523,7.76079 -3.12209,9.33402 -6.22913,12.01332 -3.95221,9.05698 -1.24989,12.29125 -0.88988,17.57505 5.31747,-2.36719 35.04552,-39.52829 5.56173,-82.09105 z"
       id="path8614"
       sodipodi:nodetypes="ccccccccccccccc" /></g><g
     inkscape:groupmode="layer"
     id="layer2"
     inkscape:label="people"><path
       style="fill:#e6dc42;fill-opacity:1;stroke:#541fa3;stroke-width:0;stroke-linecap:round;stroke-dasharray:none;stroke-opacity:1"
       id="path12277-7"
       sodipodi:type="arc"
       sodipodi:cx="170.26347"
       sodipodi:cy="0.40214047"
       sodipodi:rx="5.2280207"
       sodipodi:ry="5.0055518"
       sodipodi:start="0"
       sodipodi:end="6.2689379"
       sodipodi:open="true"
       sodipodi:arc-type="arc"
       d="m 175.49149,0.40214047 a 5.2280207,5.0055518 0 0 1 -5.2094,5.00552003 5.2280207,5.0055518 0 0 1 -5.2465,-4.96986227 5.2280207,5.0055518 0 0 1 5.17202,-5.04092383 5.2280207,5.0055518 0 0 1 5.28335,4.93395235"
       transform="rotate(31.393738)" /><path
       style="fill:#e6dc42;fill-opacity:1;stroke:#541fa3;stroke-width:0;stroke-linecap:round;stroke-dasharray:none;stroke-opacity:1"
       d="m 130.4561,97.642644 c 6.66316,-10.577111 20.71311,-1.485386 14.53358,8.792816 -4.24181,-1.58341 -8.65395,-3.54761 -14.53358,-8.792816 z"
       id="path12333-44"
       sodipodi:nodetypes="ccc" /><path
       style="fill:#e6dc42;fill-opacity:1;stroke:#541fa3;stroke-width:0;stroke-linecap:round;stroke-dasharray:none;stroke-opacity:1"
       id="path12277-68"
       sodipodi:type="arc"
       sodipodi:cx="-87.241493"
       sodipodi:cy="-246.3846"
       sodipodi:rx="5.2280207"
       sodipodi:ry="5.0055518"
       sodipodi:start="0"
       sodipodi:end="6.2689379"
       sodipodi:open="true"
       sodipodi:arc-type="arc"
       d="m -82.013473,-246.3846 a 5.2280207,5.0055518 0 0 1 -5.209399,5.00552 5.2280207,5.0055518 0 0 1 -5.246509,-4.96986 5.2280207,5.0055518 0 0 1 5.172025,-5.04092 5.2280207,5.0055518 0 0 1 5.283353,4.93395"
       transform="rotate(172.05968)" /><path
       style="fill:#e6dc42;fill-opacity:1;stroke:#541fa3;stroke-width:0;stroke-linecap:round;stroke-dasharray:none;stroke-opacity:1"
       d="m 126.3347,216.01389 c 1.55049,12.4044 -15.07935,14.27771 -16.81443,2.41109 4.28451,-1.46392 8.94213,-2.74127 16.81443,-2.41109 z"
       id="path12333-0"
       sodipodi:nodetypes="ccc" /><path
       style="fill:#e6dc42;fill-opacity:1;stroke:#541fa3;stroke-width:0;stroke-linecap:round;stroke-dasharray:none;stroke-opacity:1"
       id="path12277-4"
       sodipodi:type="arc"
       sodipodi:cx="-192.9082"
       sodipodi:cy="-67.717476"
       sodipodi:rx="5.2280207"
       sodipodi:ry="5.0055518"
       sodipodi:start="0"
       sodipodi:end="6.2689379"
       sodipodi:open="true"
       sodipodi:arc-type="arc"
       d="m -187.68018,-67.717476 a 5.2280207,5.0055518 0 0 1 -5.2094,5.00552 5.2280207,5.0055518 0 0 1 -5.24651,-4.969862 5.2280207,5.0055518 0 0 1 5.17202,-5.040924 5.2280207,5.0055518 0 0 1 5.28336,4.933952"
       transform="rotate(-121.48615)" /><path
       style="fill:#e6dc42;fill-opacity:1;stroke:#541fa3;stroke-width:0;stroke-linecap:round;stroke-dasharray:none;stroke-opacity:1"
       d="m 59.989965,198.90249 c -10.752217,6.37673 -19.112885,-8.12016 -8.927414,-14.45129 3.053626,3.34297 6.085261,7.10253 8.927414,14.45129 z"
       id="path12333-73"
       sodipodi:nodetypes="ccc" /><path
       style="fill:#e6dc42;fill-opacity:1;stroke:#541fa3;stroke-width:0;stroke-linecap:round;stroke-dasharray:none;stroke-opacity:1"
       id="path12277-43"
       sodipodi:type="arc"
       sodipodi:cx="-143.93373"
       sodipodi:cy="45.185394"
       sodipodi:rx="5.2280207"
       sodipodi:ry="5.0055518"
       sodipodi:start="0"
       sodipodi:end="6.2689379"
       sodipodi:open="true"
       sodipodi:arc-type="arc"
       d="m -138.70571,45.185394 a 5.2280207,5.0055518 0 0 1 -5.2094,5.00552 5.2280207,5.0055518 0 0 1 -5.24651,-4.969862 5.2280207,5.0055518 0 0 1 5.17203,-5.040924 5.2280207,5.0055518 0 0 1 5.28335,4.933953"
       transform="rotate(-83.331621)" /><path
       style="fill:#e6dc42;fill-opacity:1;stroke:#541fa3;stroke-width:0;stroke-linecap:round;stroke-dasharray:none;stroke-opacity:1"
       d="m 42.120202,157.93475 c -12.394426,-1.62822 -10.01286,-18.19291 1.907734,-16.87895 0.335974,4.51522 0.397298,9.34443 -1.907734,16.87895 z"
       id="path12333-3"
       sodipodi:nodetypes="ccc" /><path
       style="fill:#da755f;fill-opacity:1;stroke:#541fa3;stroke-width:0;stroke-linecap:round;stroke-dasharray:none;stroke-opacity:1"
       id="path12277-8"
       sodipodi:type="arc"
       sodipodi:cx="-89.805489"
       sodipodi:cy="85.75119"
       sodipodi:rx="5.2280207"
       sodipodi:ry="5.0055518"
       sodipodi:start="0"
       sodipodi:end="6.2689379"
       sodipodi:open="true"
       sodipodi:arc-type="arc"
       d="m -84.577468,85.75119 a 5.2280207,5.0055518 0 0 1 -5.209399,5.00552 5.2280207,5.0055518 0 0 1 -5.24651,-4.969862 5.2280207,5.0055518 0 0 1 5.172025,-5.040924 5.2280207,5.0055518 0 0 1 5.283353,4.933952"
       transform="rotate(-64.187266)" /><path
       style="fill:#da755f;fill-opacity:1;stroke:#541fa3;stroke-width:0;stroke-linecap:round;stroke-dasharray:none;stroke-opacity:1"
       d="m 48.083522,131.9497 c -11.174981,-5.60292 -3.492758,-20.47047 7.337669,-15.31983 -1.163372,4.3757 -2.689185,8.95794 -7.337669,15.31983 z"
       id="path12333-9"
       sodipodi:nodetypes="ccc" /><path
       style="fill:#da755f;fill-opacity:1;stroke:#541fa3;stroke-width:0;stroke-linecap:round;stroke-dasharray:none;stroke-opacity:1"
       id="path12277-04"
       sodipodi:type="arc"
       sodipodi:cx="153.82463"
       sodipodi:cy="-186.91653"
       sodipodi:rx="5.2280207"
       sodipodi:ry="5.0055518"
       sodipodi:start="0"
       sodipodi:end="6.2689379"
       sodipodi:open="true"
       sodipodi:arc-type="arc"
       d="m 159.05265,-186.91653 a 5.2280207,5.0055518 0 0 1 -5.2094,5.00552 5.2280207,5.0055518 0 0 1 -5.24651,-4.96987 5.2280207,5.0055518 0 0 1 5.17203,-5.04092 5.2280207,5.0055518 0 0 1 5.28335,4.93395"
       transform="rotate(90.942613)" /><path
       style="fill:#da755f;fill-opacity:1;stroke:#541fa3;stroke-width:0;stroke-linecap:round;stroke-dasharray:none;stroke-opacity:1"
       d="m 169.50534,148.59181 c 12.49504,0.38354 11.77797,17.10318 -0.21425,16.98506 -0.78477,-4.45917 -1.32758,-9.25817 0.21425,-16.98506 z"
       id="path12333-2"
       sodipodi:nodetypes="ccc" /><path
       style="fill:#da755f;fill-opacity:1;stroke:#541fa3;stroke-width:0;stroke-linecap:round;stroke-dasharray:none;stroke-opacity:1"
       id="path12277-6"
       sodipodi:type="arc"
       sodipodi:cx="18.303566"
       sodipodi:cy="-265.06146"
       sodipodi:rx="5.2280207"
       sodipodi:ry="5.0055518"
       sodipodi:start="0"
       sodipodi:end="6.2689379"
       sodipodi:open="true"
       sodipodi:arc-type="arc"
       d="m 23.531587,-265.06146 a 5.2280207,5.0055518 0 0 1 -5.2094,5.00552 5.2280207,5.0055518 0 0 1 -5.246509,-4.96986 5.2280207,5.0055518 0 0 1 5.172025,-5.04093 5.2280207,5.0055518 0 0 1 5.283353,4.93395"
       transform="rotate(139.97796)" /><path
       style="fill:#da755f;fill-opacity:1;stroke:#541fa3;stroke-width:0;stroke-linecap:round;stroke-dasharray:none;stroke-opacity:1"
       d="m 152.95803,198.10364 c 7.90204,9.68662 -5.19331,20.10644 -12.96613,10.97352 2.8527,-3.516 6.12063,-7.07208 12.96613,-10.97352 z"
       id="path12333-8"
       sodipodi:nodetypes="ccc" /><path
       style="fill:#da755f;fill-opacity:1;stroke:#541fa3;stroke-width:0;stroke-linecap:round;stroke-dasharray:none;stroke-opacity:1"
       id="path12277-6-8"
       sodipodi:type="arc"
       sodipodi:cx="-178.94913"
       sodipodi:cy="-139.68936"
       sodipodi:rx="5.2280207"
       sodipodi:ry="5.0055518"
       sodipodi:start="0"
       sodipodi:end="6.2689379"
       sodipodi:open="true"
       sodipodi:arc-type="arc"
       d="m -173.72111,-139.68936 a 5.2280207,5.0055518 0 0 1 -5.2094,5.00552 5.2280207,5.0055518 0 0 1 -5.24651,-4.96986 5.2280207,5.0055518 0 0 1 5.17203,-5.04093 5.2280207,5.0055518 0 0 1 5.28335,4.93395"
       transform="rotate(-143.68958)" /><path
       style="fill:#da755f;fill-opacity:1;stroke:#541fa3;stroke-width:0;stroke-linecap:round;stroke-dasharray:none;stroke-opacity:1"
       d="m 76.838729,211.21386 c -7.545171,9.96711 -20.764203,-0.29535 -13.726521,-10.00606 4.090496,1.94113 8.31805,4.27626 13.726521,10.00606 z"
       id="path12333-8-3"
       sodipodi:nodetypes="ccc" /><path
       style="fill:#5daac5;fill-opacity:1;stroke:#541fa3;stroke-width:0;stroke-linecap:round;stroke-dasharray:none;stroke-opacity:1"
       id="path12277-5"
       sodipodi:type="arc"
       sodipodi:cx="8.3075542"
       sodipodi:cy="111.69196"
       sodipodi:rx="5.2280207"
       sodipodi:ry="5.0055518"
       sodipodi:start="0"
       sodipodi:end="6.2689379"
       sodipodi:open="true"
       sodipodi:arc-type="arc"
       d="m 13.535575,111.69196 a 5.2280207,5.0055518 0 0 1 -5.2093994,5.00552 5.2280207,5.0055518 0 0 1 -5.2465094,-4.96986 5.2280207,5.0055518 0 0 1 5.1720248,-5.04092 5.2280207,5.0055518 0 0 1 5.283353,4.93395"
       transform="rotate(-30.225219)" /><path
       style="fill:#5daac5;fill-opacity:1;stroke:#541fa3;stroke-width:0;stroke-linecap:round;stroke-dasharray:none;stroke-opacity:1"
       d="m 64.001482,109.32573 c -6.138585,-10.889944 8.538777,-18.92958 14.644244,-8.60725 -3.409362,2.97933 -7.234723,5.92749 -14.644244,8.60725 z"
       id="path12333-4"
       sodipodi:nodetypes="ccc" /><path
       style="fill:#5daac5;fill-opacity:1;stroke:#541fa3;stroke-width:0;stroke-linecap:round;stroke-dasharray:none;stroke-opacity:1"
       id="path12277-1"
       sodipodi:type="arc"
       sodipodi:cx="91.261772"
       sodipodi:cy="-243.02937"
       sodipodi:rx="5.2280207"
       sodipodi:ry="5.0055518"
       sodipodi:start="0"
       sodipodi:end="6.2689379"
       sodipodi:open="true"
       sodipodi:arc-type="arc"
       d="m 96.489793,-243.02937 a 5.2280207,5.0055518 0 0 1 -5.209399,5.00552 5.2280207,5.0055518 0 0 1 -5.24651,-4.96987 5.2280207,5.0055518 0 0 1 5.172025,-5.04092 5.2280207,5.0055518 0 0 1 5.283353,4.93395"
       transform="rotate(117.28839)" /><path
       style="fill:#5daac5;fill-opacity:1;stroke:#541fa3;stroke-width:0;stroke-linecap:round;stroke-dasharray:none;stroke-opacity:1"
       d="m 164.50723,178.50798 c 11.02699,5.88885 2.96444,20.55363 -7.72975,15.12579 1.27567,-4.34429 2.91897,-8.88572 7.72975,-15.12579 z"
       id="path12333-5"
       sodipodi:nodetypes="ccc" /><path
       style="fill:#5daac5;fill-opacity:1;stroke:#541fa3;stroke-width:0;stroke-linecap:round;stroke-dasharray:none;stroke-opacity:1"
       id="path12277-9"
       sodipodi:type="arc"
       sodipodi:cx="-178.10477"
       sodipodi:cy="-10.038511"
       sodipodi:rx="5.2280207"
       sodipodi:ry="5.0055518"
       sodipodi:start="0"
       sodipodi:end="6.2689379"
       sodipodi:open="true"
       sodipodi:arc-type="arc"
       d="m -172.87675,-10.038511 a 5.2280207,5.0055518 0 0 1 -5.2094,5.0055198 5.2280207,5.0055518 0 0 1 -5.2465,-4.9698628 5.2280207,5.0055518 0 0 1 5.17202,-5.040923 5.2280207,5.0055518 0 0 1 5.28335,4.933952"
       transform="rotate(-103.32198)" /><path
       style="fill:#5daac5;fill-opacity:1;stroke:#541fa3;stroke-width:0;stroke-linecap:round;stroke-dasharray:none;stroke-opacity:1"
       d="m 47.710301,179.9963 c -12.204288,2.70705 -15.62905,-13.67378 -3.977481,-16.51418 1.859318,4.12832 3.567868,8.64562 3.977481,16.51418 z"
       id="path12333-7"
       sodipodi:nodetypes="ccc" /><path
       style="fill:#541fa3;fill-opacity:1;stroke:#541fa3;stroke-width:0.162839;stroke-linecap:round;stroke-dasharray:none;stroke-opacity:1"
       id="path12277-0"
       sodipodi:type="arc"
       sodipodi:cx="104.41328"
       sodipodi:cy="81.047516"
       sodipodi:rx="4.2809591"
       sodipodi:ry="4.0523357"
       sodipodi:start="0"
       sodipodi:end="6.2689379"
       sodipodi:open="true"
       sodipodi:arc-type="arc"
       d="m 108.69424,81.047516 a 4.2809591,4.0523357 0 0 1 -4.26572,4.05231 4.2809591,4.0523357 0 0 1 -4.29609,-4.023443 4.2809591,4.0523357 0 0 1 4.2351,-4.080972 4.2809591,4.0523357 0 0 1 4.32627,3.994372" /><path
       style="fill:#541fa3;fill-opacity:1;stroke:#541fa3;stroke-width:0.162839;stroke-linecap:round;stroke-dasharray:none;stroke-opacity:1"
       d="m 97.828548,93.182675 c 0.145702,-10.119321 13.844372,-9.761561 13.909212,-0.05275 -3.64032,0.694625 -7.56214,1.197922 -13.909212,0.05275 z"
       id="path12333-6"
       sodipodi:nodetypes="ccc" /><path
       style="fill:#541fa3;fill-opacity:1;stroke:#541fa3;stroke-width:0.162839;stroke-linecap:round;stroke-dasharray:none;stroke-opacity:1"
       id="path12277-0-4"
       sodipodi:type="arc"
       sodipodi:cx="189.89639"
       sodipodi:cy="-89.624306"
       sodipodi:rx="4.2809591"
       sodipodi:ry="4.0523357"
       sodipodi:start="0"
       sodipodi:end="6.2689379"
       sodipodi:open="true"
       sodipodi:arc-type="arc"
       d="m 194.17735,-89.624306 a 4.2809591,4.0523357 0 0 1 -4.26571,4.05231 4.2809591,4.0523357 0 0 1 -4.2961,-4.023442 4.2809591,4.0523357 0 0 1 4.23511,-4.080972 4.2809591,4.0523357 0 0 1 4.32627,3.994371"
       transform="rotate(60.115914)" /><path
       style="fill:#541fa3;fill-opacity:1;stroke:#541fa3;stroke-width:0.162839;stroke-linecap:round;stroke-dasharray:none;stroke-opacity:1"
       d="m 158.52029,120.32892 c 8.8464,-4.91559 15.36153,7.1399 6.97592,12.03352 -2.41604,-2.8102 -4.80646,-5.95978 -6.97592,-12.03352 z"
       id="path12333-6-0"
       sodipodi:nodetypes="ccc" /><path
       style="fill:#541fa3;fill-opacity:1;stroke:#541fa3;stroke-width:0.162839;stroke-linecap:round;stroke-dasharray:none;stroke-opacity:1"
       id="path12277-0-7"
       sodipodi:type="arc"
       sodipodi:cx="-149.3864"
       sodipodi:cy="-191.4664"
       sodipodi:rx="4.2809591"
       sodipodi:ry="4.0523357"
       sodipodi:start="0"
       sodipodi:end="6.2689379"
       sodipodi:open="true"
       sodipodi:arc-type="arc"
       d="m -145.10544,-191.4664 a 4.2809591,4.0523357 0 0 1 -4.26571,4.05231 4.2809591,4.0523357 0 0 1 -4.2961,-4.02344 4.2809591,4.0523357 0 0 1 4.23511,-4.08097 4.2809591,4.0523357 0 0 1 4.32627,3.99437"
       transform="rotate(-162.72986)" /><path
       style="fill:#541fa3;fill-opacity:1;stroke:#541fa3;stroke-width:0.162839;stroke-linecap:round;stroke-dasharray:none;stroke-opacity:1"
       d="m 95.699902,217.55051 c -3.14333,9.61984 -16.118193,5.21138 -13.297799,-4.07892 3.682418,0.41743 7.576843,1.10111 13.297799,4.07892 z"
       id="path12333-6-9"
       sodipodi:nodetypes="ccc" /><text
       xml:space="preserve"
       style="font-weight:bold;font-size:11.4749px;font-family:'Franklin Gothic Medium';-inkscape-font-specification:'Franklin Gothic Medium,  Bold';text-align:center;text-anchor:middle;fill:#000000;fill-opacity:1;stroke:#541fa3;stroke-width:0;stroke-linecap:round;stroke-dasharray:none;stroke-opacity:1"
       x="150.0426"
       y="44.104504"
       id="text12751"
       transform="scale(0.71517579,1.3982576)"><tspan
         sodipodi:role="line"
         id="tspan12749"
         style="fill:#000000;fill-opacity:1;stroke-width:0"
         x="150.0426"
         y="44.104504">I'm Purple, Everyone is purple</tspan></text><path
       style="fill:#000000;fill-opacity:0;stroke:#471a8a;stroke-width:1.3;stroke-linecap:round;stroke-dasharray:none;stroke-opacity:1"
       d="M 56.474047,64.65413 104.92531,75.193856 157.93856,64.65413"
       id="path12963"
       sodipodi:nodetypes="ccc" /></g></svg>
