<?xml version="1.0" encoding="UTF-8" standalone="no"?>
<!-- Created with Inkscape (http://www.inkscape.org/) -->

<svg
   width="210mm"
   height="297mm"
   viewBox="0 0 210 297"
   version="1.1"
   id="svg5"
   inkscape:version="1.2 (dc2aedaf03, 2022-05-15)"
   sodipodi:docname="Space_putty.svg"
   xmlns:inkscape="http://www.inkscape.org/namespaces/inkscape"
   xmlns:sodipodi="http://sodipodi.sourceforge.net/DTD/sodipodi-0.dtd"
   xmlns:xlink="http://www.w3.org/1999/xlink"
   xmlns="http://www.w3.org/2000/svg"
   xmlns:svg="http://www.w3.org/2000/svg">
  <sodipodi:namedview
     id="namedview7"
     pagecolor="#ffffff"
     bordercolor="#000000"
     borderopacity="0.25"
     inkscape:showpageshadow="2"
     inkscape:pageopacity="0.0"
     inkscape:pagecheckerboard="0"
     inkscape:deskcolor="#d1d1d1"
     inkscape:document-units="mm"
     showgrid="false"
     inkscape:zoom="1.1893044"
     inkscape:cx="284.62015"
     inkscape:cy="417.89133"
     inkscape:window-width="2400"
     inkscape:window-height="1494"
     inkscape:window-x="-11"
     inkscape:window-y="-11"
     inkscape:window-maximized="1"
     inkscape:current-layer="layer1" />
  <defs
     id="defs2">
    <linearGradient
       inkscape:collect="always"
       id="linearGradient2873">
      <stop
         style="stop-color:#142547;stop-opacity:1;"
         offset="0"
         id="stop2869" />
      <stop
         style="stop-color:#0e1b32;stop-opacity:1;"
         offset="1"
         id="stop2871" />
    </linearGradient>
    <marker
       style="overflow:visible"
       id="Arrow4"
       refX="0"
       refY="0"
       orient="auto-start-reverse"
       inkscape:stockid="Arrow4"
       markerWidth="5"
       markerHeight="6"
       viewBox="0 0 5 6"
       inkscape:isstock="true"
       inkscape:collect="always"
       preserveAspectRatio="xMidYMid">
      <path
         style="fill:context-stroke;fill-rule:evenodd;stroke:none"
         d="m 1,0 -3,3 h -2 l 3,-3 -3,-3 h 2 z"
         id="path1741" />
    </marker>
    <radialGradient
       inkscape:collect="always"
       xlink:href="#linearGradient2873"
       id="radialGradient2875"
       cx="87.096606"
       cy="88.765118"
       fx="87.096606"
       fy="88.765118"
       r="84.686479"
       gradientTransform="matrix(1,0,0,0.6440453,0,31.596361)"
       gradientUnits="userSpaceOnUse" />
  </defs>
  <g
     inkscape:label="Layer 1"
     inkscape:groupmode="layer"
     id="layer1">
    <rect
       style="fill:url(#radialGradient2875);fill-opacity:1;fill-rule:evenodd;stroke:#000000;stroke-width:0.518999;stroke-linecap:square;stroke-dasharray:none;stroke-opacity:1"
       id="rect1628"
       width="168.85396"
       height="108.56486"
       x="2.6696274"
       y="34.482689" />
    <path
       style="fill:#cad4e7;fill-rule:evenodd;stroke:#001de7;stroke-width:0.252166;stroke-linecap:square;stroke-opacity:1"
       d="m 12.415326,90.474179 c 0.01781,-6.859749 4.127584,-8.521059 7.772904,-10.772413 5.819023,-3.648368 11.37145,-4.993683 16.252438,-0.53862 7.156616,-0.01078 5.849416,6.595333 7.41959,10.951954 2.63088,5.834361 3.059454,10.95655 -4.59308,13.46551 -4.823833,2.97409 -9.402098,5.01225 -12.365985,0.8977 -11.040002,2.62852 -9.489416,-0.22699 -11.306042,-1.61586 -2.705502,-3.920367 -7.563798,-7.567251 -3.179825,-12.388271 z"
       id="path452"
       sodipodi:nodetypes="cccccccc" />
    <path
       style="fill:#cad4e7;fill-rule:evenodd;stroke:#0005bb;stroke-width:0.305996;stroke-linecap:square;stroke-opacity:1"
       d="m 103.47638,91.978518 c 0.0214,-8.401707 4.96246,-10.436452 9.3451,-13.193873 6.99601,-4.468461 13.6715,-6.11618 19.53975,-0.659693 8.60414,-0.0132 7.03254,8.077855 8.92031,13.413772 3.16302,7.145828 3.67827,13.419406 -5.5221,16.492336 -5.79953,3.64262 -11.30382,6.13893 -14.8672,1.09949 -13.27301,3.21937 -11.40879,-0.27802 -13.59286,-1.97908 -3.25273,-4.8016 -9.093696,-9.268245 -3.823,-15.172952 z"
       id="path452-4"
       sodipodi:nodetypes="cccccccc"
       inkscape:transform-center-x="104.84737"
       inkscape:transform-center-y="5.1779472" />
    <text
       xml:space="preserve"
       style="font-weight:bold;font-size:11.9888px;font-family:'Courier New';-inkscape-font-specification:'Courier New, Bold';text-align:center;letter-spacing:-2.08227085px;text-anchor:middle;fill:#cad4e7;fill-rule:evenodd;stroke:#5c0034;stroke-width:0.594723;stroke-linecap:square;stroke-opacity:0"
       x="31.445684"
       y="84.941887"
       id="text574"
       transform="scale(0.88463758,1.1304064)"><tspan
         sodipodi:role="line"
         id="tspan572"
         style="font-size:11.9888px;fill:#000000;fill-opacity:1;stroke:#5c0034;stroke-width:0.594723;stroke-opacity:0"
         x="31.128481"
         y="84.941887">2 kg</tspan></text>
    <text
       xml:space="preserve"
       style="font-weight:bold;font-size:11.9888px;font-family:'Courier New';-inkscape-font-specification:'Courier New, Bold';text-align:center;letter-spacing:-2.08227px;text-anchor:middle;fill:#cad4e7;fill-rule:evenodd;stroke:#000000;stroke-width:0.594723;stroke-linecap:square;stroke-opacity:0"
       x="139.28476"
       y="86.470009"
       id="text574-1"
       transform="scale(0.88463759,1.1304064)"><tspan
         sodipodi:role="line"
         id="tspan572-2"
         style="font-size:11.9888px;fill:#000000;fill-opacity:1;stroke:#000000;stroke-width:0.594723;stroke-opacity:0"
         x="138.24362"
         y="86.470009">3 kg</tspan></text>
    <path
       style="fill:#000000;fill-opacity:1;fill-rule:evenodd;stroke:#000000;stroke-width:2.16506;stroke-linecap:square;stroke-dasharray:none;stroke-opacity:1;marker-start:url(#Arrow4)"
       d="m 94.764824,94.318565 -41.89811,0.01574"
       id="path1314" />
    <text
       xml:space="preserve"
       style="font-weight:bold;font-size:10.4915px;font-family:'Courier New';-inkscape-font-specification:'Courier New, Bold';text-align:center;text-anchor:middle;fill:#bd2e35;fill-opacity:0.93004113;fill-rule:evenodd;stroke:#b32323;stroke-width:0.415687;stroke-linecap:square;stroke-dasharray:none;stroke-opacity:1"
       x="89.353203"
       y="69.29583"
       id="text1574"
       transform="scale(0.78808056,1.2689058)"><tspan
         sodipodi:role="line"
         id="tspan1572"
         style="stroke-width:0.415687;stroke-dasharray:none;fill:#bd2e35;fill-opacity:0.93004113;stroke:#b32323;stroke-opacity:1"
         x="89.353203"
         y="69.29583">5 m/s</tspan></text>
    <path
       style="fill:#fafc77;fill-opacity:0.930041;fill-rule:evenodd;stroke:#f9e724;stroke-width:0.24133;stroke-linecap:square;stroke-dasharray:none;stroke-opacity:1"
       d="m 15.512093,41.429697 c -0.630542,4.6184 -3.157409,5.547167 -5.416186,6.04584 4.353797,-0.230617 5.478672,1.681613 5.309985,4.937439 1.03982,-1.892808 -0.167762,-5.180285 5.203787,-5.138968 -3.540585,-0.640641 -4.947177,-3.327286 -5.097586,-5.844311 z"
       id="path3303-8"
       sodipodi:nodetypes="ccccc" />
    <path
       style="fill:#fafc77;fill-opacity:0.930041;fill-rule:evenodd;stroke:#f9e724;stroke-width:0.24133;stroke-linecap:square;stroke-dasharray:none;stroke-opacity:1"
       d="m 41.095856,57.668662 c -0.630542,4.6184 -3.157409,5.547167 -5.416186,6.04584 4.353797,-0.230617 5.478672,1.681613 5.309985,4.937439 1.03982,-1.892808 -0.167762,-5.180285 5.203787,-5.138968 -3.540585,-0.640641 -4.947177,-3.327286 -5.097586,-5.844311 z"
       id="path3303-8-0"
       sodipodi:nodetypes="ccccc" />
    <path
       style="fill:#fafc77;fill-opacity:0.930041;fill-rule:evenodd;stroke:#f9e724;stroke-width:0.176126;stroke-linecap:square;stroke-dasharray:none;stroke-opacity:1"
       d="m 62.068083,46.985083 c -0.431147,3.597531 -2.158947,4.320999 -3.703435,4.709444 2.977004,-0.179641 3.746161,1.309903 3.630818,3.846048 0.710999,-1.474414 -0.114711,-4.035215 3.558202,-4.00303 -2.420952,-0.499032 -3.382739,-2.59181 -3.485585,-4.552462 z"
       id="path3303-8-0-3"
       sodipodi:nodetypes="ccccc" />
    <path
       style="fill:#fafc77;fill-opacity:0.930041;fill-rule:evenodd;stroke:#f9e724;stroke-width:0.176126;stroke-linecap:square;stroke-dasharray:none;stroke-opacity:1"
       d="m 13.236445,59.334495 c -0.431147,3.597531 -2.158947,4.320999 -3.703435,4.709444 2.977004,-0.179641 3.746161,1.309903 3.630818,3.846048 0.710999,-1.474414 -0.114711,-4.035215 3.558202,-4.00303 -2.420952,-0.499032 -3.382739,-2.59181 -3.485585,-4.552462 z"
       id="path3303-8-0-3-6"
       sodipodi:nodetypes="ccccc" />
    <path
       style="fill:#fafc77;fill-opacity:0.930041;fill-rule:evenodd;stroke:#f9e724;stroke-width:0.176126;stroke-linecap:square;stroke-dasharray:none;stroke-opacity:1"
       d="m 132.92475,40.647101 c -0.43114,3.597531 -2.15894,4.320999 -3.70343,4.709444 2.977,-0.179641 3.74616,1.309903 3.63082,3.846048 0.711,-1.474414 -0.11471,-4.035215 3.5582,-4.00303 -2.42095,-0.499032 -3.38274,-2.59181 -3.48559,-4.552462 z"
       id="path3303-8-0-3-7"
       sodipodi:nodetypes="ccccc" />
    <path
       style="fill:#fafc77;fill-opacity:0.930041;fill-rule:evenodd;stroke:#f9e724;stroke-width:0.176126;stroke-linecap:square;stroke-dasharray:none;stroke-opacity:1"
       d="m 158.28622,68.233254 c -0.43115,3.597531 -2.15895,4.320999 -3.70344,4.709444 2.97701,-0.179641 3.74616,1.309903 3.63082,3.846048 0.711,-1.474414 -0.11471,-4.035215 3.5582,-4.00303 -2.42095,-0.499032 -3.38274,-2.59181 -3.48558,-4.552462 z"
       id="path3303-8-0-3-2"
       sodipodi:nodetypes="ccccc" />
    <path
       style="fill:#fafc77;fill-opacity:0.930041;fill-rule:evenodd;stroke:#f9e724;stroke-width:0.176126;stroke-linecap:square;stroke-dasharray:none;stroke-opacity:1"
       d="m 133.36969,120.291 c -0.43114,3.59753 -2.15894,4.32099 -3.70343,4.70944 2.977,-0.17964 3.74616,1.3099 3.63082,3.84605 0.71099,-1.47442 -0.11472,-4.03522 3.5582,-4.00303 -2.42095,-0.49903 -3.38274,-2.59181 -3.48559,-4.55246 z"
       id="path3303-8-0-3-3"
       sodipodi:nodetypes="ccccc" />
    <path
       style="fill:#fafc77;fill-opacity:0.930041;fill-rule:evenodd;stroke:#f9e724;stroke-width:0.176126;stroke-linecap:square;stroke-dasharray:none;stroke-opacity:1"
       d="m 71.078379,107.83273 c -0.431147,3.59753 -2.158947,4.321 -3.703435,4.70945 2.977004,-0.17964 3.746161,1.3099 3.630818,3.84604 0.710999,-1.47441 -0.114711,-4.03521 3.558202,-4.00303 -2.420952,-0.49903 -3.382739,-2.59181 -3.485585,-4.55246 z"
       id="path3303-8-0-3-8"
       sodipodi:nodetypes="ccccc" />
    <path
       style="fill:#fafc77;fill-opacity:0.930041;fill-rule:evenodd;stroke:#f9e724;stroke-width:0.176126;stroke-linecap:square;stroke-dasharray:none;stroke-opacity:1"
       d="m 17.908293,129.18975 c -0.431147,3.59753 -2.158947,4.321 -3.703435,4.70945 2.977004,-0.17964 3.746161,1.3099 3.630818,3.84605 0.710999,-1.47442 -0.114711,-4.03522 3.558202,-4.00303 -2.420952,-0.49904 -3.382739,-2.59181 -3.485585,-4.55247 z"
       id="path3303-8-0-3-0"
       sodipodi:nodetypes="ccccc" />
    <path
       style="fill:#fafc77;fill-opacity:0.930041;fill-rule:evenodd;stroke:#f9e724;stroke-width:0.176126;stroke-linecap:square;stroke-dasharray:none;stroke-opacity:1"
       d="m 43.937164,114.5068 c -0.431147,3.59753 -2.158947,4.321 -3.703435,4.70945 2.977004,-0.17964 3.746161,1.3099 3.630818,3.84604 0.710999,-1.47441 -0.114711,-4.03521 3.558202,-4.00303 -2.420952,-0.49903 -3.382739,-2.59181 -3.485585,-4.55246 z"
       id="path3303-8-0-3-5"
       sodipodi:nodetypes="ccccc" />
    <path
       style="fill:#fafc77;fill-opacity:0.930041;fill-rule:evenodd;stroke:#f9e724;stroke-width:0.24133;stroke-linecap:square;stroke-dasharray:none;stroke-opacity:1"
       d="m 160.56169,40.76102 c -0.63054,4.6184 -3.15741,5.547167 -5.41618,6.04584 4.35379,-0.230617 5.47867,1.681613 5.30998,4.937439 1.03982,-1.892808 -0.16776,-5.180285 5.20379,-5.138968 -3.54059,-0.640641 -4.94718,-3.327286 -5.09759,-5.844311 z"
       id="path3303-8-07"
       sodipodi:nodetypes="ccccc" />
    <path
       style="fill:#fafc77;fill-opacity:0.930041;fill-rule:evenodd;stroke:#f9e724;stroke-width:0.24133;stroke-linecap:square;stroke-dasharray:none;stroke-opacity:1"
       d="m 157.6696,121.9622 c -0.63054,4.6184 -3.15741,5.54716 -5.41618,6.04584 4.35379,-0.23062 5.47867,1.68161 5.30998,4.93744 1.03982,-1.89281 -0.16776,-5.18029 5.20379,-5.13897 -3.54059,-0.64064 -4.94718,-3.32729 -5.09759,-5.84431 z"
       id="path3303-8-3"
       sodipodi:nodetypes="ccccc" />
    <path
       style="fill:#fafc77;fill-opacity:0.930041;fill-rule:evenodd;stroke:#f9e724;stroke-width:0.24133;stroke-linecap:square;stroke-dasharray:none;stroke-opacity:1"
       d="m 106.7242,48.992372 c -0.63054,4.6184 -3.1574,5.547167 -5.41618,6.04584 4.35379,-0.230617 5.47867,1.681613 5.30998,4.937439 1.03982,-1.892808 -0.16776,-5.180285 5.20379,-5.138968 -3.54058,-0.640641 -4.94718,-3.327286 -5.09759,-5.844311 z"
       id="path3303-8-7"
       sodipodi:nodetypes="ccccc" />
    <path
       style="fill:#fafc77;fill-opacity:0.930041;fill-rule:evenodd;stroke:#f9e724;stroke-width:0.24133;stroke-linecap:square;stroke-dasharray:none;stroke-opacity:1"
       d="m 52.441774,124.63182 c -0.630542,4.6184 -3.157409,5.54717 -5.416186,6.04584 4.353797,-0.23061 5.478672,1.68162 5.309985,4.93744 1.03982,-1.89281 -0.167762,-5.18028 5.203787,-5.13897 -3.540585,-0.64064 -4.947177,-3.32728 -5.097586,-5.84431 z"
       id="path3303-8-2"
       sodipodi:nodetypes="ccccc" />
    <path
       style="fill:#fafc77;fill-opacity:0.930041;fill-rule:evenodd;stroke:#f9e724;stroke-width:0.24133;stroke-linecap:square;stroke-dasharray:none;stroke-opacity:1"
       d="m 98.93779,123.07454 c -0.630542,4.6184 -3.157409,5.54717 -5.416186,6.04584 4.353797,-0.23062 5.478672,1.68161 5.309985,4.93744 1.03982,-1.89281 -0.167762,-5.18029 5.203791,-5.13897 -3.54059,-0.64064 -4.947181,-3.32728 -5.09759,-5.84431 z"
       id="path3303-8-8"
       sodipodi:nodetypes="ccccc" />
    <path
       style="fill:#fafc77;fill-opacity:0.930041;fill-rule:evenodd;stroke:#f9e724;stroke-width:0.24133;stroke-linecap:square;stroke-dasharray:none;stroke-opacity:1"
       d="m 13.064765,114.17578 c -0.630542,4.6184 -3.1574091,5.54717 -5.4161861,6.04584 4.3537971,-0.23062 5.4786721,1.68161 5.3099851,4.93744 1.03982,-1.89281 -0.167762,-5.18028 5.203787,-5.13897 -3.540585,-0.64064 -4.947177,-3.32728 -5.097586,-5.84431 z"
       id="path3303-8-4"
       sodipodi:nodetypes="ccccc" />
  </g>
</svg>
