<?xml version="1.0" encoding="UTF-8"?><svg id="Layer_1" xmlns="http://www.w3.org/2000/svg" viewBox="0 0 1080 576"><defs><style>.cls-1,.cls-2,.cls-3,.cls-4,.cls-5,.cls-6{stroke-miterlimit:10;}.cls-1,.cls-7,.cls-3,.cls-5,.cls-6{fill:#c2c1c0;}.cls-1,.cls-3,.cls-5,.cls-6{stroke:#fff;}.cls-1,.cls-4{stroke-width:5px;}.cls-2,.cls-4{fill:none;stroke:#005c95;}.cls-2,.cls-6{stroke-width:3px;}.cls-8{fill:#005c95;}.cls-3{stroke-width:4px;}</style></defs><path class="cls-7" d="m1041.91,536.89h-431.89c-5.98,0-7.53-8.28-1.95-10.44,250.8-9.92,368.69-108.85,431.89-296.52,3.54-1.37,7.35,1.24,7.35,5.04v296.52c0,2.98-2.42,5.4-5.4,5.4Z"/><path class="cls-7" d="m785.35,387.74l-63.56-4.74c-3.48-.49-3.75-7.06-3.35-9.96h0c.4-2.89,3.56-4.84,7.04-4.36l61.34,8.58c3.48.49,5.98,3.23,5.57,6.12h0c-.4,2.89-3.56,4.84-7.04,4.36Z"/><path class="cls-7" d="m715.55,431.86l-3.14,37.23c-.39,4.59-4.42,7.99-9.01,7.6l-1.7-.14c-4.59-.39-7.33-4.6-6.95-9.19l2.49-37.05c.39-4.59,4.42-7.99,9.01-7.6l1.7.14c4.59.39,7.99,4.42,7.6,9.01Z"/><rect class="cls-7" x="670.61" y="474.49" width="48.88" height="16.67" rx="8.34" ry="8.34" transform="translate(-87.51 805.03) rotate(-57.17)"/><rect class="cls-5" x="709.44" y="465.1" width="57.12" height="16.67" rx="8.34" ry="8.34" transform="translate(181.05 1150.63) rotate(-83.25)"/><rect class="cls-7" x="674.75" y="385.1" width="80.36" height="28.29" rx="14.15" ry="14.15" transform="translate(220.51 1051.98) rotate(-82.04)"/><path class="cls-7" d="m719.75,421.31l26.46,26.03c3.28,3.23,3.33,8.51.1,11.79l-.93.95c-3.23,3.28-7.95,2.94-11.23-.29l-27.02-25.64c-3.28-3.23-3.33-8.51-.1-11.79l.93-.95c3.23-3.28,8.51-3.33,11.79-.1Z"/><path class="cls-7" d="m647.35,409.3l58.97-40.16c3.48-2.1,12.9-.18,14.55,2.55l.25.41c1.65,2.73.16,6.64-3.31,8.74l-64.25,38.75c-3.48,2.1-7.63,1.58-9.27-1.14l-.25-.41c-1.65-2.73-.16-6.64,3.31-8.74Z"/><circle class="cls-3" cx="725.87" cy="349.74" r="17.53"/><rect class="cls-7" x="668.4" y="498.2" width="86.92" height="6.79" rx="3.39" ry="3.39" transform="translate(-77.76 134.38) rotate(-10.23)"/><circle class="cls-7" cx="683.31" cy="515.81" r="4.65"/><circle class="cls-7" cx="740.21" cy="505.54" r="4.65"/><path class="cls-5" d="m142.89,457.63l-8.4-76.96c-.19-1.75-1.8-3-3.54-2.75l-7,1c-1.66.24-2.83,1.74-2.66,3.41l9.61,91.05.79-.06,12.44-.97,50-3.91c1.72-.13,3-1.63,2.86-3.35l-.43-5.51c-.13-1.72-1.63-3-3.35-2.86l-46.99,3.68c-1.68.13-3.16-1.09-3.34-2.77Z"/><path class="cls-7" d="m507.79,542.35H35.91c-5.98,0-7.53-8.28-1.95-10.44l471.89-100.27c3.54-1.37,7.35,1.24,7.35,5.04v100.27c0,2.98-2.42,5.4-5.4,5.4Z"/><path class="cls-1" d="m171.49,409.08l1.43,18.31c.02.26.01.51.02.76l29.03,3.54c1.54.62,2.82,1.61,3.78,2.82.12.15.23.3.34.46.05.07.1.13.14.19.55.81.99,1.72,1.27,2.72l3.78,44.36c1.4,4.97-1.5,10.14-6.47,11.54-4.97,1.4-10.14-1.5-11.54-6.47l-2.27-39-31.77-3.97c-.3.04-.6.09-.9.12-8.74.68-16.38-5.85-17.06-14.59l-4.56-58.24c-.68-8.74,5.85-16.38,14.59-17.06,8.74-.68,16.38,5.85,17.06,14.59l1.52,19.39,1.61,20.53Z"/><circle class="cls-3" cx="154.85" cy="342.63" r="19.67"/><path class="cls-7" d="m141.72,427.09c-21.66,1.69-37.85,20.63-36.16,42.3,1.69,21.66,20.63,37.85,42.3,36.16,21.66-1.69,37.85-20.63,36.16-42.3-1.69-21.66-20.63-37.85-42.3-36.16Zm33.9,36.82c.42,5.34-.55,10.47-2.6,15.04l-19.16-8.62,21.56-8.18c.08.58.15,1.17.19,1.76Zm-1.69-7.95l-22.04,8.37,10.53-23.41c5.24,3.64,9.32,8.86,11.51,15.05Zm-17.06-18.1l-10.85,24.12-9.65-25.41c1.93-.54,3.94-.91,6.01-1.07,5.13-.4,10.06.48,14.48,2.36Zm-26.37,1.04l9.58,25.24-23.46-10.55c2.84-6.28,7.73-11.48,13.88-14.69Zm-16.53,29.84c-.25-3.14-.01-6.21.64-9.13l22.76,10.24-21.25,8.07c-1.15-2.86-1.9-5.94-2.15-9.17Zm5.14,14.79l20.77-7.88-8.36,18.6c-5.01-2.39-9.31-6.1-12.41-10.71Zm18.37,12.84l8.05-17.89,6.77,17.84c-1.65.41-3.34.7-5.09.83-3.36.26-6.63-.03-9.73-.78Zm20.76-2.2l-6.84-18.02,18.45,8.3c-2.98,4.11-6.95,7.48-11.61,9.73Z"/><path class="cls-6" d="m164.03,449.94h0c-5.12.83-8.26-2.92-9.1-8.04l-11.38-59.32c-.83-5.12,2.64-9.95,7.76-10.78h0c5.12-.83,9.95,2.64,10.78,7.76l8.02,59.87c.83,5.12-.96,9.67-6.08,10.51Z"/><circle class="cls-8" cx="819.27" cy="459.38" r="22.92"/><circle class="cls-8" cx="453.18" cy="418.92" r="22.92"/><line class="cls-4" x1="420.49" y1="408.94" x2="384.63" y2="415.97"/><line class="cls-4" x1="410.58" y1="427.38" x2="374.71" y2="434.42"/><line class="cls-4" x1="433.69" y1="436.41" x2="397.83" y2="443.45"/><line class="cls-2" x1="798.38" y1="475.36" x2="784.48" y2="481.28"/><line class="cls-2" x1="790.93" y1="462.76" x2="776.04" y2="468.68"/></svg>